<svg width="275" height="90" viewBox="0 0 275 90" fill="none" xmlns="http://www.w3.org/2000/svg">
<g filter="url(#filter0_d_91_914)">
<rect x="15" y="13" width="235" height="50" rx="20" fill="#80884D"/>
</g>
<path d="M115.583 43H121.735V41.6807H117.114V33.1357H115.583V43ZM125.9 43.1436C128.074 43.1436 129.407 41.6875 129.407 39.2949V39.2812C129.407 36.8887 128.067 35.4326 125.9 35.4326C123.726 35.4326 122.387 36.8955 122.387 39.2812V39.2949C122.387 41.6875 123.72 43.1436 125.9 43.1436ZM125.9 41.9062C124.622 41.9062 123.904 40.9424 123.904 39.2949V39.2812C123.904 37.6338 124.622 36.6699 125.9 36.6699C127.172 36.6699 127.896 37.6338 127.896 39.2812V39.2949C127.896 40.9355 127.172 41.9062 125.9 41.9062ZM133.907 45.6182C136.013 45.6182 137.346 44.5381 137.346 42.8496V35.5762H135.869V36.793H135.78C135.35 35.959 134.543 35.4463 133.504 35.4463C131.576 35.4463 130.394 36.9434 130.394 39.0625V39.0762C130.394 41.168 131.569 42.6377 133.477 42.6377C134.495 42.6377 135.315 42.1865 135.767 41.3799H135.876V42.8428C135.876 43.8545 135.151 44.4287 133.928 44.4287C132.923 44.4287 132.321 44.0664 132.198 43.5537L132.191 43.54H130.694L130.681 43.5537C130.858 44.791 132.021 45.6182 133.907 45.6182ZM133.887 41.4141C132.622 41.4141 131.911 40.4502 131.911 39.0693V39.0557C131.911 37.6748 132.622 36.7041 133.887 36.7041C135.138 36.7041 135.903 37.6748 135.903 39.0557V39.0693C135.903 40.457 135.145 41.4141 133.887 41.4141ZM139.843 34.25C140.349 34.25 140.773 33.833 140.773 33.3271C140.773 32.8145 140.349 32.3975 139.843 32.3975C139.33 32.3975 138.913 32.8145 138.913 33.3271C138.913 33.833 139.33 34.25 139.843 34.25ZM139.098 43H140.574V35.5762H139.098V43ZM142.327 43H143.81V38.6455C143.81 37.4492 144.487 36.7041 145.574 36.7041C146.661 36.7041 147.173 37.3125 147.173 38.543V43H148.65V38.1943C148.65 36.4238 147.734 35.4326 146.073 35.4326C144.993 35.4326 144.282 35.9111 143.919 36.7041H143.81V35.5762H142.327V43Z" fill="white"/>
<defs>
<filter id="filter0_d_91_914" x="0" y="0" width="275" height="90" filterUnits="userSpaceOnUse" color-interpolation-filters="sRGB">
<feFlood flood-opacity="0" result="BackgroundImageFix"/>
<feColorMatrix in="SourceAlpha" type="matrix" values="0 0 0 0 0 0 0 0 0 0 0 0 0 0 0 0 0 0 127 0" result="hardAlpha"/>
<feOffset dx="5" dy="7"/>
<feGaussianBlur stdDeviation="10"/>
<feComposite in2="hardAlpha" operator="out"/>
<feColorMatrix type="matrix" values="0 0 0 0 0.501085 0 0 0 0 0.533333 0 0 0 0 0.302222 0 0 0 0.5 0"/>
<feBlend mode="normal" in2="BackgroundImageFix" result="effect1_dropShadow_91_914"/>
<feBlend mode="normal" in="SourceGraphic" in2="effect1_dropShadow_91_914" result="shape"/>
</filter>
</defs>
</svg>
