<svg width="235" height="50" viewBox="0 0 235 50" fill="none" xmlns="http://www.w3.org/2000/svg">
<g filter="url(#filter0_d_91_917)">
<rect width="235" height="50" rx="20" fill="#80884D"/>
</g>
<path d="M79.5545 30H81.0858V26.2061H83.246L85.2557 30H87.0262L84.8114 25.9668C86.0145 25.5635 86.7254 24.4834 86.7254 23.1572V23.1436C86.7254 21.3115 85.4676 20.1357 83.4442 20.1357H79.5545V30ZM81.0858 24.9619V21.4209H83.246C84.4286 21.4209 85.1532 22.0908 85.1532 23.1846V23.1982C85.1532 24.3193 84.4696 24.9619 83.2938 24.9619H81.0858ZM91.2256 30.1436C93.126 30.1436 94.1514 29.0498 94.3975 28.0723L94.4112 28.0107L92.9825 28.0176L92.9551 28.0723C92.7774 28.4551 92.21 28.9268 91.2598 28.9268C90.0362 28.9268 89.2569 28.0996 89.2296 26.6777H94.4932V26.1582C94.4932 23.9297 93.2217 22.4326 91.1505 22.4326C89.0792 22.4326 87.7393 23.9844 87.7393 26.3018V26.3086C87.7393 28.6602 89.0518 30.1436 91.2256 30.1436ZM91.1573 23.6494C92.1622 23.6494 92.9073 24.292 93.0235 25.6182H89.2501C89.3799 24.3398 90.1456 23.6494 91.1573 23.6494ZM98.9866 32.6182C101.092 32.6182 102.425 31.5381 102.425 29.8496V22.5762H100.949V23.793H100.86C100.429 22.959 99.6223 22.4463 98.5833 22.4463C96.6555 22.4463 95.4729 23.9434 95.4729 26.0625V26.0762C95.4729 28.168 96.6487 29.6377 98.5559 29.6377C99.5745 29.6377 100.395 29.1865 100.846 28.3799H100.955V29.8428C100.955 30.8545 100.231 31.4287 99.0071 31.4287C98.0022 31.4287 97.4007 31.0664 97.2776 30.5537L97.2708 30.54H95.7737L95.76 30.5537C95.9378 31.791 97.0999 32.6182 98.9866 32.6182ZM98.9661 28.4141C97.7014 28.4141 96.9905 27.4502 96.9905 26.0693V26.0557C96.9905 24.6748 97.7014 23.7041 98.9661 23.7041C100.217 23.7041 100.983 24.6748 100.983 26.0557V26.0693C100.983 27.457 100.224 28.4141 98.9661 28.4141ZM104.922 21.25C105.428 21.25 105.852 20.833 105.852 20.3271C105.852 19.8145 105.428 19.3975 104.922 19.3975C104.41 19.3975 103.993 19.8145 103.993 20.3271C103.993 20.833 104.41 21.25 104.922 21.25ZM104.177 30H105.654V22.5762H104.177V30ZM110.106 30.1436C111.87 30.1436 113.182 29.207 113.182 27.833V27.8193C113.182 26.7461 112.499 26.1377 111.07 25.8027L109.894 25.5361C109.06 25.3379 108.718 25.0508 108.718 24.5859V24.5723C108.718 23.9775 109.306 23.5742 110.12 23.5742C110.954 23.5742 111.48 23.9639 111.624 24.4834V24.4971H113.039V24.4902C112.909 23.2803 111.822 22.4326 110.127 22.4326C108.445 22.4326 107.242 23.3623 107.242 24.6543V24.6611C107.242 25.748 107.891 26.3838 109.293 26.7051L110.475 26.9785C111.337 27.1768 111.685 27.4912 111.685 27.9561V27.9697C111.685 28.5781 111.049 28.9951 110.133 28.9951C109.252 28.9951 108.712 28.6191 108.527 28.0586L108.52 28.0518H107.037V28.0586C107.18 29.3027 108.315 30.1436 110.106 30.1436ZM117.293 30.0479C117.58 30.0479 117.853 30.0137 118.093 29.9727V28.79C117.888 28.8105 117.758 28.8174 117.532 28.8174C116.801 28.8174 116.5 28.4893 116.5 27.6895V23.7451H118.093V22.5762H116.5V20.7031H114.989V22.5762H113.827V23.7451H114.989V28.0449C114.989 29.4736 115.659 30.0479 117.293 30.0479ZM119.414 30H120.898V25.5635C120.898 24.4902 121.67 23.793 122.805 23.793C123.085 23.793 123.338 23.8271 123.605 23.8818V22.5146C123.454 22.4805 123.194 22.4463 122.955 22.4463C121.964 22.4463 121.274 22.9111 121.007 23.6973H120.898V22.5762H119.414V30ZM125.384 21.25C125.89 21.25 126.314 20.833 126.314 20.3271C126.314 19.8145 125.89 19.3975 125.384 19.3975C124.871 19.3975 124.454 19.8145 124.454 20.3271C124.454 20.833 124.871 21.25 125.384 21.25ZM124.639 30H126.116V22.5762H124.639V30ZM130.985 30.1436C132.885 30.1436 133.911 29.0498 134.157 28.0723L134.17 28.0107L132.742 28.0176L132.714 28.0723C132.537 28.4551 131.969 28.9268 131.019 28.9268C129.795 28.9268 129.016 28.0996 128.989 26.6777H134.252V26.1582C134.252 23.9297 132.981 22.4326 130.91 22.4326C128.838 22.4326 127.499 23.9844 127.499 26.3018V26.3086C127.499 28.6602 128.811 30.1436 130.985 30.1436ZM130.917 23.6494C131.921 23.6494 132.667 24.292 132.783 25.6182H129.009C129.139 24.3398 129.905 23.6494 130.917 23.6494ZM135.608 30H137.092V25.5635C137.092 24.4902 137.864 23.793 138.999 23.793C139.279 23.793 139.532 23.8271 139.799 23.8818V22.5146C139.648 22.4805 139.388 22.4463 139.149 22.4463C138.158 22.4463 137.468 22.9111 137.201 23.6973H137.092V22.5762H135.608V30ZM143.731 30.1436C145.632 30.1436 146.657 29.0498 146.903 28.0723L146.917 28.0107L145.488 28.0176L145.461 28.0723C145.283 28.4551 144.716 28.9268 143.766 28.9268C142.542 28.9268 141.763 28.0996 141.735 26.6777H146.999V26.1582C146.999 23.9297 145.727 22.4326 143.656 22.4326C141.585 22.4326 140.245 23.9844 140.245 26.3018V26.3086C140.245 28.6602 141.558 30.1436 143.731 30.1436ZM143.663 23.6494C144.668 23.6494 145.413 24.292 145.529 25.6182H141.756C141.886 24.3398 142.651 23.6494 143.663 23.6494ZM148.355 30H149.838V25.6455C149.838 24.4492 150.515 23.7041 151.602 23.7041C152.689 23.7041 153.201 24.3125 153.201 25.543V30H154.678V25.1943C154.678 23.4238 153.762 22.4326 152.101 22.4326C151.021 22.4326 150.31 22.9111 149.947 23.7041H149.838V22.5762H148.355V30Z" fill="white"/>
<defs>
<filter id="filter0_d_91_917" x="-15" y="-13" width="275" height="90" filterUnits="userSpaceOnUse" color-interpolation-filters="sRGB">
<feFlood flood-opacity="0" result="BackgroundImageFix"/>
<feColorMatrix in="SourceAlpha" type="matrix" values="0 0 0 0 0 0 0 0 0 0 0 0 0 0 0 0 0 0 127 0" result="hardAlpha"/>
<feOffset dx="5" dy="7"/>
<feGaussianBlur stdDeviation="10"/>
<feComposite in2="hardAlpha" operator="out"/>
<feColorMatrix type="matrix" values="0 0 0 0 0.501085 0 0 0 0 0.533333 0 0 0 0 0.302222 0 0 0 0.5 0"/>
<feBlend mode="normal" in2="BackgroundImageFix" result="effect1_dropShadow_91_917"/>
<feBlend mode="normal" in="SourceGraphic" in2="effect1_dropShadow_91_917" result="shape"/>
</filter>
</defs>
</svg>
