<svg width="96" height="52" viewBox="0 0 96 52" fill="none" xmlns="http://www.w3.org/2000/svg">
<g filter="url(#filter0_d_0_1)">
<rect x="15" y="11" width="66" height="22" rx="5" fill="white"/>
<rect x="15.5" y="11.5" width="65" height="21" rx="4.5" stroke="#80884D"/>
</g>
<path d="M36.3824 25H37.5299L38.1695 23.0957H40.8648L41.4996 25H42.6519L40.108 17.9541H38.9264L36.3824 25ZM39.4732 19.1895H39.5562L40.5719 22.2168H38.4625L39.4732 19.1895ZM43.3963 25H44.4559V23.0713L44.91 22.6172L46.7361 25H48.0252L45.6668 21.9336L47.8787 19.6973H46.6385L44.534 21.9336H44.4559V17.6172H43.3963V25ZM50.5469 25.0342C50.752 25.0342 50.9473 25.0098 51.1182 24.9805V24.1357C50.9717 24.1504 50.8789 24.1553 50.7178 24.1553C50.1953 24.1553 49.9805 23.9209 49.9805 23.3496V20.5322H51.1182V19.6973H49.9805V18.3594H48.9014V19.6973H48.0713V20.5322H48.9014V23.6035C48.9014 24.624 49.3799 25.0342 50.5469 25.0342ZM52.4973 18.75C52.8586 18.75 53.1613 18.4521 53.1613 18.0908C53.1613 17.7246 52.8586 17.4268 52.4973 17.4268C52.1311 17.4268 51.8332 17.7246 51.8332 18.0908C51.8332 18.4521 52.1311 18.75 52.4973 18.75ZM51.965 25H53.0197V19.6973H51.965V25ZM55.6147 25H56.7426L58.6567 19.6973H57.5434L56.225 23.9258H56.142L54.8188 19.6973H53.6957L55.6147 25Z" fill="#80884D"/>
<defs>
<filter id="filter0_d_0_1" x="0" y="0" width="96" height="52" filterUnits="userSpaceOnUse" color-interpolation-filters="sRGB">
<feFlood flood-opacity="0" result="BackgroundImageFix"/>
<feColorMatrix in="SourceAlpha" type="matrix" values="0 0 0 0 0 0 0 0 0 0 0 0 0 0 0 0 0 0 127 0" result="hardAlpha"/>
<feOffset dy="4"/>
<feGaussianBlur stdDeviation="7.5"/>
<feComposite in2="hardAlpha" operator="out"/>
<feColorMatrix type="matrix" values="0 0 0 0 0.501085 0 0 0 0 0.533333 0 0 0 0 0.302222 0 0 0 0.35 0"/>
<feBlend mode="normal" in2="BackgroundImageFix" result="effect1_dropShadow_0_1"/>
<feBlend mode="normal" in="SourceGraphic" in2="effect1_dropShadow_0_1" result="shape"/>
</filter>
</defs>
</svg>
