<svg width="235" height="50" viewBox="0 0 235 50" fill="none" xmlns="http://www.w3.org/2000/svg">
<g filter="url(#filter0_d_91_911)">
<rect width="235" height="50" rx="20" fill="#80884D"/>
</g>
<path d="M47.6551 30H53.9168V28.6807H49.1863V25.6113H53.6639V24.3398H49.1863V21.4551H53.9168V20.1357H47.6551V30ZM55.5528 30H57.0362V25.5635C57.0362 24.4902 57.8086 23.793 58.9434 23.793C59.2237 23.793 59.4766 23.8271 59.7432 23.8818V22.5146C59.5928 22.4805 59.333 22.4463 59.0938 22.4463C58.1026 22.4463 57.4121 22.9111 57.1455 23.6973H57.0362V22.5762H55.5528V30ZM63.3 30.1436C65.0637 30.1436 66.3762 29.207 66.3762 27.833V27.8193C66.3762 26.7461 65.6926 26.1377 64.2639 25.8027L63.0881 25.5361C62.2541 25.3379 61.9123 25.0508 61.9123 24.5859V24.5723C61.9123 23.9775 62.5002 23.5742 63.3137 23.5742C64.1477 23.5742 64.6741 23.9639 64.8176 24.4834V24.4971H66.2326V24.4902C66.1028 23.2803 65.0158 22.4326 63.3205 22.4326C61.6389 22.4326 60.4358 23.3623 60.4358 24.6543V24.6611C60.4358 25.748 61.0852 26.3838 62.4866 26.7051L63.6692 26.9785C64.5305 27.1768 64.8791 27.4912 64.8791 27.9561V27.9697C64.8791 28.5781 64.2434 28.9951 63.3274 28.9951C62.4455 28.9951 61.9055 28.6191 61.7209 28.0586L61.7141 28.0518H60.2307V28.0586C60.3742 29.3027 61.509 30.1436 63.3 30.1436ZM70.4868 30.0479C70.7739 30.0479 71.0473 30.0137 71.2866 29.9727V28.79C71.0815 28.8105 70.9516 28.8174 70.726 28.8174C69.9946 28.8174 69.6938 28.4893 69.6938 27.6895V23.7451H71.2866V22.5762H69.6938V20.7031H68.183V22.5762H67.0209V23.7451H68.183V28.0449C68.183 29.4736 68.853 30.0479 70.4868 30.0479ZM75.6432 30.1436C77.5436 30.1436 78.569 29.0498 78.8151 28.0723L78.8288 28.0107L77.4 28.0176L77.3727 28.0723C77.195 28.4551 76.6276 28.9268 75.6774 28.9268C74.4538 28.9268 73.6745 28.0996 73.6471 26.6777H78.9108V26.1582C78.9108 23.9297 77.6393 22.4326 75.568 22.4326C73.4967 22.4326 72.1569 23.9844 72.1569 26.3018V26.3086C72.1569 28.6602 73.4694 30.1436 75.6432 30.1436ZM75.5748 23.6494C76.5797 23.6494 77.3248 24.292 77.4411 25.6182H73.6676C73.7975 24.3398 74.5631 23.6494 75.5748 23.6494ZM80.3348 30H81.8182V19.6641H80.3348V30ZM83.6866 30H85.17V19.6641H83.6866V30ZM90.0872 30.1436C91.9876 30.1436 93.013 29.0498 93.2591 28.0723L93.2727 28.0107L91.844 28.0176L91.8167 28.0723C91.6389 28.4551 91.0716 28.9268 90.1214 28.9268C88.8977 28.9268 88.1184 28.0996 88.0911 26.6777H93.3548V26.1582C93.3548 23.9297 92.0833 22.4326 90.012 22.4326C87.9407 22.4326 86.6008 23.9844 86.6008 26.3018V26.3086C86.6008 28.6602 87.9133 30.1436 90.0872 30.1436ZM90.0188 23.6494C91.0237 23.6494 91.7688 24.292 91.885 25.6182H88.1116C88.2415 24.3398 89.0071 23.6494 90.0188 23.6494ZM101.248 30.1436C103.148 30.1436 104.174 29.0498 104.42 28.0723L104.433 28.0107L103.005 28.0176L102.977 28.0723C102.799 28.4551 102.232 28.9268 101.282 28.9268C100.058 28.9268 99.279 28.0996 99.2516 26.6777H104.515V26.1582C104.515 23.9297 103.244 22.4326 101.173 22.4326C99.1013 22.4326 97.7614 23.9844 97.7614 26.3018V26.3086C97.7614 28.6602 99.0739 30.1436 101.248 30.1436ZM101.179 23.6494C102.184 23.6494 102.929 24.292 103.046 25.6182H99.2722C99.402 24.3398 100.168 23.6494 101.179 23.6494ZM106.643 21.25C107.149 21.25 107.573 20.833 107.573 20.3271C107.573 19.8145 107.149 19.3975 106.643 19.3975C106.131 19.3975 105.714 19.8145 105.714 20.3271C105.714 20.833 106.131 21.25 106.643 21.25ZM105.898 30H107.375V22.5762H105.898V30ZM109.127 30H110.61V25.6455C110.61 24.4492 111.287 23.7041 112.374 23.7041C113.461 23.7041 113.974 24.3125 113.974 25.543V30H115.45V25.1943C115.45 23.4238 114.534 22.4326 112.873 22.4326C111.793 22.4326 111.082 22.9111 110.72 23.7041H110.61V22.5762H109.127V30ZM120.231 30.1436C122.131 30.1436 123.157 29.0498 123.403 28.0723L123.416 28.0107L121.988 28.0176L121.96 28.0723C121.783 28.4551 121.215 28.9268 120.265 28.9268C119.041 28.9268 118.262 28.0996 118.235 26.6777H123.498V26.1582C123.498 23.9297 122.227 22.4326 120.156 22.4326C118.084 22.4326 116.744 23.9844 116.744 26.3018V26.3086C116.744 28.6602 118.057 30.1436 120.231 30.1436ZM120.162 23.6494C121.167 23.6494 121.912 24.292 122.029 25.6182H118.255C118.385 24.3398 119.151 23.6494 120.162 23.6494ZM124.854 30H126.337V25.6455C126.337 24.4492 127.014 23.7041 128.101 23.7041C129.188 23.7041 129.701 24.3125 129.701 25.543V30H131.177V25.1943C131.177 23.4238 130.261 22.4326 128.6 22.4326C127.52 22.4326 126.809 22.9111 126.447 23.7041H126.337V22.5762H124.854V30ZM135.673 30H137.279L138.175 27.334H141.948L142.837 30H144.45L140.889 20.1357H139.234L135.673 30ZM140 21.8652H140.116L141.538 26.1035H138.585L140 21.8652ZM148.301 30.1436C150.14 30.1436 151.199 29.1523 151.466 27.71L151.48 27.6484H150.058L150.044 27.6826C149.805 28.4824 149.231 28.9062 148.301 28.9062C147.077 28.9062 146.318 27.9082 146.318 26.2676V26.2539C146.318 24.6543 147.064 23.6699 148.301 23.6699C149.285 23.6699 149.887 24.2168 150.051 24.9482L150.058 24.9688L151.48 24.9619V24.9277C151.275 23.4854 150.16 22.4326 148.294 22.4326C146.127 22.4326 144.808 23.9023 144.808 26.2539V26.2676C144.808 28.667 146.134 30.1436 148.301 30.1436ZM155.877 30.1436C157.716 30.1436 158.776 29.1523 159.042 27.71L159.056 27.6484H157.634L157.62 27.6826C157.381 28.4824 156.807 28.9062 155.877 28.9062C154.654 28.9062 153.895 27.9082 153.895 26.2676V26.2539C153.895 24.6543 154.64 23.6699 155.877 23.6699C156.862 23.6699 157.463 24.2168 157.627 24.9482L157.634 24.9688L159.056 24.9619V24.9277C158.851 23.4854 157.737 22.4326 155.87 22.4326C153.703 22.4326 152.384 23.9023 152.384 26.2539V26.2676C152.384 28.667 153.71 30.1436 155.877 30.1436ZM163.474 30.1436C165.648 30.1436 166.981 28.6875 166.981 26.2949V26.2812C166.981 23.8887 165.641 22.4326 163.474 22.4326C161.3 22.4326 159.961 23.8955 159.961 26.2812V26.2949C159.961 28.6875 161.294 30.1436 163.474 30.1436ZM163.474 28.9062C162.196 28.9062 161.478 27.9424 161.478 26.2949V26.2812C161.478 24.6338 162.196 23.6699 163.474 23.6699C164.746 23.6699 165.47 24.6338 165.47 26.2812V26.2949C165.47 27.9355 164.746 28.9062 163.474 28.9062ZM170.818 30.1436C171.898 30.1436 172.65 29.6787 173.006 28.8789H173.122V30H174.598V22.5762H173.122V26.9307C173.122 28.127 172.486 28.8721 171.297 28.8721C170.21 28.8721 169.759 28.2637 169.759 27.0332V22.5762H168.275V27.3818C168.275 29.1387 169.143 30.1436 170.818 30.1436ZM176.33 30H177.813V25.6455C177.813 24.4492 178.49 23.7041 179.577 23.7041C180.664 23.7041 181.177 24.3125 181.177 25.543V30H182.653V25.1943C182.653 23.4238 181.737 22.4326 180.076 22.4326C178.996 22.4326 178.285 22.9111 177.923 23.7041H177.813V22.5762H176.33V30ZM187.119 30.0479C187.406 30.0479 187.68 30.0137 187.919 29.9727V28.79C187.714 28.8105 187.584 28.8174 187.359 28.8174C186.627 28.8174 186.326 28.4893 186.326 27.6895V23.7451H187.919V22.5762H186.326V20.7031H184.816V22.5762H183.654V23.7451H184.816V28.0449C184.816 29.4736 185.486 30.0479 187.119 30.0479Z" fill="white"/>
<defs>
<filter id="filter0_d_91_911" x="-15" y="-13" width="275" height="90" filterUnits="userSpaceOnUse" color-interpolation-filters="sRGB">
<feFlood flood-opacity="0" result="BackgroundImageFix"/>
<feColorMatrix in="SourceAlpha" type="matrix" values="0 0 0 0 0 0 0 0 0 0 0 0 0 0 0 0 0 0 127 0" result="hardAlpha"/>
<feOffset dx="5" dy="7"/>
<feGaussianBlur stdDeviation="10"/>
<feComposite in2="hardAlpha" operator="out"/>
<feColorMatrix type="matrix" values="0 0 0 0 0.501085 0 0 0 0 0.533333 0 0 0 0 0.302222 0 0 0 0.5 0"/>
<feBlend mode="normal" in2="BackgroundImageFix" result="effect1_dropShadow_91_911"/>
<feBlend mode="normal" in="SourceGraphic" in2="effect1_dropShadow_91_911" result="shape"/>
</filter>
</defs>
</svg>
