<svg width="275" height="90" viewBox="0 0 275 90" fill="none" xmlns="http://www.w3.org/2000/svg">
<g filter="url(#filter0_d_91_905)">
<rect x="15" y="13" width="235" height="50" rx="20" fill="#80884D"/>
</g>
<path d="M77.7201 43.2393C79.9212 43.2393 81.5277 41.9814 81.8148 40.0879V40.0469H80.2972L80.2835 40.0742C80.0033 41.1885 79.0257 41.8857 77.7201 41.8857C75.9427 41.8857 74.8353 40.416 74.8353 38.0781V38.0645C74.8353 35.7197 75.9427 34.25 77.7132 34.25C79.012 34.25 80.0033 35.0361 80.2904 36.2461V36.2666H81.8079L81.8148 36.2324C81.555 34.2705 79.887 32.8965 77.7132 32.8965C74.972 32.8965 73.2699 34.8789 73.2699 38.0645V38.0781C73.2699 41.2568 74.9788 43.2393 77.7201 43.2393ZM83.2525 43H84.7359V38.5635C84.7359 37.4902 85.5083 36.793 86.6431 36.793C86.9234 36.793 87.1763 36.8271 87.4429 36.8818V35.5146C87.2925 35.4805 87.0328 35.4463 86.7935 35.4463C85.8023 35.4463 85.1119 35.9111 84.8453 36.6973H84.7359V35.5762H83.2525V43ZM91.3757 43.1436C93.2761 43.1436 94.3015 42.0498 94.5476 41.0723L94.5613 41.0107L93.1326 41.0176L93.1052 41.0723C92.9275 41.4551 92.3601 41.9268 91.4099 41.9268C90.1863 41.9268 89.407 41.0996 89.3796 39.6777H94.6433V39.1582C94.6433 36.9297 93.3718 35.4326 91.3005 35.4326C89.2292 35.4326 87.8894 36.9844 87.8894 39.3018V39.3086C87.8894 41.6602 89.2019 43.1436 91.3757 43.1436ZM91.3074 36.6494C92.3123 36.6494 93.0574 37.292 93.1736 38.6182H89.4001C89.53 37.3398 90.2957 36.6494 91.3074 36.6494ZM98.0361 43.123C99.0205 43.123 99.7998 42.6992 100.237 41.9473H100.353V43H101.823V37.9209C101.823 36.3623 100.77 35.4326 98.9043 35.4326C97.2158 35.4326 96.0468 36.2461 95.8691 37.4629L95.8623 37.5107H97.291L97.2978 37.4834C97.4755 36.957 98.0156 36.6562 98.8359 36.6562C99.8408 36.6562 100.353 37.1074 100.353 37.9209V38.5771L98.3437 38.6934C96.5732 38.8027 95.5752 39.5752 95.5752 40.9014V40.915C95.5752 42.2617 96.6211 43.123 98.0361 43.123ZM97.0517 40.8535V40.8398C97.0517 40.1699 97.5166 39.8008 98.542 39.7393L100.353 39.623V40.2588C100.353 41.2158 99.54 41.9404 98.4326 41.9404C97.6328 41.9404 97.0517 41.5371 97.0517 40.8535ZM106.31 43.0479C106.597 43.0479 106.87 43.0137 107.11 42.9727V41.79C106.904 41.8105 106.775 41.8174 106.549 41.8174C105.818 41.8174 105.517 41.4893 105.517 40.6895V36.7451H107.11V35.5762H105.517V33.7031H104.006V35.5762H102.844V36.7451H104.006V41.0449C104.006 42.4736 104.676 43.0479 106.31 43.0479ZM111.466 43.1436C113.367 43.1436 114.392 42.0498 114.638 41.0723L114.652 41.0107L113.223 41.0176L113.196 41.0723C113.018 41.4551 112.451 41.9268 111.5 41.9268C110.277 41.9268 109.497 41.0996 109.47 39.6777H114.734V39.1582C114.734 36.9297 113.462 35.4326 111.391 35.4326C109.32 35.4326 107.98 36.9844 107.98 39.3018V39.3086C107.98 41.6602 109.292 43.1436 111.466 43.1436ZM111.398 36.6494C112.403 36.6494 113.148 37.292 113.264 38.6182H109.491C109.62 37.3398 110.386 36.6494 111.398 36.6494ZM118.922 43H120.528L121.424 40.334H125.197L126.086 43H127.699L124.137 33.1357H122.483L118.922 43ZM123.249 34.8652H123.365L124.787 39.1035H121.834L123.249 34.8652ZM128.836 43H130.319V38.6455C130.319 37.4492 130.996 36.7041 132.083 36.7041C133.17 36.7041 133.683 37.3125 133.683 38.543V43H135.159V38.1943C135.159 36.4238 134.243 35.4326 132.582 35.4326C131.502 35.4326 130.791 35.9111 130.429 36.7041H130.319V35.5762H128.836V43ZM139.655 43H141.261L142.157 40.334H145.93L146.819 43H148.432L144.871 33.1357H143.216L139.655 43ZM143.982 34.8652H144.098L145.52 39.1035H142.567L143.982 34.8652ZM152.283 43.1436C154.122 43.1436 155.181 42.1523 155.448 40.71L155.462 40.6484H154.04L154.026 40.6826C153.787 41.4824 153.213 41.9062 152.283 41.9062C151.059 41.9062 150.3 40.9082 150.3 39.2676V39.2539C150.3 37.6543 151.046 36.6699 152.283 36.6699C153.267 36.6699 153.869 37.2168 154.033 37.9482L154.04 37.9688L155.462 37.9619V37.9277C155.256 36.4854 154.142 35.4326 152.276 35.4326C150.109 35.4326 148.79 36.9023 148.79 39.2539V39.2676C148.79 41.667 150.116 43.1436 152.283 43.1436ZM159.859 43.1436C161.698 43.1436 162.758 42.1523 163.024 40.71L163.038 40.6484H161.616L161.602 40.6826C161.363 41.4824 160.789 41.9062 159.859 41.9062C158.636 41.9062 157.877 40.9082 157.877 39.2676V39.2539C157.877 37.6543 158.622 36.6699 159.859 36.6699C160.844 36.6699 161.445 37.2168 161.609 37.9482L161.616 37.9688L163.038 37.9619V37.9277C162.833 36.4854 161.719 35.4326 159.852 35.4326C157.685 35.4326 156.366 36.9023 156.366 39.2539V39.2676C156.366 41.667 157.692 43.1436 159.859 43.1436ZM167.456 43.1436C169.63 43.1436 170.963 41.6875 170.963 39.2949V39.2812C170.963 36.8887 169.623 35.4326 167.456 35.4326C165.282 35.4326 163.942 36.8955 163.942 39.2812V39.2949C163.942 41.6875 165.275 43.1436 167.456 43.1436ZM167.456 41.9062C166.178 41.9062 165.46 40.9424 165.46 39.2949V39.2812C165.46 37.6338 166.178 36.6699 167.456 36.6699C168.728 36.6699 169.452 37.6338 169.452 39.2812V39.2949C169.452 40.9355 168.728 41.9062 167.456 41.9062ZM174.8 43.1436C175.88 43.1436 176.632 42.6787 176.988 41.8789H177.104V43H178.58V35.5762H177.104V39.9307C177.104 41.127 176.468 41.8721 175.279 41.8721C174.192 41.8721 173.74 41.2637 173.74 40.0332V35.5762H172.257V40.3818C172.257 42.1387 173.125 43.1436 174.8 43.1436ZM180.312 43H181.795V38.6455C181.795 37.4492 182.472 36.7041 183.559 36.7041C184.646 36.7041 185.159 37.3125 185.159 38.543V43H186.635V38.1943C186.635 36.4238 185.719 35.4326 184.058 35.4326C182.978 35.4326 182.267 35.9111 181.905 36.7041H181.795V35.5762H180.312V43ZM191.101 43.0479C191.388 43.0479 191.662 43.0137 191.901 42.9727V41.79C191.696 41.8105 191.566 41.8174 191.34 41.8174C190.609 41.8174 190.308 41.4893 190.308 40.6895V36.7451H191.901V35.5762H190.308V33.7031H188.798V35.5762H187.635V36.7451H188.798V41.0449C188.798 42.4736 189.467 43.0479 191.101 43.0479Z" fill="white"/>
<defs>
<filter id="filter0_d_91_905" x="0" y="0" width="275" height="90" filterUnits="userSpaceOnUse" color-interpolation-filters="sRGB">
<feFlood flood-opacity="0" result="BackgroundImageFix"/>
<feColorMatrix in="SourceAlpha" type="matrix" values="0 0 0 0 0 0 0 0 0 0 0 0 0 0 0 0 0 0 127 0" result="hardAlpha"/>
<feOffset dx="5" dy="7"/>
<feGaussianBlur stdDeviation="10"/>
<feComposite in2="hardAlpha" operator="out"/>
<feColorMatrix type="matrix" values="0 0 0 0 0.501085 0 0 0 0 0.533333 0 0 0 0 0.302222 0 0 0 0.5 0"/>
<feBlend mode="normal" in2="BackgroundImageFix" result="effect1_dropShadow_91_905"/>
<feBlend mode="normal" in="SourceGraphic" in2="effect1_dropShadow_91_905" result="shape"/>
</filter>
</defs>
</svg>
