<svg width="275" height="90" viewBox="0 0 275 90" fill="none" xmlns="http://www.w3.org/2000/svg">
<g filter="url(#filter0_d_91_905)">
<rect x="15" y="13" width="235" height="50" rx="20" fill="#80884D"/>
</g>
<path d="M114.365 43H115.814L117.926 35.624H118.022L120.141 43H121.583L124.249 33.1357H122.657L120.852 40.8057H120.756L118.685 33.1357H117.263L115.206 40.8057H115.11L113.298 33.1357H111.706L114.365 43ZM127.902 43.1436C129.802 43.1436 130.828 42.0498 131.074 41.0723L131.088 41.0107L129.659 41.0176L129.632 41.0723C129.454 41.4551 128.886 41.9268 127.936 41.9268C126.713 41.9268 125.933 41.0996 125.906 39.6777H131.17V39.1582C131.17 36.9297 129.898 35.4326 127.827 35.4326C125.756 35.4326 124.416 36.9844 124.416 39.3018V39.3086C124.416 41.6602 125.728 43.1436 127.902 43.1436ZM127.834 36.6494C128.839 36.6494 129.584 37.292 129.7 38.6182H125.926C126.056 37.3398 126.822 36.6494 127.834 36.6494ZM133.298 34.25C133.804 34.25 134.227 33.833 134.227 33.3271C134.227 32.8145 133.804 32.3975 133.298 32.3975C132.785 32.3975 132.368 32.8145 132.368 33.3271C132.368 33.833 132.785 34.25 133.298 34.25ZM132.553 43H134.029V35.5762H132.553V43ZM138.584 43.0479C138.871 43.0479 139.145 43.0137 139.384 42.9727V41.79C139.179 41.8105 139.049 41.8174 138.823 41.8174C138.092 41.8174 137.791 41.4893 137.791 40.6895V36.7451H139.384V35.5762H137.791V33.7031H136.28V35.5762H135.118V36.7451H136.28V41.0449C136.28 42.4736 136.95 43.0479 138.584 43.0479ZM143.741 43.1436C145.641 43.1436 146.666 42.0498 146.912 41.0723L146.926 41.0107L145.497 41.0176L145.47 41.0723C145.292 41.4551 144.725 41.9268 143.775 41.9268C142.551 41.9268 141.772 41.0996 141.744 39.6777H147.008V39.1582C147.008 36.9297 145.737 35.4326 143.665 35.4326C141.594 35.4326 140.254 36.9844 140.254 39.3018V39.3086C140.254 41.6602 141.567 43.1436 143.741 43.1436ZM143.672 36.6494C144.677 36.6494 145.422 37.292 145.538 38.6182H141.765C141.895 37.3398 142.66 36.6494 143.672 36.6494ZM148.364 43H149.847V38.5635C149.847 37.4902 150.62 36.793 151.754 36.793C152.035 36.793 152.288 36.8271 152.554 36.8818V35.5146C152.404 35.4805 152.144 35.4463 151.905 35.4463C150.914 35.4463 150.223 35.9111 149.957 36.6973H149.847V35.5762H148.364V43Z" fill="white"/>
<defs>
<filter id="filter0_d_91_905" x="0" y="0" width="275" height="90" filterUnits="userSpaceOnUse" color-interpolation-filters="sRGB">
<feFlood flood-opacity="0" result="BackgroundImageFix"/>
<feColorMatrix in="SourceAlpha" type="matrix" values="0 0 0 0 0 0 0 0 0 0 0 0 0 0 0 0 0 0 127 0" result="hardAlpha"/>
<feOffset dx="5" dy="7"/>
<feGaussianBlur stdDeviation="10"/>
<feComposite in2="hardAlpha" operator="out"/>
<feColorMatrix type="matrix" values="0 0 0 0 0.501085 0 0 0 0 0.533333 0 0 0 0 0.302222 0 0 0 0.5 0"/>
<feBlend mode="normal" in2="BackgroundImageFix" result="effect1_dropShadow_91_905"/>
<feBlend mode="normal" in="SourceGraphic" in2="effect1_dropShadow_91_905" result="shape"/>
</filter>
</defs>
</svg>
