<svg width="235" height="50" viewBox="0 0 235 50" fill="none" xmlns="http://www.w3.org/2000/svg">
<g filter="url(#filter0_d_113_1392)">
<rect width="235" height="50" rx="20" fill="#80884D"/>
</g>
<path d="M84.3087 30H88.3624C90.4678 30 91.7325 28.9473 91.7325 27.2178V27.2041C91.7325 25.9189 90.8438 24.9756 89.5108 24.832V24.7158C90.4815 24.5518 91.2403 23.6289 91.2403 22.6035V22.5898C91.2403 21.0791 90.126 20.1357 88.2735 20.1357H84.3087V30ZM87.918 21.3867C89.0528 21.3867 89.7159 21.9268 89.7159 22.8564V22.8701C89.7159 23.8271 89.0118 24.333 87.6583 24.333H85.8399V21.3867H87.918ZM87.9659 25.502C89.4083 25.502 90.1671 26.0488 90.1671 27.1084V27.1221C90.1671 28.1816 89.4356 28.749 88.0547 28.749H85.8399V25.502H87.9659ZM96.2395 30.1436C98.1399 30.1436 99.1653 29.0498 99.4114 28.0723L99.4251 28.0107L97.9964 28.0176L97.969 28.0723C97.7913 28.4551 97.2239 28.9268 96.2737 28.9268C95.0501 28.9268 94.2708 28.0996 94.2434 26.6777H99.5071V26.1582C99.5071 23.9297 98.2356 22.4326 96.1643 22.4326C94.093 22.4326 92.7532 23.9844 92.7532 26.3018V26.3086C92.7532 28.6602 94.0657 30.1436 96.2395 30.1436ZM96.1712 23.6494C97.176 23.6494 97.9212 24.292 98.0374 25.6182H94.2639C94.3938 24.3398 95.1594 23.6494 96.1712 23.6494ZM103.563 30.1436C105.327 30.1436 106.639 29.207 106.639 27.833V27.8193C106.639 26.7461 105.956 26.1377 104.527 25.8027L103.351 25.5361C102.517 25.3379 102.175 25.0508 102.175 24.5859V24.5723C102.175 23.9775 102.763 23.5742 103.577 23.5742C104.411 23.5742 104.937 23.9639 105.081 24.4834V24.4971H106.496V24.4902C106.366 23.2803 105.279 22.4326 103.583 22.4326C101.902 22.4326 100.699 23.3623 100.699 24.6543V24.6611C100.699 25.748 101.348 26.3838 102.749 26.7051L103.932 26.9785C104.793 27.1768 105.142 27.4912 105.142 27.9561V27.9697C105.142 28.5781 104.506 28.9951 103.59 28.9951C102.708 28.9951 102.168 28.6191 101.984 28.0586L101.977 28.0518H100.494V28.0586C100.637 29.3027 101.772 30.1436 103.563 30.1436ZM110.75 30.0479C111.037 30.0479 111.31 30.0137 111.549 29.9727V28.79C111.344 28.8105 111.215 28.8174 110.989 28.8174C110.258 28.8174 109.957 28.4893 109.957 27.6895V23.7451H111.549V22.5762H109.957V20.7031H108.446V22.5762H107.284V23.7451H108.446V28.0449C108.446 29.4736 109.116 30.0479 110.75 30.0479ZM114.204 21.1953C114.676 21.1953 115.058 20.8125 115.058 20.3408C115.058 19.876 114.676 19.4932 114.204 19.4932C113.739 19.4932 113.35 19.876 113.35 20.3408C113.35 20.8125 113.739 21.1953 114.204 21.1953ZM117.342 21.1953C117.813 21.1953 118.203 20.8125 118.203 20.3408C118.203 19.876 117.813 19.4932 117.342 19.4932C116.877 19.4932 116.487 19.876 116.487 20.3408C116.487 20.8125 116.877 21.1953 117.342 21.1953ZM114.908 30.123C115.892 30.123 116.672 29.6992 117.109 28.9473H117.225V30H118.695V24.9209C118.695 23.3623 117.642 22.4326 115.776 22.4326C114.088 22.4326 112.919 23.2461 112.741 24.4629L112.734 24.5107H114.163L114.17 24.4834C114.348 23.957 114.888 23.6562 115.708 23.6562C116.713 23.6562 117.225 24.1074 117.225 24.9209V25.5771L115.216 25.6934C113.445 25.8027 112.447 26.5752 112.447 27.9014V27.915C112.447 29.2617 113.493 30.123 114.908 30.123ZM113.924 27.8535V27.8398C113.924 27.1699 114.389 26.8008 115.414 26.7393L117.225 26.623V27.2588C117.225 28.2158 116.412 28.9404 115.305 28.9404C114.505 28.9404 113.924 28.5371 113.924 27.8535ZM123.182 30.0479C123.469 30.0479 123.742 30.0137 123.982 29.9727V28.79C123.776 28.8105 123.647 28.8174 123.421 28.8174C122.69 28.8174 122.389 28.4893 122.389 27.6895V23.7451H123.982V22.5762H122.389V20.7031H120.878V22.5762H119.716V23.7451H120.878V28.0449C120.878 29.4736 121.548 30.0479 123.182 30.0479ZM126.076 21.25C126.581 21.25 127.005 20.833 127.005 20.3271C127.005 19.8145 126.581 19.3975 126.076 19.3975C125.563 19.3975 125.146 19.8145 125.146 20.3271C125.146 20.833 125.563 21.25 126.076 21.25ZM125.33 30H126.807V22.5762H125.33V30ZM131.697 32.6182C133.802 32.6182 135.135 31.5381 135.135 29.8496V22.5762H133.659V23.793H133.57C133.139 22.959 132.333 22.4463 131.293 22.4463C129.366 22.4463 128.183 23.9434 128.183 26.0625V26.0762C128.183 28.168 129.359 29.6377 131.266 29.6377C132.285 29.6377 133.105 29.1865 133.556 28.3799H133.666V29.8428C133.666 30.8545 132.941 31.4287 131.717 31.4287C130.712 31.4287 130.111 31.0664 129.988 30.5537L129.981 30.54H128.484L128.47 30.5537C128.648 31.791 129.81 32.6182 131.697 32.6182ZM131.676 28.4141C130.412 28.4141 129.701 27.4502 129.701 26.0693V26.0557C129.701 24.6748 130.412 23.7041 131.676 23.7041C132.927 23.7041 133.693 24.6748 133.693 26.0557V26.0693C133.693 27.457 132.934 28.4141 131.676 28.4141ZM139.977 30.1436C141.878 30.1436 142.903 29.0498 143.149 28.0723L143.163 28.0107L141.734 28.0176L141.707 28.0723C141.529 28.4551 140.962 28.9268 140.011 28.9268C138.788 28.9268 138.009 28.0996 137.981 26.6777H143.245V26.1582C143.245 23.9297 141.973 22.4326 139.902 22.4326C137.831 22.4326 136.491 23.9844 136.491 26.3018V26.3086C136.491 28.6602 137.803 30.1436 139.977 30.1436ZM139.909 23.6494C140.914 23.6494 141.659 24.292 141.775 25.6182H138.002C138.132 24.3398 138.897 23.6494 139.909 23.6494ZM144.601 30H146.084V25.6455C146.084 24.4492 146.761 23.7041 147.848 23.7041C148.935 23.7041 149.447 24.3125 149.447 25.543V30H150.924V25.1943C150.924 23.4238 150.008 22.4326 148.347 22.4326C147.267 22.4326 146.556 22.9111 146.193 23.7041H146.084V22.5762H144.601V30Z" fill="white"/>
<defs>
<filter id="filter0_d_113_1392" x="-15" y="-13" width="275" height="90" filterUnits="userSpaceOnUse" color-interpolation-filters="sRGB">
<feFlood flood-opacity="0" result="BackgroundImageFix"/>
<feColorMatrix in="SourceAlpha" type="matrix" values="0 0 0 0 0 0 0 0 0 0 0 0 0 0 0 0 0 0 127 0" result="hardAlpha"/>
<feOffset dx="5" dy="7"/>
<feGaussianBlur stdDeviation="10"/>
<feComposite in2="hardAlpha" operator="out"/>
<feColorMatrix type="matrix" values="0 0 0 0 0.501085 0 0 0 0 0.533333 0 0 0 0 0.302222 0 0 0 0.5 0"/>
<feBlend mode="normal" in2="BackgroundImageFix" result="effect1_dropShadow_113_1392"/>
<feBlend mode="normal" in="SourceGraphic" in2="effect1_dropShadow_113_1392" result="shape"/>
</filter>
</defs>
</svg>
