<svg width="235" height="50" viewBox="0 0 235 50" fill="none" xmlns="http://www.w3.org/2000/svg">
<g filter="url(#filter0_d_91_920)">
<rect width="235" height="50" rx="20" fill="#80884D"/>
</g>
<path d="M97.5952 30.2393C99.8921 30.2393 101.362 29.0635 101.362 27.1768V27.1699C101.362 25.707 100.514 24.873 98.4429 24.4287L97.3696 24.1895C96.0913 23.916 95.5718 23.4375 95.5718 22.7061V22.6992C95.5718 21.7695 96.4263 21.2295 97.5815 21.2295C98.7778 21.2227 99.5503 21.8105 99.6802 22.6172L99.6938 22.7061H101.177L101.17 22.6104C101.061 21.0791 99.6938 19.8965 97.602 19.8965C95.5102 19.8965 94.0337 21.0723 94.0268 22.7744V22.7812C94.0268 24.2373 94.8882 25.167 96.8911 25.5908L97.9712 25.8232C99.2768 26.1035 99.81 26.5957 99.81 27.3545V27.3613C99.81 28.2773 98.9145 28.9062 97.6567 28.9062C96.3374 28.9062 95.3872 28.332 95.3052 27.4365L95.2983 27.3613H93.7944L93.8013 27.4502C93.938 29.1113 95.3667 30.2393 97.5952 30.2393ZM105.917 30.1436C107.817 30.1436 108.842 29.0498 109.089 28.0723L109.102 28.0107L107.674 28.0176L107.646 28.0723C107.468 28.4551 106.901 28.9268 105.951 28.9268C104.727 28.9268 103.948 28.0996 103.921 26.6777H109.184V26.1582C109.184 23.9297 107.913 22.4326 105.841 22.4326C103.77 22.4326 102.43 23.9844 102.43 26.3018V26.3086C102.43 28.6602 103.743 30.1436 105.917 30.1436ZM105.848 23.6494C106.853 23.6494 107.598 24.292 107.715 25.6182H103.941C104.071 24.3398 104.837 23.6494 105.848 23.6494ZM110.54 30H112.023V25.6455C112.023 24.4492 112.7 23.7041 113.787 23.7041C114.874 23.7041 115.387 24.3125 115.387 25.543V30H116.863V25.1943C116.863 23.4238 115.947 22.4326 114.286 22.4326C113.206 22.4326 112.495 22.9111 112.133 23.7041H112.023V22.5762H110.54V30ZM121.234 30.123C122.273 30.123 123.086 29.6445 123.517 28.8311H123.633V30H125.109V19.6641H123.633V23.752H123.517C123.12 22.9521 122.252 22.4463 121.234 22.4463C119.347 22.4463 118.157 23.9297 118.157 26.2812V26.2949C118.157 28.626 119.367 30.123 121.234 30.123ZM121.657 28.8584C120.413 28.8584 119.668 27.8877 119.668 26.2949V26.2812C119.668 24.6885 120.413 23.7178 121.657 23.7178C122.888 23.7178 123.653 24.6953 123.653 26.2812V26.2949C123.653 27.8809 122.895 28.8584 121.657 28.8584ZM130.027 30.1436C131.927 30.1436 132.952 29.0498 133.199 28.0723L133.212 28.0107L131.784 28.0176L131.756 28.0723C131.578 28.4551 131.011 28.9268 130.061 28.9268C128.837 28.9268 128.058 28.0996 128.031 26.6777H133.294V26.1582C133.294 23.9297 132.023 22.4326 129.951 22.4326C127.88 22.4326 126.54 23.9844 126.54 26.3018V26.3086C126.54 28.6602 127.853 30.1436 130.027 30.1436ZM129.958 23.6494C130.963 23.6494 131.708 24.292 131.825 25.6182H128.051C128.181 24.3398 128.947 23.6494 129.958 23.6494ZM134.65 30H136.133V25.6455C136.133 24.4492 136.81 23.7041 137.897 23.7041C138.984 23.7041 139.497 24.3125 139.497 25.543V30H140.973V25.1943C140.973 23.4238 140.057 22.4326 138.396 22.4326C137.316 22.4326 136.605 22.9111 136.243 23.7041H136.133V22.5762H134.65V30Z" fill="white"/>
<defs>
<filter id="filter0_d_91_920" x="-15" y="-13" width="275" height="90" filterUnits="userSpaceOnUse" color-interpolation-filters="sRGB">
<feFlood flood-opacity="0" result="BackgroundImageFix"/>
<feColorMatrix in="SourceAlpha" type="matrix" values="0 0 0 0 0 0 0 0 0 0 0 0 0 0 0 0 0 0 127 0" result="hardAlpha"/>
<feOffset dx="5" dy="7"/>
<feGaussianBlur stdDeviation="10"/>
<feComposite in2="hardAlpha" operator="out"/>
<feColorMatrix type="matrix" values="0 0 0 0 0.501085 0 0 0 0 0.533333 0 0 0 0 0.302222 0 0 0 0.5 0"/>
<feBlend mode="normal" in2="BackgroundImageFix" result="effect1_dropShadow_91_920"/>
<feBlend mode="normal" in="SourceGraphic" in2="effect1_dropShadow_91_920" result="shape"/>
</filter>
</defs>
</svg>
