<svg width="275" height="90" viewBox="0 0 275 90" fill="none" xmlns="http://www.w3.org/2000/svg">
<g filter="url(#filter0_d_91_914)">
<rect x="15" y="13" width="235" height="50" rx="20" fill="#80884D"/>
</g>
<path d="M114.911 43.2393C117.207 43.2393 118.677 42.0635 118.677 40.1768V40.1699C118.677 38.707 117.829 37.873 115.758 37.4287L114.685 37.1895C113.407 36.916 112.887 36.4375 112.887 35.7061V35.6992C112.887 34.7695 113.742 34.2295 114.897 34.2295C116.093 34.2227 116.866 34.8105 116.995 35.6172L117.009 35.7061H118.493L118.486 35.6104C118.376 34.0791 117.009 32.8965 114.917 32.8965C112.826 32.8965 111.349 34.0723 111.342 35.7744V35.7812C111.342 37.2373 112.203 38.167 114.206 38.5908L115.286 38.8232C116.592 39.1035 117.125 39.5957 117.125 40.3545V40.3613C117.125 41.2773 116.23 41.9062 114.972 41.9062C113.653 41.9062 112.703 41.332 112.62 40.4365L112.614 40.3613H111.11L111.117 40.4502C111.253 42.1113 112.682 43.2393 114.911 43.2393ZM120.887 34.25C121.393 34.25 121.817 33.833 121.817 33.3271C121.817 32.8145 121.393 32.3975 120.887 32.3975C120.375 32.3975 119.958 32.8145 119.958 33.3271C119.958 33.833 120.375 34.25 120.887 34.25ZM120.142 43H121.619V35.5762H120.142V43ZM126.509 45.6182C128.614 45.6182 129.947 44.5381 129.947 42.8496V35.5762H128.47V36.793H128.382C127.951 35.959 127.144 35.4463 126.105 35.4463C124.178 35.4463 122.995 36.9434 122.995 39.0625V39.0762C122.995 41.168 124.171 42.6377 126.078 42.6377C127.096 42.6377 127.917 42.1865 128.368 41.3799H128.477V42.8428C128.477 43.8545 127.753 44.4287 126.529 44.4287C125.524 44.4287 124.923 44.0664 124.8 43.5537L124.793 43.54H123.296L123.282 43.5537C123.46 44.791 124.622 45.6182 126.509 45.6182ZM126.488 41.4141C125.223 41.4141 124.512 40.4502 124.512 39.0693V39.0557C124.512 37.6748 125.223 36.7041 126.488 36.7041C127.739 36.7041 128.505 37.6748 128.505 39.0557V39.0693C128.505 40.457 127.746 41.4141 126.488 41.4141ZM131.672 43H133.155V38.6455C133.155 37.4492 133.832 36.7041 134.919 36.7041C136.006 36.7041 136.519 37.3125 136.519 38.543V43H137.995V38.1943C137.995 36.4238 137.079 35.4326 135.418 35.4326C134.338 35.4326 133.627 35.9111 133.265 36.7041H133.155V35.5762H131.672V43ZM143.851 34.25C144.357 34.25 144.781 33.833 144.781 33.3271C144.781 32.8145 144.357 32.3975 143.851 32.3975C143.338 32.3975 142.921 32.8145 142.921 33.3271C142.921 33.833 143.338 34.25 143.851 34.25ZM143.106 43H144.582V35.5762H143.106V43ZM146.335 43H147.818V38.6455C147.818 37.4492 148.495 36.7041 149.582 36.7041C150.669 36.7041 151.181 37.3125 151.181 38.543V43H152.658V38.1943C152.658 36.4238 151.742 35.4326 150.081 35.4326C149.001 35.4326 148.29 35.9111 147.927 36.7041H147.818V35.5762H146.335V43Z" fill="white"/>
<defs>
<filter id="filter0_d_91_914" x="0" y="0" width="275" height="90" filterUnits="userSpaceOnUse" color-interpolation-filters="sRGB">
<feFlood flood-opacity="0" result="BackgroundImageFix"/>
<feColorMatrix in="SourceAlpha" type="matrix" values="0 0 0 0 0 0 0 0 0 0 0 0 0 0 0 0 0 0 127 0" result="hardAlpha"/>
<feOffset dx="5" dy="7"/>
<feGaussianBlur stdDeviation="10"/>
<feComposite in2="hardAlpha" operator="out"/>
<feColorMatrix type="matrix" values="0 0 0 0 0.501085 0 0 0 0 0.533333 0 0 0 0 0.302222 0 0 0 0.5 0"/>
<feBlend mode="normal" in2="BackgroundImageFix" result="effect1_dropShadow_91_914"/>
<feBlend mode="normal" in="SourceGraphic" in2="effect1_dropShadow_91_914" result="shape"/>
</filter>
</defs>
</svg>
