<svg width="192" height="12" viewBox="0 0 192 12" fill="none" xmlns="http://www.w3.org/2000/svg">
<path d="M0.759956 11H4.32148C7.26093 11 8.96308 9.18164 8.96308 6.05078V6.03711C8.96308 2.94043 7.24726 1.13574 4.32148 1.13574H0.759956V11ZM2.29121 9.68066V2.45508H4.15058C6.19453 2.45508 7.40449 3.78809 7.40449 6.05762V6.07129C7.40449 8.36133 6.21503 9.68066 4.15058 9.68066H2.29121ZM12.9369 11.1436C14.017 11.1436 14.7689 10.6787 15.1244 9.87891H15.2406V11H16.7172V3.57617H15.2406V7.93066C15.2406 9.12695 14.6049 9.87207 13.4154 9.87207C12.3285 9.87207 11.8773 9.26367 11.8773 8.0332V3.57617H10.3939V8.38184C10.3939 10.1387 11.2621 11.1436 12.9369 11.1436ZM21.9373 11H23.4207V6.64551C23.4207 5.44922 24.0975 4.7041 25.1844 4.7041C26.2713 4.7041 26.784 5.3125 26.784 6.54297V11H28.2606V6.19434C28.2606 4.42383 27.3446 3.43262 25.6834 3.43262C24.6033 3.43262 23.8924 3.91113 23.5301 4.7041H23.4207V0.664062H21.9373V11ZM31.961 11.123C32.9453 11.123 33.7246 10.6992 34.1621 9.94727H34.2783V11H35.7481V5.9209C35.7481 4.3623 34.6953 3.43262 32.8291 3.43262C31.1407 3.43262 29.9717 4.24609 29.794 5.46289L29.7871 5.51074H31.2158L31.2227 5.4834C31.4004 4.95703 31.9405 4.65625 32.7608 4.65625C33.7657 4.65625 34.2783 5.10742 34.2783 5.9209V6.57715L32.2686 6.69336C30.4981 6.80273 29.5 7.5752 29.5 8.90137V8.91504C29.5 10.2617 30.5459 11.123 31.961 11.123ZM30.9766 8.85352V8.83984C30.9766 8.16992 31.4414 7.80078 32.4668 7.73926L34.2783 7.62305V8.25879C34.2783 9.21582 33.4649 9.94043 32.3574 9.94043C31.5576 9.94043 30.9766 9.53711 30.9766 8.85352ZM40.1321 11.1436C41.8957 11.1436 43.2082 10.207 43.2082 8.83301V8.81934C43.2082 7.74609 42.5246 7.1377 41.0959 6.80273L39.9202 6.53613C39.0862 6.33789 38.7444 6.05078 38.7444 5.58594V5.57227C38.7444 4.97754 39.3323 4.57422 40.1457 4.57422C40.9797 4.57422 41.5061 4.96387 41.6496 5.4834V5.49707H43.0647V5.49023C42.9348 4.28027 41.8479 3.43262 40.1526 3.43262C38.4709 3.43262 37.2678 4.3623 37.2678 5.6543V5.66113C37.2678 6.74805 37.9172 7.38379 39.3186 7.70508L40.5012 7.97852C41.3625 8.17676 41.7112 8.49121 41.7112 8.95605V8.96973C41.7112 9.57812 41.0754 9.99512 40.1594 9.99512C39.2776 9.99512 38.7375 9.61914 38.553 9.05859L38.5461 9.05176H37.0627V9.05859C37.2063 10.3027 38.341 11.1436 40.1321 11.1436ZM47.3188 11.0479C47.6059 11.0479 47.8793 11.0137 48.1186 10.9727V9.79004C47.9135 9.81055 47.7836 9.81738 47.5581 9.81738C46.8266 9.81738 46.5258 9.48926 46.5258 8.68945V4.74512H48.1186V3.57617H46.5258V1.70312H45.0151V3.57617H43.853V4.74512H45.0151V9.04492C45.0151 10.4736 45.685 11.0479 47.3188 11.0479ZM52.8602 11H54.3436V6.64551C54.3436 5.44922 55.0204 4.7041 56.1073 4.7041C57.1942 4.7041 57.7069 5.3125 57.7069 6.54297V11H59.1835V6.19434C59.1835 4.42383 58.2674 3.43262 56.6063 3.43262C55.5262 3.43262 54.8153 3.91113 54.453 4.7041H54.3436V3.57617H52.8602V11ZM63.9913 11.1436C66.1651 11.1436 67.4981 9.6875 67.4981 7.29492V7.28125C67.4981 4.88867 66.1583 3.43262 63.9913 3.43262C61.8174 3.43262 60.4776 4.89551 60.4776 7.28125V7.29492C60.4776 9.6875 61.8106 11.1436 63.9913 11.1436ZM63.9913 9.90625C62.713 9.90625 61.9952 8.94238 61.9952 7.29492V7.28125C61.9952 5.63379 62.713 4.66992 63.9913 4.66992C65.2628 4.66992 65.9874 5.63379 65.9874 7.28125V7.29492C65.9874 8.93555 65.2628 9.90625 63.9913 9.90625ZM71.9846 11.1436C73.8235 11.1436 74.8831 10.1523 75.1497 8.70996L75.1634 8.64844H73.7415L73.7278 8.68262C73.4885 9.48242 72.9143 9.90625 71.9846 9.90625C70.761 9.90625 70.0022 8.9082 70.0022 7.26758V7.25391C70.0022 5.6543 70.7473 4.66992 71.9846 4.66992C72.969 4.66992 73.5706 5.2168 73.7346 5.94824L73.7415 5.96875L75.1634 5.96191V5.92773C74.9583 4.48535 73.844 3.43262 71.9778 3.43262C69.8108 3.43262 68.4915 4.90234 68.4915 7.25391V7.26758C68.4915 9.66699 69.8176 11.1436 71.9846 11.1436ZM76.5054 11H77.9888V6.64551C77.9888 5.44922 78.6655 4.7041 79.7524 4.7041C80.8393 4.7041 81.352 5.3125 81.352 6.54297V11H82.8286V6.19434C82.8286 4.42383 81.9126 3.43262 80.2514 3.43262C79.1714 3.43262 78.4604 3.91113 78.0981 4.7041H77.9888V0.664062H76.5054V11ZM87.9804 11H89.4638V8.2998L90.0995 7.66406L92.6562 11H94.4608L91.1591 6.70703L94.2558 3.57617H92.5194L89.5731 6.70703H89.4638V0.664062H87.9804V11ZM98.1407 11.1436C100.041 11.1436 101.067 10.0498 101.313 9.07227L101.326 9.01074L99.8976 9.01758L99.8702 9.07227C99.6925 9.45508 99.1251 9.92676 98.1749 9.92676C96.9513 9.92676 96.172 9.09961 96.1446 7.67773H101.408V7.1582C101.408 4.92969 100.137 3.43262 98.0655 3.43262C95.9942 3.43262 94.6544 4.98438 94.6544 7.30176V7.30859C94.6544 9.66016 95.9669 11.1436 98.1407 11.1436ZM98.0724 4.64941C99.0773 4.64941 99.8224 5.29199 99.9386 6.61816H96.1651C96.295 5.33984 97.0607 4.64941 98.0724 4.64941ZM103.536 2.25C104.042 2.25 104.466 1.83301 104.466 1.32715C104.466 0.814453 104.042 0.397461 103.536 0.397461C103.024 0.397461 102.607 0.814453 102.607 1.32715C102.607 1.83301 103.024 2.25 103.536 2.25ZM102.791 11H104.268V3.57617H102.791V11ZM106.02 11H107.503V6.64551C107.503 5.44922 108.18 4.7041 109.267 4.7041C110.354 4.7041 110.867 5.3125 110.867 6.54297V11H112.343V6.19434C112.343 4.42383 111.427 3.43262 109.766 3.43262C108.686 3.43262 107.975 3.91113 107.613 4.7041H107.503V3.57617H106.02V11ZM117.124 11.1436C119.024 11.1436 120.05 10.0498 120.296 9.07227L120.309 9.01074L118.881 9.01758L118.853 9.07227C118.676 9.45508 118.108 9.92676 117.158 9.92676C115.934 9.92676 115.155 9.09961 115.128 7.67773H120.391V7.1582C120.391 4.92969 119.12 3.43262 117.049 3.43262C114.977 3.43262 113.637 4.98438 113.637 7.30176V7.30859C113.637 9.66016 114.95 11.1436 117.124 11.1436ZM117.055 4.64941C118.06 4.64941 118.805 5.29199 118.922 6.61816H115.148C115.278 5.33984 116.044 4.64941 117.055 4.64941ZM121.747 11H123.23V6.64551C123.23 5.44922 123.907 4.7041 124.994 4.7041C126.081 4.7041 126.594 5.3125 126.594 6.54297V11H128.07V6.19434C128.07 4.42383 127.154 3.43262 125.493 3.43262C124.413 3.43262 123.702 3.91113 123.34 4.7041H123.23V3.57617H121.747V11ZM132.566 11H134.172L135.068 8.33398H138.841L139.73 11H141.343L137.782 1.13574H136.127L132.566 11ZM136.893 2.86523H137.009L138.431 7.10352H135.478L136.893 2.86523ZM145.194 11.1436C147.033 11.1436 148.092 10.1523 148.359 8.70996L148.373 8.64844H146.951L146.937 8.68262C146.698 9.48242 146.124 9.90625 145.194 9.90625C143.97 9.90625 143.211 8.9082 143.211 7.26758V7.25391C143.211 5.6543 143.957 4.66992 145.194 4.66992C146.178 4.66992 146.78 5.2168 146.944 5.94824L146.951 5.96875L148.373 5.96191V5.92773C148.168 4.48535 147.053 3.43262 145.187 3.43262C143.02 3.43262 141.701 4.90234 141.701 7.25391V7.26758C141.701 9.66699 143.027 11.1436 145.194 11.1436ZM152.77 11.1436C154.609 11.1436 155.669 10.1523 155.935 8.70996L155.949 8.64844H154.527L154.513 8.68262C154.274 9.48242 153.7 9.90625 152.77 9.90625C151.547 9.90625 150.788 8.9082 150.788 7.26758V7.25391C150.788 5.6543 151.533 4.66992 152.77 4.66992C153.755 4.66992 154.356 5.2168 154.52 5.94824L154.527 5.96875L155.949 5.96191V5.92773C155.744 4.48535 154.63 3.43262 152.763 3.43262C150.596 3.43262 149.277 4.90234 149.277 7.25391V7.26758C149.277 9.66699 150.603 11.1436 152.77 11.1436ZM160.367 11.1436C162.541 11.1436 163.874 9.6875 163.874 7.29492V7.28125C163.874 4.88867 162.534 3.43262 160.367 3.43262C158.193 3.43262 156.853 4.89551 156.853 7.28125V7.29492C156.853 9.6875 158.186 11.1436 160.367 11.1436ZM160.367 9.90625C159.089 9.90625 158.371 8.94238 158.371 7.29492V7.28125C158.371 5.63379 159.089 4.66992 160.367 4.66992C161.639 4.66992 162.363 5.63379 162.363 7.28125V7.29492C162.363 8.93555 161.639 9.90625 160.367 9.90625ZM167.711 11.1436C168.791 11.1436 169.543 10.6787 169.899 9.87891H170.015V11H171.491V3.57617H170.015V7.93066C170.015 9.12695 169.379 9.87207 168.19 9.87207C167.103 9.87207 166.652 9.26367 166.652 8.0332V3.57617H165.168V8.38184C165.168 10.1387 166.036 11.1436 167.711 11.1436ZM173.223 11H174.706V6.64551C174.706 5.44922 175.383 4.7041 176.47 4.7041C177.557 4.7041 178.07 5.3125 178.07 6.54297V11H179.546V6.19434C179.546 4.42383 178.63 3.43262 176.969 3.43262C175.889 3.43262 175.178 3.91113 174.816 4.7041H174.706V3.57617H173.223V11ZM184.012 11.0479C184.299 11.0479 184.573 11.0137 184.812 10.9727V9.79004C184.607 9.81055 184.477 9.81738 184.252 9.81738C183.52 9.81738 183.219 9.48926 183.219 8.68945V4.74512H184.812V3.57617H183.219V1.70312H181.709V3.57617H180.546V4.74512H181.709V9.04492C181.709 10.4736 182.379 11.0479 184.012 11.0479ZM187.747 7.9375H189.162V7.52051C189.162 6.81641 189.415 6.4541 190.297 5.93457C191.199 5.39453 191.732 4.64941 191.732 3.59668V3.58301C191.732 2.12695 190.515 1.05371 188.711 1.05371C186.728 1.05371 185.669 2.22949 185.607 3.77441V3.78809L187.015 3.78125H187.029C187.084 2.87891 187.692 2.31152 188.636 2.31152C189.572 2.31152 190.18 2.87891 190.18 3.64453V3.6582C190.18 4.35547 189.887 4.75195 189.059 5.25098C188.123 5.81152 187.706 6.42676 187.74 7.39062L187.747 7.9375ZM188.54 11.1504C189.169 11.1504 189.593 10.7402 189.593 10.1318C189.593 9.5166 189.169 9.10645 188.54 9.10645C187.911 9.10645 187.48 9.5166 187.48 10.1318C187.48 10.7402 187.911 11.1504 188.54 11.1504Z" fill="#B3B3B3"/>
</svg>
