<svg width="200" height="13" viewBox="0 0 200 13" fill="none" xmlns="http://www.w3.org/2000/svg">
<path d="M0.675156 10H3.72789C6.24742 10 7.70641 8.44141 7.70641 5.75781V5.74609C7.70641 3.0918 6.2357 1.54492 3.72789 1.54492H0.675156V10ZM1.98766 8.86914V2.67578H3.58141C5.33336 2.67578 6.37047 3.81836 6.37047 5.76367V5.77539C6.37047 7.73828 5.35094 8.86914 3.58141 8.86914H1.98766ZM11.0543 10.123C11.98 10.123 12.6246 9.72461 12.9293 9.03906H13.0289V10H14.2945V3.63672H13.0289V7.36914C13.0289 8.39453 12.484 9.0332 11.4644 9.0332C10.5328 9.0332 10.1461 8.51172 10.1461 7.45703V3.63672H8.87458V7.75586C8.87458 9.26172 9.61872 10.123 11.0543 10.123ZM18.6523 10H19.9238V6.26758C19.9238 5.24219 20.5039 4.60352 21.4355 4.60352C22.3672 4.60352 22.8066 5.125 22.8066 6.17969V10H24.0723V5.88086C24.0723 4.36328 23.2871 3.51367 21.8633 3.51367C20.9375 3.51367 20.3281 3.92383 20.0176 4.60352H19.9238V1.14062H18.6523V10ZM27.1857 10.1055C28.0295 10.1055 28.6974 9.74219 29.0724 9.09766H29.1721V10H30.4318V5.64648C30.4318 4.31055 29.5295 3.51367 27.9299 3.51367C26.4826 3.51367 25.4807 4.21094 25.3283 5.25391L25.3224 5.29492H26.5471L26.5529 5.27148C26.7053 4.82031 27.1682 4.5625 27.8713 4.5625C28.7326 4.5625 29.1721 4.94922 29.1721 5.64648V6.20898L27.4494 6.30859C25.9318 6.40234 25.0764 7.06445 25.0764 8.20117V8.21289C25.0764 9.36719 25.9728 10.1055 27.1857 10.1055ZM26.342 8.16016V8.14844C26.342 7.57422 26.7404 7.25781 27.6193 7.20508L29.1721 7.10547V7.65039C29.1721 8.4707 28.4748 9.0918 27.5256 9.0918C26.84 9.0918 26.342 8.74609 26.342 8.16016ZM34.1312 10.123C35.643 10.123 36.768 9.32031 36.768 8.14258V8.13086C36.768 7.21094 36.182 6.68945 34.9574 6.40234L33.9496 6.17383C33.2348 6.00391 32.9418 5.75781 32.9418 5.35938V5.34766C32.9418 4.83789 33.4457 4.49219 34.143 4.49219C34.8578 4.49219 35.309 4.82617 35.432 5.27148V5.2832H36.6449V5.27734C36.5336 4.24023 35.602 3.51367 34.1488 3.51367C32.7074 3.51367 31.6762 4.31055 31.6762 5.41797V5.42383C31.6762 6.35547 32.2328 6.90039 33.434 7.17578L34.4477 7.41016C35.1859 7.58008 35.4848 7.84961 35.4848 8.24805V8.25977C35.4848 8.78125 34.9398 9.13867 34.1547 9.13867C33.3988 9.13867 32.9359 8.81641 32.7777 8.33594L32.7719 8.33008H31.5004V8.33594C31.6234 9.40234 32.5961 10.123 34.1312 10.123ZM40.233 10.041C40.4791 10.041 40.7135 10.0117 40.9186 9.97656V8.96289C40.7428 8.98047 40.6315 8.98633 40.4381 8.98633C39.8111 8.98633 39.5533 8.70508 39.5533 8.01953V4.63867H40.9186V3.63672H39.5533V2.03125H38.2584V3.63672H37.2623V4.63867H38.2584V8.32422C38.2584 9.54883 38.8326 10.041 40.233 10.041ZM48.2471 10.1055C49.8526 10.1055 50.8838 8.82227 50.8838 6.82422V6.8125C50.8838 4.79688 49.8643 3.52539 48.2471 3.52539C47.374 3.52539 46.6299 3.95898 46.2901 4.64453H46.1963V1.14062H44.9248V10H46.1963V8.99805H46.2901C46.6592 9.69531 47.3565 10.1055 48.2471 10.1055ZM47.8897 9.02148C46.8291 9.02148 46.1729 8.18359 46.1729 6.82422V6.8125C46.1729 5.45312 46.8291 4.61523 47.8897 4.61523C48.9502 4.61523 49.5889 5.44727 49.5889 6.8125V6.82422C49.5889 8.18945 48.9502 9.02148 47.8897 9.02148ZM54.6653 10.123C56.2942 10.123 57.1731 9.18555 57.384 8.34766L57.3957 8.29492L56.1711 8.30078L56.1477 8.34766C55.9953 8.67578 55.509 9.08008 54.6946 9.08008C53.6457 9.08008 52.9778 8.37109 52.9543 7.15234H57.466V6.70703C57.466 4.79688 56.3762 3.51367 54.6008 3.51367C52.8254 3.51367 51.677 4.84375 51.677 6.83008V6.83594C51.677 8.85156 52.802 10.123 54.6653 10.123ZM54.6067 4.55664C55.468 4.55664 56.1067 5.10742 56.2063 6.24414H52.9719C53.0832 5.14844 53.7395 4.55664 54.6067 4.55664ZM58.5698 10H59.8412V6.19727C59.8412 5.27734 60.5034 4.67969 61.476 4.67969C61.7162 4.67969 61.933 4.70898 62.1616 4.75586V3.58398C62.0327 3.55469 61.81 3.52539 61.6049 3.52539C60.7553 3.52539 60.1635 3.92383 59.935 4.59766H59.8412V3.63672H58.5698V10ZM65.4743 10.123C67.1032 10.123 67.9821 9.18555 68.193 8.34766L68.2047 8.29492L66.9801 8.30078L66.9567 8.34766C66.8043 8.67578 66.318 9.08008 65.5036 9.08008C64.4547 9.08008 63.7868 8.37109 63.7633 7.15234H68.275V6.70703C68.275 4.79688 67.1852 3.51367 65.4098 3.51367C63.6344 3.51367 62.486 4.84375 62.486 6.83008V6.83594C62.486 8.85156 63.611 10.123 65.4743 10.123ZM65.4157 4.55664C66.277 4.55664 66.9157 5.10742 67.0153 6.24414H63.7809C63.8922 5.14844 64.5485 4.55664 65.4157 4.55664ZM70.0409 2.5C70.4745 2.5 70.8378 2.14258 70.8378 1.70898C70.8378 1.26953 70.4745 0.912109 70.0409 0.912109C69.6014 0.912109 69.244 1.26953 69.244 1.70898C69.244 2.14258 69.6014 2.5 70.0409 2.5ZM69.4022 10H70.6678V3.63672H69.4022V10ZM74.5137 10.041C74.7598 10.041 74.9942 10.0117 75.1993 9.97656V8.96289C75.0235 8.98047 74.9122 8.98633 74.7188 8.98633C74.0919 8.98633 73.834 8.70508 73.834 8.01953V4.63867H75.1993V3.63672H73.834V2.03125H72.5391V3.63672H71.543V4.63867H72.5391V8.32422C72.5391 9.54883 73.1133 10.041 74.5137 10.041ZM78.4944 10.123C80.0061 10.123 81.1311 9.32031 81.1311 8.14258V8.13086C81.1311 7.21094 80.5452 6.68945 79.3206 6.40234L78.3128 6.17383C77.5979 6.00391 77.305 5.75781 77.305 5.35938V5.34766C77.305 4.83789 77.8089 4.49219 78.5061 4.49219C79.221 4.49219 79.6721 4.82617 79.7952 5.27148V5.2832H81.0081V5.27734C80.8968 4.24023 79.9651 3.51367 78.512 3.51367C77.0706 3.51367 76.0393 4.31055 76.0393 5.41797V5.42383C76.0393 6.35547 76.596 6.90039 77.7971 7.17578L78.8108 7.41016C79.5491 7.58008 79.8479 7.84961 79.8479 8.24805V8.25977C79.8479 8.78125 79.303 9.13867 78.5179 9.13867C77.762 9.13867 77.2991 8.81641 77.1409 8.33594L77.135 8.33008H75.8636V8.33594C75.9866 9.40234 76.9593 10.123 78.4944 10.123ZM87.7858 10.123C89.4147 10.123 90.2936 9.18555 90.5046 8.34766L90.5163 8.29492L89.2917 8.30078L89.2682 8.34766C89.1159 8.67578 88.6296 9.08008 87.8151 9.08008C86.7663 9.08008 86.0983 8.37109 86.0749 7.15234H90.5866V6.70703C90.5866 4.79688 89.4968 3.51367 87.7214 3.51367C85.946 3.51367 84.7975 4.84375 84.7975 6.83008V6.83594C84.7975 8.85156 85.9225 10.123 87.7858 10.123ZM87.7272 4.55664C88.5886 4.55664 89.2272 5.10742 89.3268 6.24414H86.0925C86.2038 5.14844 86.86 4.55664 87.7272 4.55664ZM92.3524 2.5C92.786 2.5 93.1493 2.14258 93.1493 1.70898C93.1493 1.26953 92.786 0.912109 92.3524 0.912109C91.913 0.912109 91.5556 1.26953 91.5556 1.70898C91.5556 2.14258 91.913 2.5 92.3524 2.5ZM91.7138 10H92.9794V3.63672H91.7138V10ZM94.4229 10H95.6944V6.26758C95.6944 5.24219 96.2745 4.60352 97.2061 4.60352C98.1378 4.60352 98.5772 5.125 98.5772 6.17969V10H99.8429V5.88086C99.8429 4.36328 99.0577 3.51367 97.6339 3.51367C96.7081 3.51367 96.0987 3.92383 95.7882 4.60352H95.6944V3.63672H94.4229V10ZM103.882 10.123C105.511 10.123 106.39 9.18555 106.601 8.34766L106.613 8.29492L105.388 8.30078L105.365 8.34766C105.212 8.67578 104.726 9.08008 103.911 9.08008C102.863 9.08008 102.195 8.37109 102.171 7.15234H106.683V6.70703C106.683 4.79688 105.593 3.51367 103.818 3.51367C102.042 3.51367 100.894 4.84375 100.894 6.83008V6.83594C100.894 8.85156 102.019 10.123 103.882 10.123ZM103.824 4.55664C104.685 4.55664 105.324 5.10742 105.423 6.24414H102.189C102.3 5.14844 102.956 4.55664 103.824 4.55664ZM107.787 10H109.058V6.26758C109.058 5.24219 109.638 4.60352 110.57 4.60352C111.501 4.60352 111.941 5.125 111.941 6.17969V10H113.207V5.88086C113.207 4.36328 112.421 3.51367 110.998 3.51367C110.072 3.51367 109.462 3.92383 109.152 4.60352H109.058V3.63672H107.787V10ZM116.943 10H118.32L119.088 7.71484H122.322L123.084 10H124.467L121.414 1.54492H119.996L116.943 10ZM120.652 3.02734H120.752L121.971 6.66016H119.439L120.652 3.02734ZM127.709 10.123C129.285 10.123 130.193 9.27344 130.422 8.03711L130.434 7.98438H129.215L129.203 8.01367C128.998 8.69922 128.506 9.0625 127.709 9.0625C126.66 9.0625 126.01 8.20703 126.01 6.80078V6.78906C126.01 5.41797 126.649 4.57422 127.709 4.57422C128.553 4.57422 129.068 5.04297 129.209 5.66992L129.215 5.6875L130.434 5.68164V5.65234C130.258 4.41602 129.303 3.51367 127.703 3.51367C125.846 3.51367 124.715 4.77344 124.715 6.78906V6.80078C124.715 8.85742 125.852 10.123 127.709 10.123ZM134.145 10.123C135.721 10.123 136.629 9.27344 136.858 8.03711L136.869 7.98438H135.651L135.639 8.01367C135.434 8.69922 134.942 9.0625 134.145 9.0625C133.096 9.0625 132.446 8.20703 132.446 6.80078V6.78906C132.446 5.41797 133.084 4.57422 134.145 4.57422C134.989 4.57422 135.504 5.04297 135.645 5.66992L135.651 5.6875L136.869 5.68164V5.65234C136.694 4.41602 135.739 3.51367 134.139 3.51367C132.282 3.51367 131.151 4.77344 131.151 6.78906V6.80078C131.151 8.85742 132.287 10.123 134.145 10.123ZM140.598 10.123C142.461 10.123 143.604 8.875 143.604 6.82422V6.8125C143.604 4.76172 142.456 3.51367 140.598 3.51367C138.735 3.51367 137.586 4.76758 137.586 6.8125V6.82422C137.586 8.875 138.729 10.123 140.598 10.123ZM140.598 9.0625C139.503 9.0625 138.887 8.23633 138.887 6.82422V6.8125C138.887 5.40039 139.503 4.57422 140.598 4.57422C141.688 4.57422 142.309 5.40039 142.309 6.8125V6.82422C142.309 8.23047 141.688 9.0625 140.598 9.0625ZM146.835 10.123C147.761 10.123 148.405 9.72461 148.71 9.03906H148.809V10H150.075V3.63672H148.809V7.36914C148.809 8.39453 148.264 9.0332 147.245 9.0332C146.313 9.0332 145.927 8.51172 145.927 7.45703V3.63672H144.655V7.75586C144.655 9.26172 145.399 10.123 146.835 10.123ZM151.501 10H152.772V6.26758C152.772 5.24219 153.353 4.60352 154.284 4.60352C155.216 4.60352 155.655 5.125 155.655 6.17969V10H156.921V5.88086C156.921 4.36328 156.136 3.51367 154.712 3.51367C153.786 3.51367 153.177 3.92383 152.866 4.60352H152.772V3.63672H151.501V10ZM160.691 10.041C160.937 10.041 161.171 10.0117 161.376 9.97656V8.96289C161.2 8.98047 161.089 8.98633 160.896 8.98633C160.269 8.98633 160.011 8.70508 160.011 8.01953V4.63867H161.376V3.63672H160.011V2.03125H158.716V3.63672H157.72V4.63867H158.716V8.32422C158.716 9.54883 159.29 10.041 160.691 10.041ZM163.833 7.375H165.046V7.01758C165.046 6.41406 165.263 6.10352 166.019 5.6582C166.792 5.19531 167.249 4.55664 167.249 3.6543V3.64258C167.249 2.39453 166.206 1.47461 164.66 1.47461C162.96 1.47461 162.052 2.48242 161.999 3.80664V3.81836L163.206 3.8125H163.218C163.265 3.03906 163.787 2.55273 164.595 2.55273C165.398 2.55273 165.919 3.03906 165.919 3.69531V3.70703C165.919 4.30469 165.667 4.64453 164.958 5.07227C164.156 5.55273 163.798 6.08008 163.828 6.90625L163.833 7.375ZM164.513 10.1289C165.052 10.1289 165.415 9.77734 165.415 9.25586C165.415 8.72852 165.052 8.37695 164.513 8.37695C163.974 8.37695 163.605 8.72852 163.605 9.25586C163.605 9.77734 163.974 10.1289 164.513 10.1289ZM171.414 10H176.687V8.86914H172.726V1.54492H171.414V10ZM180.199 10.123C182.063 10.123 183.205 8.875 183.205 6.82422V6.8125C183.205 4.76172 182.057 3.51367 180.199 3.51367C178.336 3.51367 177.188 4.76758 177.188 6.8125V6.82422C177.188 8.875 178.33 10.123 180.199 10.123ZM180.199 9.0625C179.104 9.0625 178.488 8.23633 178.488 6.82422V6.8125C178.488 5.40039 179.104 4.57422 180.199 4.57422C181.289 4.57422 181.91 5.40039 181.91 6.8125V6.82422C181.91 8.23047 181.289 9.0625 180.199 9.0625ZM187.004 12.2441C188.809 12.2441 189.951 11.3184 189.951 9.87109V3.63672H188.686V4.67969H188.61C188.24 3.96484 187.549 3.52539 186.658 3.52539C185.006 3.52539 183.992 4.80859 183.992 6.625V6.63672C183.992 8.42969 185 9.68945 186.635 9.68945C187.508 9.68945 188.211 9.30273 188.598 8.61133H188.692V9.86523C188.692 10.7324 188.071 11.2246 187.022 11.2246C186.16 11.2246 185.645 10.9141 185.539 10.4746L185.533 10.4629H184.25L184.238 10.4746C184.391 11.5352 185.387 12.2441 187.004 12.2441ZM186.987 8.64062C185.903 8.64062 185.293 7.81445 185.293 6.63086V6.61914C185.293 5.43555 185.903 4.60352 186.987 4.60352C188.059 4.60352 188.715 5.43555 188.715 6.61914V6.63086C188.715 7.82031 188.065 8.64062 186.987 8.64062ZM192.034 2.5C192.467 2.5 192.831 2.14258 192.831 1.70898C192.831 1.26953 192.467 0.912109 192.034 0.912109C191.594 0.912109 191.237 1.26953 191.237 1.70898C191.237 2.14258 191.594 2.5 192.034 2.5ZM191.395 10H192.661V3.63672H191.395V10ZM194.104 10H195.376V6.26758C195.376 5.24219 195.956 4.60352 196.887 4.60352C197.819 4.60352 198.258 5.125 198.258 6.17969V10H199.524V5.88086C199.524 4.36328 198.739 3.51367 197.315 3.51367C196.389 3.51367 195.78 3.92383 195.469 4.60352H195.376V3.63672H194.104V10Z" fill="#B3B3B3"/>
</svg>
