<svg width="231" height="13" viewBox="0 0 231 13" fill="none" xmlns="http://www.w3.org/2000/svg">
<path d="M0.0838318 10H3.13657C5.6561 10 7.11508 8.44141 7.11508 5.75781V5.74609C7.11508 3.0918 5.64438 1.54492 3.13657 1.54492H0.0838318V10ZM1.39633 8.86914V2.67578H2.99008C4.74203 2.67578 5.77914 3.81836 5.77914 5.76367V5.77539C5.77914 7.73828 4.75961 8.86914 2.99008 8.86914H1.39633ZM10.4629 10.123C11.3887 10.123 12.0333 9.72461 12.3379 9.03906H12.4375V10H13.7032V3.63672H12.4375V7.36914C12.4375 8.39453 11.8926 9.0332 10.8731 9.0332C9.94146 9.0332 9.55474 8.51172 9.55474 7.45703V3.63672H8.28325V7.75586C8.28325 9.26172 9.02739 10.123 10.4629 10.123ZM18.061 10H19.3325V6.26758C19.3325 5.24219 19.9126 4.60352 20.8442 4.60352C21.7758 4.60352 22.2153 5.125 22.2153 6.17969V10H23.4809V5.88086C23.4809 4.36328 22.6958 3.51367 21.2719 3.51367C20.3462 3.51367 19.7368 3.92383 19.4262 4.60352H19.3325V1.14062H18.061V10ZM26.5944 10.1055C27.4382 10.1055 28.1061 9.74219 28.4811 9.09766H28.5807V10H29.8405V5.64648C29.8405 4.31055 28.9382 3.51367 27.3385 3.51367C25.8913 3.51367 24.8893 4.21094 24.737 5.25391L24.7311 5.29492H25.9557L25.9616 5.27148C26.1139 4.82031 26.5768 4.5625 27.28 4.5625C28.1413 4.5625 28.5807 4.94922 28.5807 5.64648V6.20898L26.8581 6.30859C25.3405 6.40234 24.485 7.06445 24.485 8.20117V8.21289C24.485 9.36719 25.3815 10.1055 26.5944 10.1055ZM25.7507 8.16016V8.14844C25.7507 7.57422 26.1491 7.25781 27.028 7.20508L28.5807 7.10547V7.65039C28.5807 8.4707 27.8835 9.0918 26.9342 9.0918C26.2487 9.0918 25.7507 8.74609 25.7507 8.16016ZM33.5399 10.123C35.0516 10.123 36.1766 9.32031 36.1766 8.14258V8.13086C36.1766 7.21094 35.5907 6.68945 34.3661 6.40234L33.3583 6.17383C32.6434 6.00391 32.3505 5.75781 32.3505 5.35938V5.34766C32.3505 4.83789 32.8544 4.49219 33.5516 4.49219C34.2665 4.49219 34.7177 4.82617 34.8407 5.27148V5.2832H36.0536V5.27734C35.9423 4.24023 35.0106 3.51367 33.5575 3.51367C32.1161 3.51367 31.0848 4.31055 31.0848 5.41797V5.42383C31.0848 6.35547 31.6415 6.90039 32.8427 7.17578L33.8563 7.41016C34.5946 7.58008 34.8934 7.84961 34.8934 8.24805V8.25977C34.8934 8.78125 34.3485 9.13867 33.5634 9.13867C32.8075 9.13867 32.3446 8.81641 32.1864 8.33594L32.1805 8.33008H30.9091V8.33594C31.0321 9.40234 32.0048 10.123 33.5399 10.123ZM39.6417 10.041C39.8878 10.041 40.1222 10.0117 40.3272 9.97656V8.96289C40.1515 8.98047 40.0401 8.98633 39.8468 8.98633C39.2198 8.98633 38.962 8.70508 38.962 8.01953V4.63867H40.3272V3.63672H38.962V2.03125H37.6671V3.63672H36.671V4.63867H37.6671V8.32422C37.6671 9.54883 38.2413 10.041 39.6417 10.041ZM44.2749 10H45.5464V6.26758C45.5464 5.24219 46.1265 4.60352 47.0581 4.60352C47.9898 4.60352 48.4292 5.125 48.4292 6.17969V10H49.6948V5.88086C49.6948 4.36328 48.9097 3.51367 47.4858 3.51367C46.5601 3.51367 45.9507 3.92383 45.6401 4.60352H45.5464V3.63672H44.2749V10ZM53.7575 10.123C55.6208 10.123 56.7634 8.875 56.7634 6.82422V6.8125C56.7634 4.76172 55.615 3.51367 53.7575 3.51367C51.8943 3.51367 50.7458 4.76758 50.7458 6.8125V6.82422C50.7458 8.875 51.8884 10.123 53.7575 10.123ZM53.7575 9.0625C52.6618 9.0625 52.0466 8.23633 52.0466 6.82422V6.8125C52.0466 5.40039 52.6618 4.57422 53.7575 4.57422C54.8474 4.57422 55.4685 5.40039 55.4685 6.8125V6.82422C55.4685 8.23047 54.8474 9.0625 53.7575 9.0625ZM60.5507 10.123C62.1269 10.123 63.0351 9.27344 63.2636 8.03711L63.2753 7.98438H62.0566L62.0448 8.01367C61.8398 8.69922 61.3476 9.0625 60.5507 9.0625C59.5019 9.0625 58.8515 8.20703 58.8515 6.80078V6.78906C58.8515 5.41797 59.4902 4.57422 60.5507 4.57422C61.3945 4.57422 61.9101 5.04297 62.0507 5.66992L62.0566 5.6875L63.2753 5.68164V5.65234C63.0995 4.41602 62.1445 3.51367 60.5448 3.51367C58.6874 3.51367 57.5566 4.77344 57.5566 6.78906V6.80078C57.5566 8.85742 58.6933 10.123 60.5507 10.123ZM64.3673 10H65.6388V6.26758C65.6388 5.24219 66.2189 4.60352 67.1505 4.60352C68.0822 4.60352 68.5216 5.125 68.5216 6.17969V10H69.7872V5.88086C69.7872 4.36328 69.0021 3.51367 67.5783 3.51367C66.6525 3.51367 66.0431 3.92383 65.7326 4.60352H65.6388V1.14062H64.3673V10ZM74.0865 10H75.358V7.68555L75.9029 7.14062L78.0943 10H79.6412L76.8111 6.32031L79.4654 3.63672H77.9771L75.4517 6.32031H75.358V1.14062H74.0865V10ZM82.7371 10.123C84.366 10.123 85.2449 9.18555 85.4558 8.34766L85.4675 8.29492L84.2429 8.30078L84.2195 8.34766C84.0671 8.67578 83.5808 9.08008 82.7664 9.08008C81.7175 9.08008 81.0496 8.37109 81.0261 7.15234H85.5378V6.70703C85.5378 4.79688 84.448 3.51367 82.6726 3.51367C80.8972 3.51367 79.7488 4.84375 79.7488 6.83008V6.83594C79.7488 8.85156 80.8738 10.123 82.7371 10.123ZM82.6785 4.55664C83.5398 4.55664 84.1785 5.10742 84.2781 6.24414H81.0437C81.155 5.14844 81.8113 4.55664 82.6785 4.55664ZM87.3037 2.5C87.7373 2.5 88.1005 2.14258 88.1005 1.70898C88.1005 1.26953 87.7373 0.912109 87.3037 0.912109C86.8642 0.912109 86.5068 1.26953 86.5068 1.70898C86.5068 2.14258 86.8642 2.5 87.3037 2.5ZM86.665 10H87.9306V3.63672H86.665V10ZM89.3742 10H90.6457V6.26758C90.6457 5.24219 91.2258 4.60352 92.1574 4.60352C93.089 4.60352 93.5285 5.125 93.5285 6.17969V10H94.7941V5.88086C94.7941 4.36328 94.009 3.51367 92.5851 3.51367C91.6593 3.51367 91.05 3.92383 90.7394 4.60352H90.6457V3.63672H89.3742V10ZM98.8334 10.123C100.462 10.123 101.341 9.18555 101.552 8.34766L101.564 8.29492L100.339 8.30078L100.316 8.34766C100.163 8.67578 99.6771 9.08008 98.8627 9.08008C97.8138 9.08008 97.1459 8.37109 97.1224 7.15234H101.634V6.70703C101.634 4.79688 100.544 3.51367 98.7689 3.51367C96.9935 3.51367 95.8451 4.84375 95.8451 6.83008V6.83594C95.8451 8.85156 96.9701 10.123 98.8334 10.123ZM98.7748 4.55664C99.6361 4.55664 100.275 5.10742 100.374 6.24414H97.14C97.2513 5.14844 97.9076 4.55664 98.7748 4.55664ZM102.738 10H104.009V6.26758C104.009 5.24219 104.589 4.60352 105.521 4.60352C106.453 4.60352 106.892 5.125 106.892 6.17969V10H108.158V5.88086C108.158 4.36328 107.373 3.51367 105.949 3.51367C105.023 3.51367 104.414 3.92383 104.103 4.60352H104.009V3.63672H102.738V10ZM111.895 10H113.271L114.039 7.71484H117.273L118.035 10H119.418L116.365 1.54492H114.947L111.895 10ZM115.604 3.02734H115.703L116.922 6.66016H114.391L115.604 3.02734ZM122.66 10.123C124.237 10.123 125.145 9.27344 125.373 8.03711L125.385 7.98438H124.166L124.155 8.01367C123.949 8.69922 123.457 9.0625 122.66 9.0625C121.612 9.0625 120.961 8.20703 120.961 6.80078V6.78906C120.961 5.41797 121.6 4.57422 122.66 4.57422C123.504 4.57422 124.02 5.04297 124.16 5.66992L124.166 5.6875L125.385 5.68164V5.65234C125.209 4.41602 124.254 3.51367 122.655 3.51367C120.797 3.51367 119.666 4.77344 119.666 6.78906V6.80078C119.666 8.85742 120.803 10.123 122.66 10.123ZM129.096 10.123C130.672 10.123 131.58 9.27344 131.809 8.03711L131.821 7.98438H130.602L130.59 8.01367C130.385 8.69922 129.893 9.0625 129.096 9.0625C128.047 9.0625 127.397 8.20703 127.397 6.80078V6.78906C127.397 5.41797 128.036 4.57422 129.096 4.57422C129.94 4.57422 130.455 5.04297 130.596 5.66992L130.602 5.6875L131.821 5.68164V5.65234C131.645 4.41602 130.69 3.51367 129.09 3.51367C127.233 3.51367 126.102 4.77344 126.102 6.78906V6.80078C126.102 8.85742 127.239 10.123 129.096 10.123ZM135.549 10.123C137.413 10.123 138.555 8.875 138.555 6.82422V6.8125C138.555 4.76172 137.407 3.51367 135.549 3.51367C133.686 3.51367 132.538 4.76758 132.538 6.8125V6.82422C132.538 8.875 133.68 10.123 135.549 10.123ZM135.549 9.0625C134.454 9.0625 133.839 8.23633 133.839 6.82422V6.8125C133.839 5.40039 134.454 4.57422 135.549 4.57422C136.639 4.57422 137.26 5.40039 137.26 6.8125V6.82422C137.26 8.23047 136.639 9.0625 135.549 9.0625ZM141.786 10.123C142.712 10.123 143.356 9.72461 143.661 9.03906H143.761V10H145.026V3.63672H143.761V7.36914C143.761 8.39453 143.216 9.0332 142.196 9.0332C141.264 9.0332 140.878 8.51172 140.878 7.45703V3.63672H139.606V7.75586C139.606 9.26172 140.35 10.123 141.786 10.123ZM146.452 10H147.724V6.26758C147.724 5.24219 148.304 4.60352 149.235 4.60352C150.167 4.60352 150.606 5.125 150.606 6.17969V10H151.872V5.88086C151.872 4.36328 151.087 3.51367 149.663 3.51367C148.737 3.51367 148.128 3.92383 147.817 4.60352H147.724V3.63672H146.452V10ZM155.642 10.041C155.888 10.041 156.122 10.0117 156.327 9.97656V8.96289C156.152 8.98047 156.04 8.98633 155.847 8.98633C155.22 8.98633 154.962 8.70508 154.962 8.01953V4.63867H156.327V3.63672H154.962V2.03125H153.667V3.63672H152.671V4.63867H153.667V8.32422C153.667 9.54883 154.241 10.041 155.642 10.041ZM158.785 7.375H159.998V7.01758C159.998 6.41406 160.214 6.10352 160.97 5.6582C161.744 5.19531 162.201 4.55664 162.201 3.6543V3.64258C162.201 2.39453 161.158 1.47461 159.611 1.47461C157.912 1.47461 157.003 2.48242 156.951 3.80664V3.81836L158.158 3.8125H158.169C158.216 3.03906 158.738 2.55273 159.546 2.55273C160.349 2.55273 160.871 3.03906 160.871 3.69531V3.70703C160.871 4.30469 160.619 4.64453 159.91 5.07227C159.107 5.55273 158.749 6.08008 158.779 6.90625L158.785 7.375ZM159.464 10.1289C160.003 10.1289 160.367 9.77734 160.367 9.25586C160.367 8.72852 160.003 8.37695 159.464 8.37695C158.925 8.37695 158.556 8.72852 158.556 9.25586C158.556 9.77734 158.925 10.1289 159.464 10.1289Z" fill="#B3B3B3"/>
<path d="M166.365 10H167.678V6.74805H169.529L171.252 10H172.769L170.871 6.54297C171.902 6.19727 172.512 5.27148 172.512 4.13477V4.12305C172.512 2.55273 171.433 1.54492 169.699 1.54492H166.365V10ZM167.678 5.68164V2.64648H169.529C170.543 2.64648 171.164 3.2207 171.164 4.1582V4.16992C171.164 5.13086 170.578 5.68164 169.57 5.68164H167.678ZM176.311 10.123C177.94 10.123 178.818 9.18555 179.029 8.34766L179.041 8.29492L177.816 8.30078L177.793 8.34766C177.641 8.67578 177.154 9.08008 176.34 9.08008C175.291 9.08008 174.623 8.37109 174.6 7.15234H179.111V6.70703C179.111 4.79688 178.022 3.51367 176.246 3.51367C174.471 3.51367 173.322 4.84375 173.322 6.83008V6.83594C173.322 8.85156 174.447 10.123 176.311 10.123ZM176.252 4.55664C177.113 4.55664 177.752 5.10742 177.852 6.24414H174.617C174.729 5.14844 175.385 4.55664 176.252 4.55664ZM182.905 12.2441C184.709 12.2441 185.852 11.3184 185.852 9.87109V3.63672H184.586V4.67969H184.51C184.141 3.96484 183.45 3.52539 182.559 3.52539C180.907 3.52539 179.893 4.80859 179.893 6.625V6.63672C179.893 8.42969 180.901 9.68945 182.535 9.68945C183.408 9.68945 184.112 9.30273 184.498 8.61133H184.592V9.86523C184.592 10.7324 183.971 11.2246 182.922 11.2246C182.061 11.2246 181.545 10.9141 181.44 10.4746L181.434 10.4629H180.151L180.139 10.4746C180.291 11.5352 181.287 12.2441 182.905 12.2441ZM182.887 8.64062C181.803 8.64062 181.194 7.81445 181.194 6.63086V6.61914C181.194 5.43555 181.803 4.60352 182.887 4.60352C183.959 4.60352 184.616 5.43555 184.616 6.61914V6.63086C184.616 7.82031 183.965 8.64062 182.887 8.64062ZM187.934 2.5C188.368 2.5 188.731 2.14258 188.731 1.70898C188.731 1.26953 188.368 0.912109 187.934 0.912109C187.495 0.912109 187.137 1.26953 187.137 1.70898C187.137 2.14258 187.495 2.5 187.934 2.5ZM187.295 10H188.561V3.63672H187.295V10ZM192.319 10.123C193.831 10.123 194.956 9.32031 194.956 8.14258V8.13086C194.956 7.21094 194.37 6.68945 193.145 6.40234L192.137 6.17383C191.423 6.00391 191.13 5.75781 191.13 5.35938V5.34766C191.13 4.83789 191.633 4.49219 192.331 4.49219C193.046 4.49219 193.497 4.82617 193.62 5.27148V5.2832H194.833V5.27734C194.721 4.24023 193.79 3.51367 192.337 3.51367C190.895 3.51367 189.864 4.31055 189.864 5.41797V5.42383C189.864 6.35547 190.421 6.90039 191.622 7.17578L192.635 7.41016C193.374 7.58008 193.673 7.84961 193.673 8.24805V8.25977C193.673 8.78125 193.128 9.13867 192.342 9.13867C191.587 9.13867 191.124 8.81641 190.966 8.33594L190.96 8.33008H189.688V8.33594C189.811 9.40234 190.784 10.123 192.319 10.123ZM198.421 10.041C198.667 10.041 198.901 10.0117 199.106 9.97656V8.96289C198.931 8.98047 198.819 8.98633 198.626 8.98633C197.999 8.98633 197.741 8.70508 197.741 8.01953V4.63867H199.106V3.63672H197.741V2.03125H196.446V3.63672H195.45V4.63867H196.446V8.32422C196.446 9.54883 197.02 10.041 198.421 10.041ZM200.181 10H201.452V6.19727C201.452 5.27734 202.114 4.67969 203.087 4.67969C203.327 4.67969 203.544 4.70898 203.773 4.75586V3.58398C203.644 3.55469 203.421 3.52539 203.216 3.52539C202.366 3.52539 201.775 3.92383 201.546 4.59766H201.452V3.63672H200.181V10ZM205.24 2.5C205.673 2.5 206.036 2.14258 206.036 1.70898C206.036 1.26953 205.673 0.912109 205.24 0.912109C204.8 0.912109 204.443 1.26953 204.443 1.70898C204.443 2.14258 204.8 2.5 205.24 2.5ZM204.601 10H205.867V3.63672H204.601V10ZM209.982 10.123C211.611 10.123 212.49 9.18555 212.701 8.34766L212.712 8.29492L211.488 8.30078L211.464 8.34766C211.312 8.67578 210.826 9.08008 210.011 9.08008C208.962 9.08008 208.294 8.37109 208.271 7.15234H212.783V6.70703C212.783 4.79688 211.693 3.51367 209.918 3.51367C208.142 3.51367 206.994 4.84375 206.994 6.83008V6.83594C206.994 8.85156 208.119 10.123 209.982 10.123ZM209.923 4.55664C210.785 4.55664 211.423 5.10742 211.523 6.24414H208.289C208.4 5.14844 209.056 4.55664 209.923 4.55664ZM213.886 10H215.158V6.19727C215.158 5.27734 215.82 4.67969 216.793 4.67969C217.033 4.67969 217.25 4.70898 217.478 4.75586V3.58398C217.349 3.55469 217.127 3.52539 216.922 3.52539C216.072 3.52539 215.48 3.92383 215.252 4.59766H215.158V3.63672H213.886V10ZM220.791 10.123C222.42 10.123 223.299 9.18555 223.51 8.34766L223.521 8.29492L222.297 8.30078L222.273 8.34766C222.121 8.67578 221.635 9.08008 220.82 9.08008C219.771 9.08008 219.103 8.37109 219.08 7.15234H223.592V6.70703C223.592 4.79688 222.502 3.51367 220.727 3.51367C218.951 3.51367 217.803 4.84375 217.803 6.83008V6.83594C217.803 8.85156 218.928 10.123 220.791 10.123ZM220.732 4.55664C221.594 4.55664 222.232 5.10742 222.332 6.24414H219.098C219.209 5.14844 219.865 4.55664 220.732 4.55664ZM224.695 10H225.967V6.26758C225.967 5.24219 226.547 4.60352 227.479 4.60352C228.41 4.60352 228.85 5.125 228.85 6.17969V10H230.115V5.88086C230.115 4.36328 229.33 3.51367 227.906 3.51367C226.981 3.51367 226.371 3.92383 226.061 4.60352H225.967V3.63672H224.695V10Z" fill="#80884D"/>
</svg>
