<svg width="206" height="34" viewBox="0 0 206 34" fill="none" xmlns="http://www.w3.org/2000/svg">
<path d="M0.880234 9H1.93492V0.544922H0.880234V9ZM6.13825 9.11133C7.65583 9.11133 8.50544 8.29688 8.76325 7.1543L8.77497 7.08984L7.76715 7.0957L7.75544 7.13086C7.52106 7.83398 6.982 8.20898 6.13239 8.20898C5.00739 8.20898 4.28083 7.27734 4.28083 5.82422V5.8125C4.28083 4.38867 4.99567 3.47461 6.13239 3.47461C7.04059 3.47461 7.60309 3.97852 7.7613 4.59961L7.76715 4.61719H8.78083L8.77497 4.58203C8.58747 3.45703 7.66755 2.57227 6.13239 2.57227C4.36286 2.57227 3.23786 3.84961 3.23786 5.8125V5.82422C3.23786 7.82812 4.36872 9.11133 6.13825 9.11133ZM9.9197 9H10.9392V5.26172C10.9392 4.1543 11.5779 3.47461 12.5857 3.47461C13.5935 3.47461 14.0623 4.01953 14.0623 5.15625V9H15.0818V4.91016C15.0818 3.41016 14.2908 2.57227 12.8728 2.57227C11.9412 2.57227 11.3494 2.96484 11.033 3.63281H10.9392V0.175781H9.9197V9ZM21.6545 9.11133C23.09 9.11133 24.1857 8.33203 24.1857 7.20703V7.19531C24.1857 6.29297 23.6115 5.77734 22.4221 5.49023L21.4494 5.25586C20.7053 5.07422 20.3889 4.80469 20.3889 4.37695V4.36523C20.3889 3.80859 20.9396 3.42188 21.6896 3.42188C22.4514 3.42188 22.9435 3.76758 23.0783 4.26562H24.0803C23.9396 3.23438 23.0197 2.57227 21.6955 2.57227C20.3537 2.57227 19.3459 3.36328 19.3459 4.41211V4.41797C19.3459 5.32617 19.8791 5.8418 21.0627 6.12305L22.0412 6.35742C22.8205 6.54492 23.1428 6.84375 23.1428 7.27148V7.2832C23.1428 7.85742 22.5392 8.26172 21.6896 8.26172C20.881 8.26172 20.3771 7.91602 20.2072 7.38867H19.1642C19.2814 8.43164 20.2482 9.11133 21.6545 9.11133ZM27.5453 9.04688C27.7445 9.04688 27.9379 9.02344 28.1371 8.98828V8.12109C27.9496 8.13867 27.85 8.14453 27.6684 8.14453C27.0121 8.14453 26.7543 7.8457 26.7543 7.10156V3.52734H28.1371V2.68359H26.7543V1.04883H25.6996V2.68359H24.7035V3.52734H25.6996V7.35938C25.6996 8.56641 26.2445 9.04688 27.5453 9.04688ZM29.7916 1.46484C30.1783 1.46484 30.4947 1.14844 30.4947 0.761719C30.4947 0.375 30.1783 0.0585938 29.7916 0.0585938C29.4049 0.0585938 29.0885 0.375 29.0885 0.761719C29.0885 1.14844 29.4049 1.46484 29.7916 1.46484ZM29.276 9H30.2955V2.68359H29.276V9ZM31.8094 9H32.8289V5.08594C32.8289 4.19531 33.4559 3.47461 34.282 3.47461C35.0789 3.47461 35.5945 3.96094 35.5945 4.71094V9H36.6141V4.93945C36.6141 4.13672 37.1942 3.47461 38.0731 3.47461C38.9637 3.47461 39.3914 3.9375 39.3914 4.86914V9H40.411V4.63477C40.411 3.31055 39.6903 2.57227 38.4012 2.57227C37.5281 2.57227 36.8074 3.01172 36.4676 3.67969H36.3738C36.0809 3.02344 35.4832 2.57227 34.6278 2.57227C33.8016 2.57227 33.2039 2.96484 32.9227 3.64453H32.8289V2.68359H31.8094V9ZM41.8428 9H42.8623V5.08594C42.8623 4.19531 43.4893 3.47461 44.3155 3.47461C45.1123 3.47461 45.628 3.96094 45.628 4.71094V9H46.6475V4.93945C46.6475 4.13672 47.2276 3.47461 48.1065 3.47461C48.9971 3.47461 49.4248 3.9375 49.4248 4.86914V9H50.4444V4.63477C50.4444 3.31055 49.7237 2.57227 48.4346 2.57227C47.5615 2.57227 46.8408 3.01172 46.501 3.67969H46.4072C46.1143 3.02344 45.5166 2.57227 44.6612 2.57227C43.835 2.57227 43.2373 2.96484 42.9561 3.64453H42.8623V2.68359H41.8428V9ZM54.4543 9.11133C55.9426 9.11133 56.845 8.26758 57.0618 7.41211L57.0735 7.36523H56.0539L56.0305 7.41797C55.8606 7.79883 55.3332 8.20312 54.4778 8.20312C53.3528 8.20312 52.6321 7.44141 52.6028 6.13477H57.1496V5.73633C57.1496 3.84961 56.1067 2.57227 54.3899 2.57227C52.6731 2.57227 51.5598 3.9082 51.5598 5.85938V5.86523C51.5598 7.8457 52.6496 9.11133 54.4543 9.11133ZM54.384 3.48047C55.3157 3.48047 56.0071 4.07227 56.1125 5.32031H52.6203C52.7317 4.11914 53.4465 3.48047 54.384 3.48047ZM63.6227 9.11133C64.5016 9.11133 65.2047 8.69531 65.5915 7.99219H65.6852V9H66.7047V0.175781H65.6852V3.67969H65.5915C65.2458 3.00586 64.4899 2.57227 63.6227 2.57227C62.0172 2.57227 60.9743 3.85547 60.9743 5.83594V5.84766C60.9743 7.81641 62.0231 9.11133 63.6227 9.11133ZM63.8571 8.20898C62.7028 8.20898 62.0172 7.31836 62.0172 5.84766V5.83594C62.0172 4.36523 62.7028 3.47461 63.8571 3.47461C65.0055 3.47461 65.7086 4.37695 65.7086 5.83594V5.84766C65.7086 7.30664 65.0055 8.20898 63.8571 8.20898ZM70.8319 9.11133C72.3202 9.11133 73.2225 8.26758 73.4393 7.41211L73.451 7.36523H72.4315L72.4081 7.41797C72.2381 7.79883 71.7108 8.20312 70.8553 8.20312C69.7303 8.20312 69.0096 7.44141 68.9803 6.13477H73.5272V5.73633C73.5272 3.84961 72.4842 2.57227 70.7674 2.57227C69.0506 2.57227 67.9374 3.9082 67.9374 5.85938V5.86523C67.9374 7.8457 69.0272 9.11133 70.8319 9.11133ZM70.7616 3.48047C71.6932 3.48047 72.3846 4.07227 72.4901 5.32031H68.9979C69.1092 4.11914 69.8241 3.48047 70.7616 3.48047ZM74.7012 9H75.7208V5.26172C75.7208 4.1543 76.3594 3.47461 77.3672 3.47461C78.3751 3.47461 78.8438 4.01953 78.8438 5.15625V9H79.8633V4.91016C79.8633 3.41016 79.0723 2.57227 77.6544 2.57227C76.7227 2.57227 76.1309 2.96484 75.8145 3.63281H75.7208V2.68359H74.7012V9ZM87.9477 9.19922C88.5161 9.19922 89.0317 9.10547 89.4946 8.91797L90.2446 9.95508H91.4282L90.3266 8.44336C91.2876 7.6875 91.8266 6.41016 91.8266 4.77539V4.76367C91.8266 2.05664 90.3501 0.345703 87.9477 0.345703C85.5571 0.345703 84.0688 2.05078 84.0688 4.76367V4.77539C84.0688 7.47656 85.5219 9.19922 87.9477 9.19922ZM87.9477 8.22656C86.1899 8.22656 85.1469 6.86719 85.1469 4.77539V4.76367C85.1469 2.6543 86.2251 1.31836 87.9477 1.31836C89.6762 1.31836 90.7485 2.6543 90.7485 4.76367V4.77539C90.7485 6.01172 90.3735 6.99609 89.7114 7.59375L88.9731 6.58008H87.7895L88.8794 8.08008C88.5981 8.17383 88.2817 8.22656 87.9477 8.22656ZM95.2331 9.11133C96.1589 9.11133 96.7975 8.73047 97.1081 8.05664H97.2018V9H98.2214V2.68359H97.2018V6.42188C97.2018 7.5293 96.61 8.20898 95.4968 8.20898C94.489 8.20898 94.0788 7.66406 94.0788 6.52734V2.68359H93.0593V6.77344C93.0593 8.26758 93.7975 9.11133 95.2331 9.11133ZM102.313 9.11133C104.112 9.11133 105.225 7.86914 105.225 5.84766V5.83594C105.225 3.80859 104.112 2.57227 102.313 2.57227C100.515 2.57227 99.4013 3.80859 99.4013 5.83594V5.84766C99.4013 7.86914 100.515 9.11133 102.313 9.11133ZM102.313 8.20898C101.118 8.20898 100.444 7.33594 100.444 5.84766V5.83594C100.444 4.3418 101.118 3.47461 102.313 3.47461C103.509 3.47461 104.183 4.3418 104.183 5.83594V5.84766C104.183 7.33594 103.509 8.20898 102.313 8.20898ZM106.458 9H107.478V6.60352L108.069 6.0293L110.437 9H111.72L108.784 5.33789L111.538 2.68359H110.302L107.571 5.44336H107.478V0.175781H106.458V9ZM112.566 9H113.585V6.60352L114.177 6.0293L116.544 9H117.827L114.892 5.33789L117.646 2.68359H116.409L113.679 5.44336H113.585V0.175781H112.566V9ZM119.154 11.2148C120.273 11.2148 120.794 10.8047 121.316 9.38672L123.783 2.68359H122.71L120.982 7.88086H120.888L119.154 2.68359H118.064L120.402 9.00586L120.285 9.38086C120.056 10.1074 119.705 10.3711 119.125 10.3711C118.984 10.3711 118.826 10.3652 118.703 10.3418V11.1797C118.843 11.2031 119.019 11.2148 119.154 11.2148ZM127.144 9H128.252L129.102 6.58008H132.465L133.314 9H134.422L131.305 0.544922H130.262L127.144 9ZM130.736 1.91016H130.83L132.154 5.68359H129.412L130.736 1.91016ZM138.59 9.19922C140.752 9.19922 142.182 7.81641 142.182 5.73047V4.69922H138.754V5.625H141.127V5.83008C141.127 7.25977 140.108 8.22656 138.596 8.22656C136.897 8.22656 135.836 6.90234 135.836 4.77539V4.76367C135.836 2.66602 136.914 1.31836 138.59 1.31836C139.85 1.31836 140.699 1.91602 141.045 3.00586L141.063 3.06445H142.129L142.117 3.00586C141.783 1.40039 140.465 0.345703 138.59 0.345703C136.276 0.345703 134.758 2.09766 134.758 4.76367V4.77539C134.758 7.47656 136.252 9.19922 138.59 9.19922ZM143.643 9H146.942C148.741 9 149.807 8.11523 149.807 6.63281V6.62109C149.807 5.50781 149.075 4.7168 147.92 4.57031V4.47656C148.735 4.33008 149.379 3.5332 149.379 2.66016V2.64844C149.379 1.35938 148.43 0.544922 146.877 0.544922H143.643V9ZM146.655 1.47656C147.703 1.47656 148.313 1.97461 148.313 2.83008V2.8418C148.313 3.73242 147.662 4.18945 146.385 4.18945H144.698V1.47656H146.655ZM146.684 5.09766C148.032 5.09766 148.723 5.5957 148.723 6.56836V6.58008C148.723 7.55273 148.055 8.06836 146.784 8.06836H144.698V5.09766H146.684ZM156.128 9.11133C157.563 9.11133 158.659 8.33203 158.659 7.20703V7.19531C158.659 6.29297 158.085 5.77734 156.895 5.49023L155.923 5.25586C155.178 5.07422 154.862 4.80469 154.862 4.37695V4.36523C154.862 3.80859 155.413 3.42188 156.163 3.42188C156.925 3.42188 157.417 3.76758 157.552 4.26562H158.553C158.413 3.23438 157.493 2.57227 156.169 2.57227C154.827 2.57227 153.819 3.36328 153.819 4.41211V4.41797C153.819 5.32617 154.352 5.8418 155.536 6.12305L156.514 6.35742C157.294 6.54492 157.616 6.84375 157.616 7.27148V7.2832C157.616 7.85742 157.012 8.26172 156.163 8.26172C155.354 8.26172 154.85 7.91602 154.68 7.38867H153.637C153.755 8.43164 154.721 9.11133 156.128 9.11133ZM162.429 9.11133C164.228 9.11133 165.341 7.86914 165.341 5.84766V5.83594C165.341 3.80859 164.228 2.57227 162.429 2.57227C160.63 2.57227 159.517 3.80859 159.517 5.83594V5.84766C159.517 7.86914 160.63 9.11133 162.429 9.11133ZM162.429 8.20898C161.233 8.20898 160.56 7.33594 160.56 5.84766V5.83594C160.56 4.3418 161.233 3.47461 162.429 3.47461C163.624 3.47461 164.298 4.3418 164.298 5.83594V5.84766C164.298 7.33594 163.624 8.20898 162.429 8.20898ZM167.499 9H168.519L169.925 4.11328H170.019L171.431 9H172.456L174.226 2.68359H173.212L171.97 7.73438H171.876L170.464 2.68359H169.497L168.085 7.73438H167.991L166.749 2.68359H165.73L167.499 9ZM175.704 1.46484C176.091 1.46484 176.408 1.14844 176.408 0.761719C176.408 0.375 176.091 0.0585938 175.704 0.0585938C175.318 0.0585938 175.001 0.375 175.001 0.761719C175.001 1.14844 175.318 1.46484 175.704 1.46484ZM175.189 9H176.208V2.68359H175.189V9ZM180.3 9.11133C181.789 9.11133 182.691 8.26758 182.908 7.41211L182.92 7.36523H181.9L181.877 7.41797C181.707 7.79883 181.179 8.20312 180.324 8.20312C179.199 8.20312 178.478 7.44141 178.449 6.13477H182.996V5.73633C182.996 3.84961 181.953 2.57227 180.236 2.57227C178.519 2.57227 177.406 3.9082 177.406 5.85938V5.86523C177.406 7.8457 178.496 9.11133 180.3 9.11133ZM180.23 3.48047C181.162 3.48047 181.853 4.07227 181.959 5.32031H178.466C178.578 4.11914 179.293 3.48047 180.23 3.48047ZM189.469 9.11133C190.348 9.11133 191.051 8.69531 191.438 7.99219H191.531V9H192.551V0.175781H191.531V3.67969H191.438C191.092 3.00586 190.336 2.57227 189.469 2.57227C187.863 2.57227 186.82 3.85547 186.82 5.83594V5.84766C186.82 7.81641 187.869 9.11133 189.469 9.11133ZM189.703 8.20898C188.549 8.20898 187.863 7.31836 187.863 5.84766V5.83594C187.863 4.36523 188.549 3.47461 189.703 3.47461C190.852 3.47461 191.555 4.37695 191.555 5.83594V5.84766C191.555 7.30664 190.852 8.20898 189.703 8.20898ZM196.678 9.11133C198.166 9.11133 199.069 8.26758 199.285 7.41211L199.297 7.36523H198.278L198.254 7.41797C198.084 7.79883 197.557 8.20312 196.701 8.20312C195.576 8.20312 194.856 7.44141 194.826 6.13477H199.373V5.73633C199.373 3.84961 198.33 2.57227 196.613 2.57227C194.897 2.57227 193.783 3.9082 193.783 5.85938V5.86523C193.783 7.8457 194.873 9.11133 196.678 9.11133ZM196.608 3.48047C197.539 3.48047 198.231 4.07227 198.336 5.32031H194.844C194.955 4.11914 195.67 3.48047 196.608 3.48047ZM200.547 9H201.567V5.26172C201.567 4.1543 202.206 3.47461 203.213 3.47461C204.221 3.47461 204.69 4.01953 204.69 5.15625V9H205.709V4.91016C205.709 3.41016 204.918 2.57227 203.5 2.57227C202.569 2.57227 201.977 2.96484 201.661 3.63281H201.567V2.68359H200.547V9ZM8.57313 31H11.872C13.6708 31 14.7372 30.1152 14.7372 28.6328V28.6211C14.7372 27.5078 14.0048 26.7168 12.8505 26.5703V26.4766C13.6649 26.3301 14.3095 25.5332 14.3095 24.6602V24.6484C14.3095 23.3594 13.3602 22.5449 11.8075 22.5449H8.57313V31ZM11.5848 23.4766C12.6337 23.4766 13.243 23.9746 13.243 24.8301V24.8418C13.243 25.7324 12.5927 26.1895 11.3153 26.1895H9.62782V23.4766H11.5848ZM11.6141 27.0977C12.9618 27.0977 13.6532 27.5957 13.6532 28.5684V28.5801C13.6532 29.5527 12.9852 30.0684 11.7138 30.0684H9.62782V27.0977H11.6141ZM18.5011 31.1113C19.9893 31.1113 20.8917 30.2676 21.1085 29.4121L21.1202 29.3652H20.1007L20.0772 29.418C19.9073 29.7988 19.38 30.2031 18.5245 30.2031C17.3995 30.2031 16.6788 29.4414 16.6495 28.1348H21.1964V27.7363C21.1964 25.8496 20.1534 24.5723 18.4366 24.5723C16.7198 24.5723 15.6065 25.9082 15.6065 27.8594V27.8652C15.6065 29.8457 16.6964 31.1113 18.5011 31.1113ZM18.4308 25.4805C19.3624 25.4805 20.0538 26.0723 20.1593 27.3203H16.6671C16.7784 26.1191 17.4933 25.4805 18.4308 25.4805ZM24.5384 31.1113C25.9739 31.1113 27.0696 30.332 27.0696 29.207V29.1953C27.0696 28.293 26.4954 27.7773 25.306 27.4902L24.3333 27.2559C23.5892 27.0742 23.2728 26.8047 23.2728 26.377V26.3652C23.2728 25.8086 23.8235 25.4219 24.5735 25.4219C25.3353 25.4219 25.8274 25.7676 25.9622 26.2656H26.9642C26.8235 25.2344 25.9036 24.5723 24.5794 24.5723C23.2376 24.5723 22.2298 25.3633 22.2298 26.4121V26.418C22.2298 27.3262 22.763 27.8418 23.9466 28.123L24.9251 28.3574C25.7044 28.5449 26.0267 28.8438 26.0267 29.2715V29.2832C26.0267 29.8574 25.4231 30.2617 24.5735 30.2617C23.7649 30.2617 23.261 29.916 23.0911 29.3887H22.0481C22.1653 30.4316 23.1321 31.1113 24.5384 31.1113ZM30.4292 31.0469C30.6284 31.0469 30.8218 31.0234 31.021 30.9883V30.1211C30.8335 30.1387 30.7339 30.1445 30.5523 30.1445C29.896 30.1445 29.6382 29.8457 29.6382 29.1016V25.5273H31.021V24.6836H29.6382V23.0488H28.5835V24.6836H27.5874V25.5273H28.5835V29.3594C28.5835 30.5664 29.1284 31.0469 30.4292 31.0469ZM32.6755 23.4648C33.0622 23.4648 33.3786 23.1484 33.3786 22.7617C33.3786 22.375 33.0622 22.0586 32.6755 22.0586C32.2888 22.0586 31.9724 22.375 31.9724 22.7617C31.9724 23.1484 32.2888 23.4648 32.6755 23.4648ZM32.1599 31H33.1794V24.6836H32.1599V31ZM34.6933 31H35.7128V27.0859C35.7128 26.1953 36.3398 25.4746 37.1659 25.4746C37.9628 25.4746 38.4784 25.9609 38.4784 26.7109V31H39.498V26.9395C39.498 26.1367 40.078 25.4746 40.957 25.4746C41.8476 25.4746 42.2753 25.9375 42.2753 26.8691V31H43.2948V26.6348C43.2948 25.3105 42.5741 24.5723 41.2851 24.5723C40.412 24.5723 39.6913 25.0117 39.3515 25.6797H39.2577C38.9648 25.0234 38.3671 24.5723 37.5116 24.5723C36.6855 24.5723 36.0878 24.9648 35.8066 25.6445H35.7128V24.6836H34.6933V31ZM44.7267 31H45.7462V27.0859C45.7462 26.1953 46.3732 25.4746 47.1993 25.4746C47.9962 25.4746 48.5118 25.9609 48.5118 26.7109V31H49.5314V26.9395C49.5314 26.1367 50.1115 25.4746 50.9904 25.4746C51.881 25.4746 52.3087 25.9375 52.3087 26.8691V31H53.3283V26.6348C53.3283 25.3105 52.6076 24.5723 51.3185 24.5723C50.4454 24.5723 49.7247 25.0117 49.3849 25.6797H49.2911C48.9982 25.0234 48.4005 24.5723 47.5451 24.5723C46.7189 24.5723 46.1212 24.9648 45.84 25.6445H45.7462V24.6836H44.7267V31ZM56.8753 31.1113C57.8011 31.1113 58.4398 30.7305 58.7503 30.0566H58.8441V31H59.8636V24.6836H58.8441V28.4219C58.8441 29.5293 58.2523 30.209 57.139 30.209C56.1312 30.209 55.721 29.6641 55.721 28.5273V24.6836H54.7015V28.7734C54.7015 30.2676 55.4398 31.1113 56.8753 31.1113ZM61.3599 31H62.3794V27.2617C62.3794 26.1543 63.0181 25.4746 64.0259 25.4746C65.0337 25.4746 65.5025 26.0195 65.5025 27.1562V31H66.522V26.9102C66.522 25.4102 65.731 24.5723 64.313 24.5723C63.3814 24.5723 62.7896 24.9648 62.4732 25.6328H62.3794V24.6836H61.3599V31ZM70.5613 33.2266C72.2839 33.2266 73.3738 32.3242 73.3738 30.9121V24.6836H72.3542V25.7266H72.2839C71.8972 25.0117 71.2058 24.5723 70.3152 24.5723C68.6628 24.5723 67.6433 25.8555 67.6433 27.625V27.6367C67.6433 29.4062 68.657 30.6719 70.2917 30.6719C71.1589 30.6719 71.8738 30.2793 72.2722 29.582H72.366V30.8594C72.366 31.791 71.6921 32.3242 70.5613 32.3242C69.6531 32.3242 69.0906 31.9844 68.9792 31.5039L68.9734 31.498H67.9187L67.907 31.5039C68.0652 32.541 69.0378 33.2266 70.5613 33.2266ZM70.5144 29.7695C69.3425 29.7695 68.6863 28.8906 68.6863 27.6367V27.625C68.6863 26.3711 69.3425 25.4746 70.5144 25.4746C71.6804 25.4746 72.3894 26.3711 72.3894 27.625V27.6367C72.3894 28.8906 71.6863 29.7695 70.5144 29.7695ZM77.4423 31.1113C78.9306 31.1113 79.833 30.2676 80.0498 29.4121L80.0615 29.3652H79.042L79.0185 29.418C78.8486 29.7988 78.3213 30.2031 77.4658 30.2031C76.3408 30.2031 75.6201 29.4414 75.5908 28.1348H80.1377V27.7363C80.1377 25.8496 79.0947 24.5723 77.3779 24.5723C75.6611 24.5723 74.5478 25.9082 74.5478 27.8594V27.8652C74.5478 29.8457 75.6377 31.1113 77.4423 31.1113ZM77.372 25.4805C78.3037 25.4805 78.9951 26.0723 79.1005 27.3203H75.6084C75.7197 26.1191 76.4345 25.4805 77.372 25.4805ZM81.3117 31H82.3312V27.2617C82.3312 26.1543 82.9699 25.4746 83.9777 25.4746C84.9855 25.4746 85.4543 26.0195 85.4543 27.1562V31H86.4738V26.9102C86.4738 25.4102 85.6828 24.5723 84.2648 24.5723C83.3332 24.5723 82.7414 24.9648 82.425 25.6328H82.3312V24.6836H81.3117V31ZM90.732 31H95.5953V30.1562H91.9508V30.0625L95.5777 25.4395V24.6836H90.7379V25.5273H94.3765V25.6211L90.732 30.2617V31ZM99.0545 31.1113C99.9803 31.1113 100.619 30.7305 100.929 30.0566H101.023V31H102.043V24.6836H101.023V28.4219C101.023 29.5293 100.431 30.209 99.3182 30.209C98.3103 30.209 97.9002 29.6641 97.9002 28.5273V24.6836H96.8807V28.7734C96.8807 30.2676 97.6189 31.1113 99.0545 31.1113ZM103.539 31H104.559V27.0859C104.559 26.1953 105.186 25.4746 106.012 25.4746C106.809 25.4746 107.324 25.9609 107.324 26.7109V31H108.344V26.9395C108.344 26.1367 108.924 25.4746 109.803 25.4746C110.693 25.4746 111.121 25.9375 111.121 26.8691V31H112.141V26.6348C112.141 25.3105 111.42 24.5723 110.131 24.5723C109.258 24.5723 108.537 25.0117 108.197 25.6797H108.104C107.811 25.0234 107.213 24.5723 106.357 24.5723C105.531 24.5723 104.934 24.9648 104.652 25.6445H104.559V24.6836H103.539V31ZM116.668 31H119.569C122.082 31 123.559 29.4355 123.559 26.7754V26.7637C123.559 24.1094 122.077 22.5449 119.569 22.5449H116.668V31ZM117.723 30.0508V23.4941H119.498C121.373 23.4941 122.481 24.7129 122.481 26.7754V26.7871C122.481 28.8438 121.385 30.0508 119.498 30.0508H117.723ZM126.585 31.1113C127.434 31.1113 128.096 30.7422 128.495 30.0684H128.589V31H129.608V26.6758C129.608 25.3633 128.747 24.5723 127.206 24.5723C125.858 24.5723 124.897 25.2402 124.733 26.2305L124.727 26.2656H125.747L125.753 26.248C125.917 25.7559 126.415 25.4746 127.171 25.4746C128.114 25.4746 128.589 25.8965 128.589 26.6758V27.25L126.778 27.3613C125.307 27.4492 124.475 28.0996 124.475 29.2246V29.2363C124.475 30.3848 125.383 31.1113 126.585 31.1113ZM125.518 29.2129V29.2012C125.518 28.5742 125.94 28.2344 126.901 28.1758L128.589 28.0703V28.6445C128.589 29.5469 127.833 30.2266 126.796 30.2266C126.063 30.2266 125.518 29.8516 125.518 29.2129ZM133.307 31.0469C133.507 31.0469 133.7 31.0234 133.899 30.9883V30.1211C133.712 30.1387 133.612 30.1445 133.431 30.1445C132.774 30.1445 132.516 29.8457 132.516 29.1016V25.5273H133.899V24.6836H132.516V23.0488H131.462V24.6836H130.466V25.5273H131.462V29.3594C131.462 30.5664 132.007 31.0469 133.307 31.0469ZM137.499 31.1113C138.987 31.1113 139.89 30.2676 140.106 29.4121L140.118 29.3652H139.099L139.075 29.418C138.905 29.7988 138.378 30.2031 137.522 30.2031C136.397 30.2031 135.677 29.4414 135.647 28.1348H140.194V27.7363C140.194 25.8496 139.151 24.5723 137.435 24.5723C135.718 24.5723 134.605 25.9082 134.605 27.8594V27.8652C134.605 29.8457 135.694 31.1113 137.499 31.1113ZM137.429 25.4805C138.36 25.4805 139.052 26.0723 139.157 27.3203H135.665C135.776 26.1191 136.491 25.4805 137.429 25.4805ZM141.368 31H142.388V27.2617C142.388 26.1543 143.027 25.4746 144.034 25.4746C145.042 25.4746 145.511 26.0195 145.511 27.1562V31H146.531V26.9102C146.531 25.4102 145.74 24.5723 144.322 24.5723C143.39 24.5723 142.798 24.9648 142.482 25.6328H142.388V24.6836H141.368V31ZM150.136 31.1113C151.572 31.1113 152.667 30.332 152.667 29.207V29.1953C152.667 28.293 152.093 27.7773 150.904 27.4902L149.931 27.2559C149.187 27.0742 148.871 26.8047 148.871 26.377V26.3652C148.871 25.8086 149.421 25.4219 150.171 25.4219C150.933 25.4219 151.425 25.7676 151.56 26.2656H152.562C152.421 25.2344 151.501 24.5723 150.177 24.5723C148.835 24.5723 147.828 25.3633 147.828 26.4121V26.418C147.828 27.3262 148.361 27.8418 149.544 28.123L150.523 28.3574C151.302 28.5449 151.624 28.8438 151.624 29.2715V29.2832C151.624 29.8574 151.021 30.2617 150.171 30.2617C149.363 30.2617 148.859 29.916 148.689 29.3887H147.646C147.763 30.4316 148.73 31.1113 150.136 31.1113ZM156.425 31.1113C157.943 31.1113 158.793 30.2969 159.05 29.1543L159.062 29.0898L158.054 29.0957L158.043 29.1309C157.808 29.834 157.269 30.209 156.42 30.209C155.295 30.209 154.568 29.2773 154.568 27.8242V27.8125C154.568 26.3887 155.283 25.4746 156.42 25.4746C157.328 25.4746 157.89 25.9785 158.048 26.5996L158.054 26.6172H159.068L159.062 26.582C158.875 25.457 157.955 24.5723 156.42 24.5723C154.65 24.5723 153.525 25.8496 153.525 27.8125V27.8242C153.525 29.8281 154.656 31.1113 156.425 31.1113ZM160.207 31H161.226V27.2617C161.226 26.1543 161.865 25.4746 162.873 25.4746C163.881 25.4746 164.349 26.0195 164.349 27.1562V31H165.369V26.9102C165.369 25.4102 164.578 24.5723 163.16 24.5723C162.228 24.5723 161.637 24.9648 161.32 25.6328H161.226V22.1758H160.207V31ZM168.922 31.1113C169.848 31.1113 170.486 30.7305 170.797 30.0566H170.891V31H171.91V24.6836H170.891V28.4219C170.891 29.5293 170.299 30.209 169.186 30.209C168.178 30.209 167.768 29.6641 167.768 28.5273V24.6836H166.748V28.7734C166.748 30.2676 167.486 31.1113 168.922 31.1113ZM175.651 31.0469C175.85 31.0469 176.043 31.0234 176.242 30.9883V30.1211C176.055 30.1387 175.955 30.1445 175.774 30.1445C175.117 30.1445 174.86 29.8457 174.86 29.1016V25.5273H176.242V24.6836H174.86V23.0488H173.805V24.6836H172.809V25.5273H173.805V29.3594C173.805 30.5664 174.35 31.0469 175.651 31.0469ZM177.211 31H182.075V30.1562H178.43V30.0625L182.057 25.4395V24.6836H177.217V25.5273H180.856V25.6211L177.211 30.2617V31ZM186.239 31H191.102V30.1562H187.458V30.0625L191.085 25.4395V24.6836H186.245V25.5273H189.884V25.6211L186.239 30.2617V31ZM194.562 31.1113C195.487 31.1113 196.126 30.7305 196.437 30.0566H196.53V31H197.55V24.6836H196.53V28.4219C196.53 29.5293 195.939 30.209 194.825 30.209C193.818 30.209 193.407 29.6641 193.407 28.5273V24.6836H192.388V28.7734C192.388 30.2676 193.126 31.1113 194.562 31.1113Z" fill="#80884D"/>
</svg>
