<svg width="393" height="852" viewBox="0 0 393 852" fill="none" xmlns="http://www.w3.org/2000/svg">
<g clip-path="url(#clip0_57_122)">
<rect width="393" height="852" fill="white"/>
<path d="M54.8786 21.7231C52.2805 21.7231 50.4294 23.4995 50.4294 25.9316V25.9482C50.4294 28.2227 52.0397 29.8994 54.3391 29.8994C55.9826 29.8994 57.0285 29.061 57.4684 28.1147H57.6345C57.6345 28.2061 57.6262 28.2974 57.6262 28.3887C57.5349 30.6797 56.7297 32.5391 54.8288 32.5391C53.7746 32.5391 53.0358 31.9912 52.7204 31.1528L52.6955 31.0698H50.5871L50.6037 31.1611C50.9855 32.9956 52.6291 34.2988 54.8288 34.2988C57.842 34.2988 59.6599 31.9082 59.6599 27.874V27.8574C59.6599 23.541 57.4352 21.7231 54.8786 21.7231ZM54.8703 28.2559C53.509 28.2559 52.5212 27.2598 52.5212 25.8735V25.8569C52.5212 24.5205 53.5754 23.4663 54.8952 23.4663C56.2233 23.4663 57.2609 24.5371 57.2609 25.9067V25.9233C57.2609 27.2764 56.2233 28.2559 54.8703 28.2559ZM63.0204 26.2388C63.7841 26.2388 64.3402 25.6577 64.3402 24.9272C64.3402 24.1885 63.7841 23.6157 63.0204 23.6157C62.265 23.6157 61.7006 24.1885 61.7006 24.9272C61.7006 25.6577 62.265 26.2388 63.0204 26.2388ZM63.0204 32.3979C63.7841 32.3979 64.3402 31.8252 64.3402 31.0864C64.3402 30.3477 63.7841 29.7749 63.0204 29.7749C62.265 29.7749 61.7006 30.3477 61.7006 31.0864C61.7006 31.8252 62.265 32.3979 63.0204 32.3979ZM72.1915 34H74.2418V31.7007H75.8522V29.9326H74.2418V22.022H71.212C69.5851 24.4956 67.8834 27.2515 66.3312 29.9492V31.7007H72.1915V34ZM68.3233 29.9824V29.8579C69.4855 27.8242 70.8717 25.6079 72.1002 23.7319H72.2247V29.9824H68.3233ZM80.408 34H82.5496V22.022H80.4163L77.2869 24.2217V26.2388L80.2669 24.1304H80.408V34Z" fill="black"/>
<rect x="134" y="8" width="125" height="37" rx="18.5" fill="black"/>
<rect x="134" y="8" width="80" height="37" rx="18.5" fill="black"/>
<rect x="222" y="8" width="37" height="37" rx="18.5" fill="black"/>
<path d="M296.799 23C296.799 22.4477 297.247 22 297.799 22H298.799C299.352 22 299.799 22.4477 299.799 23V31C299.799 31.5523 299.352 32 298.799 32H297.799C297.247 32 296.799 31.5523 296.799 31V23Z" fill="black"/>
<path d="M301.799 21C301.799 20.4477 302.247 20 302.799 20H303.799C304.352 20 304.799 20.4477 304.799 21V31C304.799 31.5523 304.352 32 303.799 32H302.799C302.247 32 301.799 31.5523 301.799 31V21Z" fill="black"/>
<path d="M291.799 26.5C291.799 25.9477 292.247 25.5 292.799 25.5H293.799C294.352 25.5 294.799 25.9477 294.799 26.5V31C294.799 31.5523 294.352 32 293.799 32H292.799C292.247 32 291.799 31.5523 291.799 31V26.5Z" fill="black"/>
<path d="M286.799 29C286.799 28.4477 287.247 28 287.799 28H288.799C289.352 28 289.799 28.4477 289.799 29V31C289.799 31.5523 289.352 32 288.799 32H287.799C287.247 32 286.799 31.5523 286.799 31V29Z" fill="black"/>
<path fill-rule="evenodd" clip-rule="evenodd" d="M321.3 22.5875C323.766 22.5876 326.139 23.5551 327.926 25.2898C328.061 25.4237 328.276 25.4221 328.409 25.286L329.695 23.9605C329.763 23.8915 329.8 23.798 329.799 23.7008C329.799 23.6035 329.76 23.5105 329.692 23.4423C325.001 18.8526 317.598 18.8526 312.907 23.4423C312.839 23.5105 312.8 23.6034 312.799 23.7007C312.799 23.7979 312.836 23.8914 312.903 23.9605L314.19 25.286C314.323 25.4223 314.538 25.424 314.673 25.2898C316.461 23.5549 318.833 22.5875 321.3 22.5875ZM321.335 26.5894C322.691 26.5893 323.997 27.1035 325.002 28.032C325.138 28.1638 325.352 28.1609 325.484 28.0255L326.77 26.7C326.837 26.6304 326.875 26.5361 326.874 26.4381C326.873 26.3401 326.833 26.2466 326.764 26.1784C323.705 23.2739 318.968 23.2739 315.909 26.1784C315.84 26.2466 315.8 26.3401 315.799 26.4382C315.799 26.5362 315.836 26.6305 315.904 26.7L317.189 28.0255C317.321 28.1609 317.535 28.1638 317.671 28.032C318.675 27.1041 319.981 26.5899 321.335 26.5894ZM323.949 29.1767C323.951 29.275 323.913 29.3698 323.844 29.4386L321.621 31.7289C321.556 31.7962 321.467 31.834 321.374 31.834C321.282 31.834 321.193 31.7962 321.128 31.7289L318.904 29.4386C318.835 29.3697 318.797 29.2749 318.799 29.1766C318.802 29.0783 318.843 28.9853 318.915 28.9194C320.335 27.6935 322.414 27.6935 323.834 28.9194C323.905 28.9853 323.947 29.0784 323.949 29.1767Z" fill="black"/>
<path opacity="0.35" d="M338.299 24C338.299 22.067 339.866 20.5 341.799 20.5H358.799C360.732 20.5 362.299 22.067 362.299 24V29C362.299 30.933 360.732 32.5 358.799 32.5H341.799C339.866 32.5 338.299 30.933 338.299 29V24Z" stroke="black"/>
<path opacity="0.4" d="M363.799 25V29.2203C364.648 28.8629 365.201 28.0314 365.201 27.1102C365.201 26.1889 364.648 25.3574 363.799 25Z" fill="black"/>
<path d="M339.799 24C339.799 22.8954 340.695 22 341.799 22H358.799C359.904 22 360.799 22.8954 360.799 24V29C360.799 30.1046 359.904 31 358.799 31H341.799C340.695 31 339.799 30.1046 339.799 29V24Z" fill="black"/>
<rect x="134" y="839" width="134" height="5" rx="2.5" fill="black"/>
<g clip-path="url(#clip1_57_122)">
<path d="M277.379 379.631V354.678C277.379 352.19 279.397 350.166 281.877 350.166H298.149C300.63 350.166 302.647 352.19 302.647 354.678V379.631C302.647 382.119 300.63 384.143 298.149 384.143H281.877C279.397 384.143 277.379 382.119 277.379 379.631Z" fill="#80884D"/>
<path d="M285.712 360.953H294.314V358.795H285.712V360.953Z" fill="#3F3D56"/>
<path d="M287.863 357.177H292.164V350.166H287.863V357.177Z" fill="#3F3D56"/>
<path d="M287.863 384.143H292.164V377.132H287.863V384.143Z" fill="#3F3D56"/>
<path d="M265.82 380.64H240.946C238.466 380.64 236.448 378.616 236.448 376.128V359.804C236.448 357.316 238.466 355.292 240.946 355.292H265.82C268.301 355.292 270.318 357.316 270.318 359.804V376.128C270.318 378.616 268.301 380.64 265.82 380.64Z" fill="#80884D"/>
<path d="M258.222 358.797H249.62V360.955H258.222V358.797Z" fill="#3F3D56"/>
<path d="M243.437 370.123V365.809H236.448V370.123H243.437Z" fill="#3F3D56"/>
<path d="M270.318 370.123V365.809H263.329V370.123H270.318Z" fill="#3F3D56"/>
<path d="M64.0454 427.3L59.8929 403.001C58.0477 392.203 66.0142 382.212 76.9201 381.645L136.118 378.569L150.246 355.21C152.119 352.114 155.468 350.223 159.079 350.223H201.614C204.958 350.223 207.783 352.71 208.217 356.036L209.297 374.726L315.342 375.045L328.682 419.147L316.3 418.542L316.935 431.919L300.742 432.556L295.344 417.245C294.328 414.362 289.874 411.111 285.245 408.391C274.866 402.294 261.533 404.251 253.679 413.388C251.826 415.544 250.531 417.79 250.169 419.895L247.72 434.148L128.974 432.237L113.412 410.399C108.814 405.379 87.1087 403.536 85.154 410.399L73.4117 427.778L64.0454 427.3Z" fill="#E6E6E6"/>
<path d="M193.108 364.436L196.602 380.958L152.152 381.914L161.54 361.693C162.392 359.859 164.261 358.72 166.276 358.808L187.576 359.737C190.273 359.855 192.548 361.788 193.108 364.436Z" fill="white"/>
<path d="M146.119 380.64L155.009 357.707L152.682 355.373L138.182 377.455L141.128 381.914L146.119 380.64Z" fill="white"/>
<path d="M273.437 455.169C285.01 455.169 294.392 445.758 294.392 434.148C294.392 422.539 285.01 413.127 273.437 413.127C261.864 413.127 252.482 422.539 252.482 434.148C252.482 445.758 261.864 455.169 273.437 455.169Z" fill="#3F3D56"/>
<path d="M258.991 434.148C258.991 426.157 265.471 419.656 273.437 419.656C281.403 419.656 287.883 426.157 287.883 434.148C287.883 442.139 281.403 448.64 273.437 448.64C265.471 448.64 258.991 442.139 258.991 434.148ZM259.308 434.148C259.308 441.963 265.646 448.322 273.437 448.322C281.228 448.322 287.566 441.963 287.566 434.148C287.566 426.333 281.228 419.975 273.437 419.975C265.646 419.975 259.308 426.333 259.308 434.148Z" fill="white"/>
<path d="M261.055 434.148C261.055 441.009 266.598 446.57 273.437 446.57C280.276 446.57 285.82 441.009 285.82 434.148C285.82 427.288 280.276 421.727 273.437 421.727C266.598 421.727 261.055 427.288 261.055 434.148ZM281.486 431.174L279.292 432.608L278.449 431.311L281.486 431.174ZM278.146 438.469L278.73 437.035L280.57 439.463L278.146 438.469ZM272.528 443.385L274.072 440.758V443.385H272.528ZM272.528 428.176L274.072 425.549V428.176H272.528ZM265.669 439.463L267.509 437.035L268.093 438.469L265.669 439.463ZM264.753 431.174L267.79 431.311L266.947 432.608L264.753 431.174Z" fill="#E6E6E6"/>
<path d="M97.5417 455.169C109.115 455.169 118.497 445.758 118.497 434.148C118.497 422.539 109.115 413.127 97.5417 413.127C85.9686 413.127 76.5867 422.539 76.5867 434.148C76.5867 445.758 85.9686 455.169 97.5417 455.169Z" fill="#3F3D56"/>
<path d="M83.0954 434.148C83.0954 426.157 89.576 419.656 97.5417 419.656C105.507 419.656 111.988 426.157 111.988 434.148C111.988 442.139 105.507 448.64 97.5417 448.64C89.576 448.64 83.0954 442.139 83.0954 434.148ZM83.4129 434.148C83.4129 441.963 89.751 448.322 97.5417 448.322C105.332 448.322 111.67 441.963 111.67 434.148C111.67 426.333 105.332 419.975 97.5417 419.975C89.751 419.975 83.4129 426.333 83.4129 434.148Z" fill="white"/>
<path d="M85.1592 434.148C85.1592 441.009 90.703 446.57 97.5417 446.57C104.38 446.57 109.924 441.009 109.924 434.148C109.924 427.288 104.38 421.727 97.5417 421.727C90.703 421.727 85.1592 427.288 85.1592 434.148ZM105.591 431.174L103.397 432.608L102.554 431.311L105.591 431.174ZM102.251 438.469L102.835 437.035L104.675 439.463L102.251 438.469ZM96.633 443.385L98.1767 440.758V443.385H96.633ZM96.633 428.176L98.1767 425.549V428.176H96.633ZM89.7737 439.463L91.6134 437.035L92.1977 438.469L89.7737 439.463ZM88.8576 431.174L91.8945 431.311L91.0516 432.608L88.8576 431.174Z" fill="#E6E6E6"/>
<path d="M185.013 389.399H197.078V386.85H185.013V389.399Z" fill="#3F3D56"/>
<path d="M355.068 439.418C354.956 439.072 354.104 439.224 354.022 438.916C353.94 438.608 354.758 438.35 355.385 437.483C355.499 437.327 356.211 436.341 355.938 435.927C355.42 435.141 351.814 437.098 350.949 436C350.759 435.759 350.681 435.345 350.115 434.576C349.89 434.269 349.745 434.122 349.573 434.126C349.328 434.132 349.24 434.439 348.856 434.996C348.278 435.831 348.07 435.726 347.69 436.41C347.408 436.918 347.374 437.242 347.171 437.261C346.883 437.288 346.764 436.656 346.412 436.631C346.053 436.606 345.694 437.231 345.515 437.719C345.181 438.635 345.388 439.335 345.434 440.032C345.484 440.79 345.367 441.9 344.546 443.324L336.801 455.702C338.465 453.179 343.186 446.298 345.088 443.774C345.637 443.045 346.227 442.314 347.135 442.176C348.01 442.044 349.074 442.478 350.559 442.452C350.732 442.449 351.215 442.435 351.332 442.178C351.429 441.966 351.188 441.782 351.276 441.582C351.394 441.315 351.923 441.43 352.644 441.252C353.152 441.127 353.498 440.92 353.795 440.742C353.884 440.688 355.218 439.877 355.068 439.418Z" fill="#F2F2F2"/>
<path d="M334.785 442.308C334.583 442.263 334.412 442.727 334.237 442.678C334.063 442.629 334.173 442.152 333.929 441.593C333.886 441.493 333.609 440.857 333.328 440.872C332.794 440.901 332.711 443.24 331.924 443.35C331.751 443.374 331.526 443.293 330.986 443.349C330.772 443.372 330.658 443.4 330.61 443.487C330.542 443.609 330.667 443.741 330.829 444.091C331.07 444.616 330.959 444.688 331.184 445.073C331.351 445.358 331.5 445.468 331.451 445.574C331.381 445.723 331.037 445.6 330.924 445.766C330.808 445.935 331.01 446.292 331.197 446.521C331.549 446.95 331.951 447.05 332.305 447.228C332.691 447.423 333.2 447.8 333.66 448.616L337.481 456C336.727 454.453 334.722 450.143 334.036 448.479C333.838 447.998 333.65 447.496 333.845 447.009C334.033 446.541 334.552 446.142 334.968 445.404C335.017 445.317 335.149 445.076 335.057 444.944C334.981 444.835 334.822 444.9 334.749 444.799C334.652 444.664 334.861 444.437 334.982 444.031C335.068 443.744 335.066 443.514 335.065 443.317C335.064 443.257 335.053 442.366 334.785 442.308Z" fill="#F2F2F2"/>
<path d="M338.597 444.109L338.717 442.997L338.791 442.927C339.132 442.604 339.345 442.261 339.425 441.909C339.438 441.853 339.447 441.796 339.458 441.739C339.497 441.51 339.547 441.226 339.766 440.93C339.889 440.766 340.213 440.394 340.548 440.524C340.638 440.558 340.699 440.616 340.742 440.679C340.752 440.668 340.763 440.657 340.775 440.645C340.92 440.504 341.021 440.453 341.118 440.403C341.193 440.365 341.27 440.325 341.401 440.22C341.459 440.174 341.504 440.133 341.543 440.098C341.661 439.993 341.811 439.87 342.017 439.919C342.235 439.978 342.31 440.187 342.359 440.325C342.448 440.572 342.475 440.741 342.493 440.854C342.5 440.895 342.507 440.941 342.513 440.956C342.561 441.077 343.16 441.108 343.386 441.121C343.892 441.149 344.331 441.173 344.437 441.521C344.512 441.77 344.354 442.042 343.954 442.35C343.829 442.446 343.705 442.512 343.596 442.561C343.663 442.625 343.716 442.711 343.719 442.828C343.727 443.106 343.443 443.319 342.875 443.463C342.734 443.499 342.545 443.547 342.296 443.535C342.179 443.529 342.077 443.511 341.99 443.494C341.977 443.544 341.953 443.596 341.91 443.645C341.784 443.79 341.58 443.827 341.303 443.745C340.997 443.66 340.755 443.544 340.542 443.442C340.356 443.353 340.196 443.276 340.061 443.256C339.811 443.221 339.577 443.376 339.297 443.582L338.597 444.109Z" fill="#F2F2F2"/>
<path d="M340.596 437.773L339.493 437.938L339.407 437.885C339.009 437.636 338.625 437.516 338.264 437.528C338.207 437.529 338.15 437.534 338.092 437.539C337.861 437.558 337.574 437.582 337.234 437.445C337.044 437.367 336.603 437.147 336.644 436.789C336.654 436.693 336.695 436.619 336.744 436.562C336.731 436.554 336.718 436.546 336.704 436.538C336.531 436.433 336.456 436.348 336.383 436.266C336.327 436.204 336.269 436.138 336.135 436.038C336.076 435.994 336.024 435.96 335.981 435.931C335.85 435.844 335.693 435.73 335.688 435.517C335.69 435.291 335.872 435.165 335.993 435.082C336.208 434.933 336.365 434.864 336.469 434.818C336.507 434.801 336.549 434.782 336.562 434.773C336.667 434.696 336.545 434.106 336.5 433.884C336.398 433.385 336.31 432.954 336.619 432.763C336.84 432.626 337.142 432.71 337.541 433.021C337.665 433.117 337.76 433.222 337.835 433.314C337.879 433.234 337.949 433.16 338.061 433.127C338.327 433.05 338.605 433.271 338.888 433.785C338.958 433.913 339.052 434.085 339.104 434.329C339.128 434.444 339.136 434.548 339.142 434.637C339.194 434.637 339.25 434.647 339.308 434.676C339.48 434.762 339.567 434.95 339.559 435.24C339.554 435.558 339.503 435.822 339.459 436.054C339.42 436.258 339.388 436.433 339.402 436.569C339.431 436.821 339.64 437.008 339.91 437.227L340.596 437.773Z" fill="#F2F2F2"/>
<path d="M340.745 434.449L340.865 433.337L340.939 433.267C341.279 432.944 341.493 432.602 341.573 432.249C341.585 432.193 341.595 432.136 341.605 432.079C341.645 431.85 341.695 431.566 341.914 431.27C342.037 431.106 342.361 430.734 342.696 430.864C342.786 430.898 342.847 430.956 342.89 431.019C342.9 431.008 342.911 430.997 342.923 430.985C343.067 430.845 343.168 430.793 343.266 430.743C343.341 430.705 343.418 430.666 343.549 430.561C343.606 430.515 343.652 430.473 343.691 430.438C343.808 430.333 343.959 430.21 344.164 430.259C344.383 430.319 344.457 430.527 344.507 430.665C344.596 430.912 344.623 431.081 344.641 431.194C344.647 431.235 344.655 431.281 344.661 431.296C344.708 431.417 345.308 431.448 345.533 431.461C346.04 431.489 346.479 431.513 346.584 431.861C346.66 432.11 346.502 432.382 346.102 432.69C345.977 432.786 345.853 432.852 345.744 432.901C345.811 432.965 345.864 433.051 345.867 433.168C345.875 433.446 345.591 433.659 345.023 433.803C344.882 433.839 344.692 433.887 344.444 433.875C344.327 433.869 344.225 433.851 344.138 433.834C344.125 433.884 344.101 433.936 344.058 433.985C343.931 434.13 343.727 434.167 343.45 434.085C343.145 434 342.903 433.884 342.69 433.782C342.504 433.693 342.343 433.617 342.209 433.596C341.958 433.561 341.725 433.716 341.445 433.922L340.745 434.449Z" fill="#F2F2F2"/>
<path d="M337.168 455.765L336.973 455.572L336.701 455.543C336.703 455.518 336.701 455.458 336.699 455.364C336.688 454.853 336.656 453.295 336.872 450.902C337.023 449.231 337.276 447.535 337.622 445.861C337.969 444.183 338.33 442.935 338.619 441.932C338.837 441.176 339.058 440.458 339.273 439.759C339.847 437.892 340.389 436.128 340.725 434.115C340.8 433.666 340.956 432.731 340.637 431.628C340.452 430.988 340.134 430.385 339.693 429.838L340.12 429.492C340.607 430.097 340.958 430.764 341.163 431.475C341.518 432.698 341.348 433.717 341.266 434.207C340.924 436.254 340.377 438.035 339.797 439.921C339.583 440.617 339.363 441.332 339.145 442.085C338.859 443.079 338.502 444.316 338.159 445.972C337.816 447.627 337.567 449.302 337.418 450.951C337.205 453.314 337.237 454.849 337.247 455.353C337.253 455.622 337.254 455.678 337.168 455.765Z" fill="#F2F2F2"/>
<path d="M338.523 430.471C338.501 430.466 338.479 430.46 338.456 430.454C338.006 430.327 337.645 429.959 337.383 429.36C337.26 429.079 337.231 428.782 337.174 428.191C337.164 428.1 337.124 427.639 337.174 427.028C337.206 426.628 337.248 426.468 337.357 426.342C337.477 426.202 337.639 426.121 337.811 426.081C337.815 426.028 337.832 425.976 337.867 425.927C338.008 425.724 338.243 425.807 338.371 425.851C338.436 425.874 338.516 425.904 338.607 425.919C338.749 425.944 338.834 425.919 338.962 425.881C339.085 425.845 339.238 425.801 339.449 425.805C339.865 425.811 340.174 425.998 340.275 426.06C340.811 426.383 340.996 426.898 341.21 427.494C341.252 427.614 341.394 428.046 341.426 428.602C341.45 429.004 341.398 429.168 341.338 429.286C341.215 429.527 341.027 429.639 340.56 429.875C340.072 430.122 339.828 430.245 339.627 430.309C339.16 430.456 338.867 430.548 338.523 430.471Z" fill="#F2F2F2"/>
<path d="M37 455.287C37 455.498 37.2938 455.666 37.6596 455.666H352.548C352.913 455.666 353.207 455.498 353.207 455.287C353.207 455.077 352.913 454.908 352.548 454.908H37.6596C37.2938 454.908 37 455.077 37 455.287Z" fill="#CCCCCC"/>
<path d="M197.001 452.894L201.41 452.894L203.507 435.836L197.001 435.837L197.001 452.894Z" fill="#C8C8C8"/>
<path d="M212.105 452.794C212.242 453.026 212.315 453.774 212.315 454.044C212.315 454.873 211.645 455.545 210.819 455.545L197.166 455.545C196.603 455.545 196.146 455.087 196.146 454.521V453.951C196.146 453.951 195.47 452.237 196.861 450.125C196.861 450.125 198.589 451.779 201.171 449.188L201.933 447.805L207.445 451.849L210.5 452.226C211.169 452.308 211.761 452.213 212.105 452.794Z" fill="#2F2E41"/>
<path d="M177.195 452.894L181.603 452.894L183.7 435.836L177.194 435.837L177.195 452.894Z" fill="#C8C8C8"/>
<path d="M192.299 452.794C192.436 453.026 192.508 453.774 192.508 454.044C192.508 454.873 191.838 455.545 191.012 455.545L177.36 455.545C176.796 455.545 176.339 455.087 176.339 454.521V453.951C176.339 453.951 175.664 452.237 177.054 450.125C177.054 450.125 178.782 451.779 181.365 449.188L182.126 447.805L187.638 451.849L190.694 452.226C191.362 452.308 191.955 452.213 192.299 452.794Z" fill="#2F2E41"/>
<path d="M196.303 336.42L197.14 344.256L187.376 343.417L189.05 336.141L196.303 336.42Z" fill="#C8C8C8"/>
<path opacity="0.1" d="M196.303 336.42L197.14 344.256L187.376 343.417L189.05 336.141L196.303 336.42Z" fill="black"/>
<path d="M192.816 337.4C196.36 337.4 199.232 334.518 199.232 330.963C199.232 327.409 196.36 324.527 192.816 324.527C189.273 324.527 186.4 327.409 186.4 330.963C186.4 334.518 189.273 337.4 192.816 337.4Z" fill="#B3B3B3"/>
<path d="M197.001 341.038L207.741 347.334L204.222 364.405L206.625 387.352L204.951 443.601L194.63 442.482L193.235 394.628L185.145 444.161H175.122L176.776 390.711L181.797 368.043L178.729 343.417L188.074 340.478L197.001 341.038Z" fill="#2F2E41"/>
<path d="M197.419 332.782C197.419 332.782 197.977 330.823 199.232 330.963C200.488 331.103 200.767 329.984 200.488 329.424C200.209 328.865 199.651 326.066 199.651 326.066C199.651 326.066 199.93 324.107 198.256 323.827C196.582 323.547 196.024 323.268 195.745 322.708C195.466 322.148 191.282 321.589 189.887 322.428C188.492 323.268 187.376 324.878 186.4 325.332C185.424 325.786 184.587 326.626 185.145 328.025C185.703 329.424 186.512 332.161 186.512 332.161C186.512 332.161 187.934 331.663 188.213 332.503C188.492 333.342 187.376 332.223 188.771 329.984C190.166 327.745 190.166 325.506 192.398 326.346C194.63 327.185 197.14 326.906 196.861 328.585C196.582 330.264 197.419 332.782 197.419 332.782Z" fill="#2F2E41"/>
<path d="M202.202 382.332C200.86 383.759 200.505 385.61 201.41 386.467C202.315 387.324 204.137 386.862 205.48 385.435C206.024 384.873 206.426 384.188 206.652 383.437L212.265 377.322L209.349 374.741L204.125 381.043C203.39 381.313 202.731 381.755 202.202 382.332Z" fill="#C8C8C8"/>
<path d="M207.628 347.194L217.081 363.35L218.481 370.725L209.378 382.315L205.527 377.398L210.079 370.725L202.726 357.731L207.628 347.194Z" fill="#2F2E41"/>
<path d="M181.05 380.828V361.78C181.05 358.877 183.405 356.515 186.299 356.515H215.325C218.219 356.515 220.573 358.877 220.573 361.78V380.828C220.573 383.731 218.219 386.093 215.325 386.093H186.299C183.405 386.093 181.05 383.731 181.05 380.828Z" fill="#80884D"/>
<path d="M195.166 368.537H205.203V366.02H195.166V368.537Z" fill="#3F3D56"/>
<path d="M204.381 385.924V380.89H196.225V385.924H204.381Z" fill="#3F3D56"/>
<path d="M204.764 361.718V356.683H196.608V361.718H204.764Z" fill="#3F3D56"/>
<path d="M183.988 378.694C185.331 380.121 185.686 381.972 184.781 382.829C183.876 383.686 182.054 383.224 180.711 381.797C180.167 381.235 179.764 380.55 179.538 379.799L173.925 373.684L176.842 371.103L182.066 377.405C182.8 377.675 183.459 378.117 183.988 378.694Z" fill="#C8C8C8"/>
<path d="M178.563 343.556L169.11 359.712L167.709 367.087L176.812 378.677L180.663 373.76L176.112 367.087L183.464 354.093L178.563 343.556Z" fill="#2F2E41"/>
<path d="M61.0239 420.591C65.7584 420.591 69.5964 417.24 69.5964 413.106C69.5964 408.972 65.7584 405.621 61.0239 405.621C56.2895 405.621 52.4514 408.972 52.4514 413.106C52.4514 417.24 56.2895 420.591 61.0239 420.591Z" fill="#E6E6E6"/>
</g>
<rect x="179" y="488" width="30" height="4" rx="2" fill="#80884D"/>
<circle cx="174" cy="490" r="2" fill="#CCCCCC"/>
<circle cx="214" cy="490" r="2" fill="#CCCCCC"/>
<path d="M110.355 544H121.558V541.082H113.894V536.805H121.125V534.086H113.894V530.008H121.558V527.09H110.355V544ZM123.599 544H127.209L129.611 539.734H129.822L132.236 544H136.021L131.932 537.473L135.998 531.098H132.271L129.986 535.375H129.775L127.49 531.098H123.564L127.642 537.613L123.599 544ZM138.074 548.277H141.496V541.938H141.707C142.363 543.344 143.805 544.199 145.574 544.199C148.844 544.199 150.813 541.703 150.813 537.555V537.531C150.813 533.418 148.797 530.887 145.574 530.887C143.746 530.887 142.375 531.707 141.707 533.09H141.496V531.098H138.074V548.277ZM144.402 541.363C142.609 541.363 141.461 539.922 141.461 537.555V537.531C141.461 535.164 142.598 533.723 144.402 533.723C146.219 533.723 147.332 535.164 147.332 537.531V537.555C147.332 539.922 146.207 541.363 144.402 541.363ZM153.205 544H156.627V536.781C156.627 534.953 157.858 533.84 159.803 533.84C160.33 533.84 160.858 533.922 161.373 534.039V531.051C161.033 530.957 160.553 530.887 160.096 530.887C158.42 530.887 157.248 531.707 156.838 533.102H156.627V531.098H153.205V544ZM168.618 544.27C172.391 544.27 174.055 542.09 174.454 540.473L174.477 540.355H171.29L171.254 540.426C171.02 540.918 170.188 541.715 168.688 541.715C166.872 541.715 165.735 540.484 165.7 538.363H174.583V537.297C174.583 533.395 172.239 530.816 168.477 530.816C164.715 530.816 162.313 533.453 162.313 537.555V537.566C162.313 541.703 164.692 544.27 168.618 544.27ZM168.536 533.383C170.024 533.383 171.09 534.344 171.301 536.219H165.735C165.946 534.391 167.047 533.383 168.536 533.383ZM182.108 544.27C185.413 544.27 187.768 542.605 187.768 540.051V540.039C187.768 538.129 186.561 537.051 183.983 536.5L181.839 536.043C180.503 535.75 180.022 535.352 180.022 534.66V534.648C180.022 533.781 180.866 533.23 182.049 533.23C183.327 533.23 184.089 533.875 184.276 534.566L184.288 534.625H187.464V534.578C187.323 532.504 185.448 530.816 182.061 530.816C178.839 530.816 176.682 532.434 176.682 534.859V534.871C176.682 536.805 177.901 538.012 180.362 538.539L182.518 538.996C183.831 539.289 184.346 539.723 184.346 540.414V540.438C184.346 541.293 183.456 541.855 182.143 541.855C180.796 541.855 180.01 541.281 179.741 540.484L179.717 540.438H176.354L176.366 540.484C176.612 542.699 178.604 544.27 182.108 544.27ZM195.059 544.27C198.364 544.27 200.72 542.605 200.72 540.051V540.039C200.72 538.129 199.513 537.051 196.934 536.5L194.79 536.043C193.454 535.75 192.974 535.352 192.974 534.66V534.648C192.974 533.781 193.817 533.23 195.001 533.23C196.278 533.23 197.04 533.875 197.227 534.566L197.239 534.625H200.415V534.578C200.274 532.504 198.399 530.816 195.013 530.816C191.79 530.816 189.634 532.434 189.634 534.859V534.871C189.634 536.805 190.852 538.012 193.313 538.539L195.47 538.996C196.782 539.289 197.298 539.723 197.298 540.414V540.438C197.298 541.293 196.407 541.855 195.095 541.855C193.747 541.855 192.962 541.281 192.692 540.484L192.669 540.438H189.306L189.317 540.484C189.563 542.699 191.556 544.27 195.059 544.27ZM209.232 544H212.771V536.875H220.388V544H223.927V527.09H220.388V533.957H212.771V527.09H209.232V544ZM232.953 544.27C236.726 544.27 238.39 542.09 238.789 540.473L238.812 540.355H235.625L235.589 540.426C235.355 540.918 234.523 541.715 233.023 541.715C231.207 541.715 230.07 540.484 230.035 538.363H238.918V537.297C238.918 533.395 236.574 530.816 232.812 530.816C229.05 530.816 226.648 533.453 226.648 537.555V537.566C226.648 541.703 229.027 544.27 232.953 544.27ZM232.871 533.383C234.359 533.383 235.425 534.344 235.636 536.219H230.07C230.281 534.391 231.382 533.383 232.871 533.383ZM241.427 544H244.849V526.164H241.427V544ZM248.977 544H252.398V533.676H255.059V531.098H252.328V530.125C252.328 529 252.82 528.379 254.144 528.379C254.59 528.379 254.953 528.414 255.164 528.449V526.164C254.672 526.094 254.098 526.035 253.406 526.035C250.289 526.035 248.977 527.324 248.977 529.891V531.098H246.891V533.676H248.977V544ZM262.596 544.27C266.369 544.27 268.033 542.09 268.432 540.473L268.455 540.355H265.268L265.233 540.426C264.998 540.918 264.166 541.715 262.666 541.715C260.85 541.715 259.713 540.484 259.678 538.363H268.561V537.297C268.561 533.395 266.217 530.816 262.455 530.816C258.694 530.816 256.291 533.453 256.291 537.555V537.566C256.291 541.703 258.67 544.27 262.596 544.27ZM262.514 533.383C264.002 533.383 265.069 534.344 265.279 536.219H259.713C259.924 534.391 261.026 533.383 262.514 533.383ZM270.953 544H274.375V536.781C274.375 534.953 275.606 533.84 277.551 533.84C278.078 533.84 278.606 533.922 279.121 534.039V531.051C278.782 530.957 278.301 530.887 277.844 530.887C276.168 530.887 274.996 531.707 274.586 533.102H274.375V531.098H270.953V544Z" fill="black"/>
<path d="M58.567 578H60.2555L63.7692 568.136H62.108L59.4694 576.154H59.3531L56.7145 568.136H55.0533L58.567 578ZM67.2918 578.144C69.1922 578.144 70.2176 577.05 70.4637 576.072L70.4774 576.011L69.0487 576.018L69.0213 576.072C68.8436 576.455 68.2762 576.927 67.326 576.927C66.1024 576.927 65.3231 576.1 65.2957 574.678H70.5594V574.158C70.5594 571.93 69.2879 570.433 67.2166 570.433C65.1453 570.433 63.8055 571.984 63.8055 574.302V574.309C63.8055 576.66 65.118 578.144 67.2918 578.144ZM67.2235 571.649C68.2284 571.649 68.9735 572.292 69.0897 573.618H65.3162C65.4461 572.34 66.2118 571.649 67.2235 571.649ZM71.9151 578H73.3985V573.563C73.3985 572.49 74.1709 571.793 75.3057 571.793C75.586 571.793 75.8389 571.827 76.1055 571.882V570.515C75.9551 570.48 75.6954 570.446 75.4561 570.446C74.4649 570.446 73.7745 570.911 73.5079 571.697H73.3985V570.576H71.9151V578ZM79.6624 578.144C81.426 578.144 82.7385 577.207 82.7385 575.833V575.819C82.7385 574.746 82.0549 574.138 80.6262 573.803L79.4504 573.536C78.6165 573.338 78.2747 573.051 78.2747 572.586V572.572C78.2747 571.978 78.8625 571.574 79.676 571.574C80.51 571.574 81.0364 571.964 81.1799 572.483V572.497H82.595V572.49C82.4651 571.28 81.3782 570.433 79.6829 570.433C78.0012 570.433 76.7981 571.362 76.7981 572.654V572.661C76.7981 573.748 77.4475 574.384 78.8489 574.705L80.0315 574.979C80.8928 575.177 81.2415 575.491 81.2415 575.956V575.97C81.2415 576.578 80.6057 576.995 79.6897 576.995C78.8079 576.995 78.2678 576.619 78.0833 576.059L78.0764 576.052H76.593V576.059C76.7366 577.303 77.8713 578.144 79.6624 578.144ZM87.2182 578.144C89.1186 578.144 90.144 577.05 90.3901 576.072L90.4038 576.011L88.9751 576.018L88.9477 576.072C88.77 576.455 88.2026 576.927 87.2524 576.927C86.0288 576.927 85.2495 576.1 85.2221 574.678H90.4858V574.158C90.4858 571.93 89.2143 570.433 87.143 570.433C85.0717 570.433 83.7319 571.984 83.7319 574.302V574.309C83.7319 576.66 85.0444 578.144 87.2182 578.144ZM87.1499 571.649C88.1547 571.649 88.8999 572.292 89.0161 573.618H85.2426C85.3725 572.34 86.1381 571.649 87.1499 571.649ZM91.8415 578H93.3249V573.646C93.3249 572.449 94.0016 571.704 95.0885 571.704C96.1755 571.704 96.6881 572.312 96.6881 573.543V578H98.1647V573.194C98.1647 571.424 97.2487 570.433 95.5876 570.433C94.5075 570.433 93.7965 570.911 93.4342 571.704H93.3249V570.576H91.8415V578ZM102.535 578.123C103.574 578.123 104.388 577.645 104.818 576.831H104.934V578H106.411V567.664H104.934V571.752H104.818C104.422 570.952 103.554 570.446 102.535 570.446C100.648 570.446 99.4589 571.93 99.4589 574.281V574.295C99.4589 576.626 100.669 578.123 102.535 578.123ZM102.959 576.858C101.715 576.858 100.97 575.888 100.97 574.295V574.281C100.97 572.688 101.715 571.718 102.959 571.718C104.189 571.718 104.955 572.695 104.955 574.281V574.295C104.955 575.881 104.196 576.858 102.959 576.858ZM111.328 578.144C113.229 578.144 114.254 577.05 114.5 576.072L114.514 576.011L113.085 576.018L113.058 576.072C112.88 576.455 112.313 576.927 111.362 576.927C110.139 576.927 109.359 576.1 109.332 574.678H114.596V574.158C114.596 571.93 113.324 570.433 111.253 570.433C109.182 570.433 107.842 571.984 107.842 574.302V574.309C107.842 576.66 109.154 578.144 111.328 578.144ZM111.26 571.649C112.265 571.649 113.01 572.292 113.126 573.618H109.353C109.482 572.34 110.248 571.649 111.26 571.649ZM122.448 578.185C123.794 578.185 124.854 577.788 125.64 577.111L126.454 578H128.245V577.993L126.481 576.12C127.042 575.211 127.308 574.069 127.308 572.784V572.504H125.975V572.729C125.975 573.611 125.825 574.418 125.51 575.095L123.282 572.729C124.806 571.902 125.38 571.144 125.38 570.173V570.159C125.38 568.86 124.287 567.931 122.776 567.931C121.272 567.931 120.151 568.874 120.151 570.166V570.18C120.151 570.85 120.465 571.431 121.395 572.463L121.005 572.661C119.693 573.324 119.071 574.199 119.071 575.382V575.396C119.071 577.05 120.438 578.185 122.448 578.185ZM121.525 570.241V570.228C121.525 569.53 122.051 569.031 122.783 569.031C123.528 569.031 124.041 569.53 124.041 570.228V570.241C124.041 570.87 123.671 571.342 122.543 571.937C121.778 571.116 121.525 570.727 121.525 570.241ZM120.534 575.279V575.266C120.534 574.514 120.992 573.892 121.853 573.468L122.167 573.311L124.772 576.161C124.239 576.688 123.514 576.995 122.591 576.995C121.361 576.995 120.534 576.305 120.534 575.279ZM135.187 578H136.719V569.455H139.815V568.136H132.084V569.455H135.187V578ZM140.173 578H141.656V573.563C141.656 572.49 142.429 571.793 143.564 571.793C143.844 571.793 144.097 571.827 144.363 571.882V570.515C144.213 570.48 143.953 570.446 143.714 570.446C142.723 570.446 142.032 570.911 141.766 571.697H141.656V570.576H140.173V578ZM147.353 578.123C148.337 578.123 149.117 577.699 149.554 576.947H149.67V578H151.14V572.921C151.14 571.362 150.087 570.433 148.221 570.433C146.533 570.433 145.364 571.246 145.186 572.463L145.179 572.511H146.608L146.615 572.483C146.792 571.957 147.332 571.656 148.153 571.656C149.158 571.656 149.67 572.107 149.67 572.921V573.577L147.66 573.693C145.89 573.803 144.892 574.575 144.892 575.901V575.915C144.892 577.262 145.938 578.123 147.353 578.123ZM146.368 575.854V575.84C146.368 575.17 146.833 574.801 147.859 574.739L149.67 574.623V575.259C149.67 576.216 148.857 576.94 147.749 576.94C146.95 576.94 146.368 576.537 146.368 575.854ZM155.948 578.144C157.787 578.144 158.846 577.152 159.113 575.71L159.127 575.648H157.705L157.691 575.683C157.452 576.482 156.877 576.906 155.948 576.906C154.724 576.906 153.965 575.908 153.965 574.268V574.254C153.965 572.654 154.71 571.67 155.948 571.67C156.932 571.67 157.534 572.217 157.698 572.948L157.705 572.969L159.127 572.962V572.928C158.921 571.485 157.807 570.433 155.941 570.433C153.774 570.433 152.455 571.902 152.455 574.254V574.268C152.455 576.667 153.781 578.144 155.948 578.144ZM160.468 578H161.952V575.3L162.588 574.664L165.144 578H166.949L163.647 573.707L166.744 570.576H165.008L162.061 573.707H161.952V567.664H160.468V578ZM170.629 578.144C172.529 578.144 173.555 577.05 173.801 576.072L173.814 576.011L172.386 576.018L172.358 576.072C172.181 576.455 171.613 576.927 170.663 576.927C169.439 576.927 168.66 576.1 168.633 574.678H173.896V574.158C173.896 571.93 172.625 570.433 170.554 570.433C168.482 570.433 167.143 571.984 167.143 574.302V574.309C167.143 576.66 168.455 578.144 170.629 578.144ZM170.561 571.649C171.565 571.649 172.311 572.292 172.427 573.618H168.653C168.783 572.34 169.549 571.649 170.561 571.649ZM178.843 578H182.405C185.344 578 187.046 576.182 187.046 573.051V573.037C187.046 569.94 185.33 568.136 182.405 568.136H178.843V578ZM180.374 576.681V569.455H182.234C184.278 569.455 185.488 570.788 185.488 573.058V573.071C185.488 575.361 184.298 576.681 182.234 576.681H180.374ZM191.69 578.144C193.864 578.144 195.197 576.688 195.197 574.295V574.281C195.197 571.889 193.857 570.433 191.69 570.433C189.516 570.433 188.176 571.896 188.176 574.281V574.295C188.176 576.688 189.509 578.144 191.69 578.144ZM191.69 576.906C190.412 576.906 189.694 575.942 189.694 574.295V574.281C189.694 572.634 190.412 571.67 191.69 571.67C192.962 571.67 193.686 572.634 193.686 574.281V574.295C193.686 575.936 192.962 576.906 191.69 576.906ZM196.628 578H198.111V575.3L198.747 574.664L201.303 578H203.108L199.806 573.707L202.903 570.576H201.167L198.22 573.707H198.111V567.664H196.628V578ZM206.528 578.144C207.608 578.144 208.36 577.679 208.716 576.879H208.832V578H210.309V570.576H208.832V574.931C208.832 576.127 208.196 576.872 207.007 576.872C205.92 576.872 205.469 576.264 205.469 575.033V570.576H203.985V575.382C203.985 577.139 204.854 578.144 206.528 578.144ZM212.04 578H213.524V573.44C213.524 572.47 214.187 571.704 215.082 571.704C215.957 571.704 216.511 572.237 216.511 573.085V578H217.988V573.304C217.988 572.408 218.61 571.704 219.553 571.704C220.524 571.704 220.988 572.21 220.988 573.235V578H222.465V572.88C222.465 571.335 221.59 570.433 220.093 570.433C219.061 570.433 218.206 570.959 217.83 571.759H217.714C217.386 570.959 216.668 570.433 215.656 570.433C214.686 570.433 213.961 570.904 213.633 571.718H213.524V570.576H212.04V578ZM227.246 578.144C229.146 578.144 230.171 577.05 230.417 576.072L230.431 576.011L229.002 576.018L228.975 576.072C228.797 576.455 228.23 576.927 227.28 576.927C226.056 576.927 225.277 576.1 225.249 574.678H230.513V574.158C230.513 571.93 229.242 570.433 227.17 570.433C225.099 570.433 223.759 571.984 223.759 574.302V574.309C223.759 576.66 225.072 578.144 227.246 578.144ZM227.177 571.649C228.182 571.649 228.927 572.292 229.043 573.618H225.27C225.4 572.34 226.165 571.649 227.177 571.649ZM231.869 578H233.352V573.646C233.352 572.449 234.029 571.704 235.116 571.704C236.203 571.704 236.715 572.312 236.715 573.543V578H238.192V573.194C238.192 571.424 237.276 570.433 235.615 570.433C234.535 570.433 233.824 570.911 233.462 571.704H233.352V570.576H231.869V578ZM242.658 578.048C242.945 578.048 243.219 578.014 243.458 577.973V576.79C243.253 576.811 243.123 576.817 242.897 576.817C242.166 576.817 241.865 576.489 241.865 575.689V571.745H243.458V570.576H241.865V568.703H240.354V570.576H239.192V571.745H240.354V576.045C240.354 577.474 241.024 578.048 242.658 578.048ZM247.814 578.144C249.715 578.144 250.74 577.05 250.986 576.072L251 576.011L249.571 576.018L249.544 576.072C249.366 576.455 248.799 576.927 247.849 576.927C246.625 576.927 245.846 576.1 245.818 574.678H251.082V574.158C251.082 571.93 249.811 570.433 247.739 570.433C245.668 570.433 244.328 571.984 244.328 574.302V574.309C244.328 576.66 245.641 578.144 247.814 578.144ZM247.746 571.649C248.751 571.649 249.496 572.292 249.612 573.618H245.839C245.969 572.34 246.734 571.649 247.746 571.649ZM258.558 578.144C260.322 578.144 261.634 577.207 261.634 575.833V575.819C261.634 574.746 260.951 574.138 259.522 573.803L258.346 573.536C257.512 573.338 257.17 573.051 257.17 572.586V572.572C257.17 571.978 257.758 571.574 258.572 571.574C259.406 571.574 259.932 571.964 260.076 572.483V572.497H261.491V572.49C261.361 571.28 260.274 570.433 258.579 570.433C256.897 570.433 255.694 571.362 255.694 572.654V572.661C255.694 573.748 256.343 574.384 257.745 574.705L258.927 574.979C259.789 575.177 260.137 575.491 260.137 575.956V575.97C260.137 576.578 259.501 576.995 258.585 576.995C257.704 576.995 257.164 576.619 256.979 576.059L256.972 576.052H255.489V576.059C255.632 577.303 256.767 578.144 258.558 578.144ZM266.141 578.144C268.315 578.144 269.648 576.688 269.648 574.295V574.281C269.648 571.889 268.308 570.433 266.141 570.433C263.967 570.433 262.628 571.896 262.628 574.281V574.295C262.628 576.688 263.961 578.144 266.141 578.144ZM266.141 576.906C264.863 576.906 264.145 575.942 264.145 574.295V574.281C264.145 572.634 264.863 571.67 266.141 571.67C267.413 571.67 268.137 572.634 268.137 574.281V574.295C268.137 575.936 267.413 576.906 266.141 576.906ZM272.152 578H273.663L275.194 572.463H275.31L276.848 578H278.373L280.417 570.576H278.947L277.621 576.305H277.505L275.973 570.576H274.565L273.034 576.305H272.925L271.592 570.576H270.101L272.152 578ZM282.299 569.25C282.805 569.25 283.229 568.833 283.229 568.327C283.229 567.814 282.805 567.397 282.299 567.397C281.786 567.397 281.369 567.814 281.369 568.327C281.369 568.833 281.786 569.25 282.299 569.25ZM281.554 578H283.03V570.576H281.554V578ZM287.9 578.144C289.8 578.144 290.825 577.05 291.072 576.072L291.085 576.011L289.657 576.018L289.629 576.072C289.451 576.455 288.884 576.927 287.934 576.927C286.71 576.927 285.931 576.1 285.904 574.678H291.167V574.158C291.167 571.93 289.896 570.433 287.824 570.433C285.753 570.433 284.413 571.984 284.413 574.302V574.309C284.413 576.66 285.726 578.144 287.9 578.144ZM287.831 571.649C288.836 571.649 289.581 572.292 289.698 573.618H285.924C286.054 572.34 286.82 571.649 287.831 571.649ZM300.27 578.239C302.854 578.239 304.529 576.619 304.529 574.117V572.894H300.482V574.131H303.018V574.35C303.005 575.867 301.904 576.886 300.291 576.886C298.438 576.886 297.276 575.423 297.276 573.064V573.051C297.276 570.727 298.431 569.25 300.257 569.25C301.61 569.25 302.553 569.906 302.909 571.075L302.929 571.144H304.461L304.447 571.075C304.092 569.168 302.499 567.896 300.257 567.896C297.495 567.896 295.711 569.927 295.711 573.058V573.071C295.711 576.243 297.474 578.239 300.27 578.239ZM307.58 569.195C308.045 569.195 308.434 568.812 308.434 568.341C308.434 567.876 308.045 567.493 307.58 567.493C307.108 567.493 306.719 567.876 306.719 568.341C306.719 568.812 307.108 569.195 307.58 569.195ZM310.711 569.195C311.183 569.195 311.572 568.812 311.572 568.341C311.572 567.876 311.183 567.493 310.711 567.493C310.246 567.493 309.856 567.876 309.856 568.341C309.856 568.812 310.246 569.195 310.711 569.195ZM308.537 578.144C309.617 578.144 310.369 577.679 310.725 576.879H310.841V578H312.317V570.576H310.841V574.931C310.841 576.127 310.205 576.872 309.016 576.872C307.929 576.872 307.477 576.264 307.477 575.033V570.576H305.994V575.382C305.994 577.139 306.862 578.144 308.537 578.144ZM316.852 578.048C317.139 578.048 317.412 578.014 317.651 577.973V576.79C317.446 576.811 317.317 576.817 317.091 576.817C316.359 576.817 316.059 576.489 316.059 575.689V571.745H317.651V570.576H316.059V568.703H314.548V570.576H313.386V571.745H314.548V576.045C314.548 577.474 315.218 578.048 316.852 578.048ZM322.008 578.144C323.909 578.144 324.934 577.05 325.18 576.072L325.194 576.011L323.765 576.018L323.738 576.072C323.56 576.455 322.992 576.927 322.042 576.927C320.819 576.927 320.039 576.1 320.012 574.678H325.276V574.158C325.276 571.93 324.004 570.433 321.933 570.433C319.862 570.433 318.522 571.984 318.522 574.302V574.309C318.522 576.66 319.834 578.144 322.008 578.144ZM321.94 571.649C322.945 571.649 323.69 572.292 323.806 573.618H320.033C320.162 572.34 320.928 571.649 321.94 571.649ZM326.631 578H328.115V573.563C328.115 572.49 328.887 571.793 330.022 571.793C330.302 571.793 330.555 571.827 330.822 571.882V570.515C330.671 570.48 330.412 570.446 330.172 570.446C329.181 570.446 328.491 570.911 328.224 571.697H328.115V570.576H326.631V578ZM336.021 569.25C336.527 569.25 336.951 568.833 336.951 568.327C336.951 567.814 336.527 567.397 336.021 567.397C335.509 567.397 335.092 567.814 335.092 568.327C335.092 568.833 335.509 569.25 336.021 569.25ZM335.276 578H336.753V570.576H335.276V578ZM338.505 578H339.988V573.646C339.988 572.449 340.665 571.704 341.752 571.704C342.839 571.704 343.352 572.312 343.352 573.543V578H344.828V573.194C344.828 571.424 343.912 570.433 342.251 570.433C341.171 570.433 340.46 570.911 340.098 571.704H339.988V570.576H338.505V578ZM48.6117 598H54.8735V596.681H50.143V593.611H54.6205V592.34H50.143V589.455H54.8735V588.136H48.6117V598ZM59.6334 598.144C61.4723 598.144 62.5319 597.152 62.7985 595.71L62.8121 595.648H61.3903L61.3766 595.683C61.1373 596.482 60.5631 596.906 59.6334 596.906C58.4098 596.906 57.651 595.908 57.651 594.268V594.254C57.651 592.654 58.3961 591.67 59.6334 591.67C60.6178 591.67 61.2194 592.217 61.3834 592.948L61.3903 592.969L62.8121 592.962V592.928C62.6071 591.485 61.4928 590.433 59.6266 590.433C57.4596 590.433 56.1403 591.902 56.1403 594.254V594.268C56.1403 596.667 57.4664 598.144 59.6334 598.144ZM64.1541 598H65.6375V593.646C65.6375 592.449 66.3143 591.704 67.4012 591.704C68.4881 591.704 69.0008 592.312 69.0008 593.543V598H70.4774V593.194C70.4774 591.424 69.5614 590.433 67.9002 590.433C66.8202 590.433 66.1092 590.911 65.7469 591.704H65.6375V587.664H64.1541V598ZM74.9434 598.048C75.2305 598.048 75.504 598.014 75.7432 597.973V596.79C75.5381 596.811 75.4082 596.817 75.1827 596.817C74.4512 596.817 74.1504 596.489 74.1504 595.689V591.745H75.7432V590.576H74.1504V588.703H72.6397V590.576H71.4776V591.745H72.6397V596.045C72.6397 597.474 73.3096 598.048 74.9434 598.048ZM76.8938 598H82.7864V596.831H78.7327V596.715L82.7454 591.595V590.576H76.9211V591.745H80.9954V591.861L76.8938 597.036V598ZM87.2661 598.144C89.1665 598.144 90.1919 597.05 90.438 596.072L90.4516 596.011L89.0229 596.018L88.9956 596.072C88.8178 596.455 88.2505 596.927 87.3003 596.927C86.0766 596.927 85.2973 596.1 85.27 594.678H90.5337V594.158C90.5337 591.93 89.2622 590.433 87.1909 590.433C85.1196 590.433 83.7797 591.984 83.7797 594.302V594.309C83.7797 596.66 85.0922 598.144 87.2661 598.144ZM87.1977 591.649C88.2026 591.649 88.9477 592.292 89.0639 593.618H85.2905C85.4204 592.34 86.186 591.649 87.1977 591.649ZM92.6618 589.25C93.1676 589.25 93.5915 588.833 93.5915 588.327C93.5915 587.814 93.1676 587.397 92.6618 587.397C92.1491 587.397 91.7321 587.814 91.7321 588.327C91.7321 588.833 92.1491 589.25 92.6618 589.25ZM91.9167 598H93.3932V590.576H91.9167V598ZM97.9481 598.048C98.2352 598.048 98.5087 598.014 98.7479 597.973V596.79C98.5429 596.811 98.413 596.817 98.1874 596.817C97.4559 596.817 97.1552 596.489 97.1552 595.689V591.745H98.7479V590.576H97.1552V588.703H95.6444V590.576H94.4823V591.745H95.6444V596.045C95.6444 597.474 96.3143 598.048 97.9481 598.048ZM105.964 598.144C107.044 598.144 107.796 597.679 108.152 596.879H108.268V598H109.744V590.576H108.268V594.931C108.268 596.127 107.632 596.872 106.443 596.872C105.356 596.872 104.905 596.264 104.905 595.033V590.576H103.421V595.382C103.421 597.139 104.289 598.144 105.964 598.144ZM111.476 598H112.959V593.646C112.959 592.449 113.636 591.704 114.723 591.704C115.81 591.704 116.323 592.312 116.323 593.543V598H117.799V593.194C117.799 591.424 116.883 590.433 115.222 590.433C114.142 590.433 113.431 590.911 113.069 591.704H112.959V590.576H111.476V598ZM122.17 598.123C123.209 598.123 124.022 597.645 124.453 596.831H124.569V598H126.046V587.664H124.569V591.752H124.453C124.056 590.952 123.188 590.446 122.17 590.446C120.283 590.446 119.093 591.93 119.093 594.281V594.295C119.093 596.626 120.303 598.123 122.17 598.123ZM122.593 596.858C121.349 596.858 120.604 595.888 120.604 594.295V594.281C120.604 592.688 121.349 591.718 122.593 591.718C123.824 591.718 124.59 592.695 124.59 594.281V594.295C124.59 595.881 123.831 596.858 122.593 596.858ZM134.383 598.144C136.283 598.144 137.309 597.05 137.555 596.072L137.568 596.011L136.14 596.018L136.112 596.072C135.935 596.455 135.367 596.927 134.417 596.927C133.193 596.927 132.414 596.1 132.387 594.678H137.651V594.158C137.651 591.93 136.379 590.433 134.308 590.433C132.236 590.433 130.897 591.984 130.897 594.302V594.309C130.897 596.66 132.209 598.144 134.383 598.144ZM134.315 591.649C135.319 591.649 136.065 592.292 136.181 593.618H132.407C132.537 592.34 133.303 591.649 134.315 591.649ZM139.006 598H140.49V593.646C140.49 592.449 141.166 591.704 142.253 591.704C143.34 591.704 143.853 592.312 143.853 593.543V598H145.329V593.194C145.329 591.424 144.413 590.433 142.752 590.433C141.672 590.433 140.961 590.911 140.599 591.704H140.49V590.576H139.006V598ZM149.795 598.048C150.083 598.048 150.356 598.014 150.595 597.973V596.79C150.39 596.811 150.26 596.817 150.035 596.817C149.303 596.817 149.002 596.489 149.002 595.689V591.745H150.595V590.576H149.002V588.703H147.492V590.576H146.33V591.745H147.492V596.045C147.492 597.474 148.162 598.048 149.795 598.048ZM154.542 598.123C155.581 598.123 156.394 597.645 156.825 596.831H156.941V598H158.418V587.664H156.941V591.752H156.825C156.428 590.952 155.56 590.446 154.542 590.446C152.655 590.446 151.466 591.93 151.466 594.281V594.295C151.466 596.626 152.676 598.123 154.542 598.123ZM154.966 596.858C153.721 596.858 152.976 595.888 152.976 594.295V594.281C152.976 592.688 153.721 591.718 154.966 591.718C156.196 591.718 156.962 592.695 156.962 594.281V594.295C156.962 595.881 156.203 596.858 154.966 596.858ZM163.335 598.144C165.235 598.144 166.261 597.05 166.507 596.072L166.52 596.011L165.092 596.018L165.064 596.072C164.887 596.455 164.319 596.927 163.369 596.927C162.145 596.927 161.366 596.1 161.339 594.678H166.603V594.158C166.603 591.93 165.331 590.433 163.26 590.433C161.188 590.433 159.849 591.984 159.849 594.302V594.309C159.849 596.66 161.161 598.144 163.335 598.144ZM163.267 591.649C164.271 591.649 165.017 592.292 165.133 593.618H161.359C161.489 592.34 162.255 591.649 163.267 591.649ZM171.082 598.144C172.921 598.144 173.981 597.152 174.247 595.71L174.261 595.648H172.839L172.825 595.683C172.586 596.482 172.012 596.906 171.082 596.906C169.859 596.906 169.1 595.908 169.1 594.268V594.254C169.1 592.654 169.845 591.67 171.082 591.67C172.067 591.67 172.668 592.217 172.832 592.948L172.839 592.969L174.261 592.962V592.928C174.056 591.485 172.942 590.433 171.075 590.433C168.908 590.433 167.589 591.902 167.589 594.254V594.268C167.589 596.667 168.915 598.144 171.082 598.144ZM175.603 598H177.086V595.3L177.722 594.664L180.279 598H182.083L178.782 593.707L181.878 590.576H180.142L177.196 593.707H177.086V587.664H175.603V598ZM185.763 598.144C187.664 598.144 188.689 597.05 188.935 596.072L188.949 596.011L187.52 596.018L187.493 596.072C187.315 596.455 186.748 596.927 185.797 596.927C184.574 596.927 183.795 596.1 183.767 594.678H189.031V594.158C189.031 591.93 187.759 590.433 185.688 590.433C183.617 590.433 182.277 591.984 182.277 594.302V594.309C182.277 596.66 183.589 598.144 185.763 598.144ZM185.695 591.649C186.7 591.649 187.445 592.292 187.561 593.618H183.788C183.918 592.34 184.683 591.649 185.695 591.649ZM196.281 598.144C197.361 598.144 198.113 597.679 198.469 596.879H198.585V598H200.062V590.576H198.585V594.931C198.585 596.127 197.949 596.872 196.76 596.872C195.673 596.872 195.222 596.264 195.222 595.033V590.576H193.738V595.382C193.738 597.139 194.606 598.144 196.281 598.144ZM201.793 598H203.277V593.646C203.277 592.449 203.953 591.704 205.04 591.704C206.127 591.704 206.64 592.312 206.64 593.543V598H208.116V593.194C208.116 591.424 207.2 590.433 205.539 590.433C204.459 590.433 203.748 590.911 203.386 591.704H203.277V590.576H201.793V598ZM212.48 598.144C214.244 598.144 215.556 597.207 215.556 595.833V595.819C215.556 594.746 214.872 594.138 213.444 593.803L212.268 593.536C211.434 593.338 211.092 593.051 211.092 592.586V592.572C211.092 591.978 211.68 591.574 212.494 591.574C213.328 591.574 213.854 591.964 213.997 592.483V592.497H215.413V592.49C215.283 591.28 214.196 590.433 212.5 590.433C210.819 590.433 209.616 591.362 209.616 592.654V592.661C209.616 593.748 210.265 594.384 211.666 594.705L212.849 594.979C213.71 595.177 214.059 595.491 214.059 595.956V595.97C214.059 596.578 213.423 596.995 212.507 596.995C211.625 596.995 211.085 596.619 210.901 596.059L210.894 596.052H209.411V596.059C209.554 597.303 210.689 598.144 212.48 598.144ZM220.036 598.144C221.936 598.144 222.962 597.05 223.208 596.072L223.221 596.011L221.793 596.018L221.765 596.072C221.588 596.455 221.02 596.927 220.07 596.927C218.846 596.927 218.067 596.1 218.04 594.678H223.303V594.158C223.303 591.93 222.032 590.433 219.961 590.433C217.889 590.433 216.549 591.984 216.549 594.302V594.309C216.549 596.66 217.862 598.144 220.036 598.144ZM219.967 591.649C220.972 591.649 221.717 592.292 221.834 593.618H218.06C218.19 592.34 218.956 591.649 219.967 591.649ZM224.659 598H226.142V593.563C226.142 592.49 226.915 591.793 228.05 591.793C228.33 591.793 228.583 591.827 228.849 591.882V590.515C228.699 590.48 228.439 590.446 228.2 590.446C227.209 590.446 226.518 590.911 226.252 591.697H226.142V590.576H224.659V598ZM232.782 598.144C234.683 598.144 235.708 597.05 235.954 596.072L235.968 596.011L234.539 596.018L234.512 596.072C234.334 596.455 233.767 596.927 232.816 596.927C231.593 596.927 230.814 596.1 230.786 594.678H236.05V594.158C236.05 591.93 234.778 590.433 232.707 590.433C230.636 590.433 229.296 591.984 229.296 594.302V594.309C229.296 596.66 230.608 598.144 232.782 598.144ZM232.714 591.649C233.719 591.649 234.464 592.292 234.58 593.618H230.807C230.937 592.34 231.702 591.649 232.714 591.649ZM237.406 598H238.889V593.646C238.889 592.449 239.566 591.704 240.653 591.704C241.74 591.704 242.252 592.312 242.252 593.543V598H243.729V593.194C243.729 591.424 242.813 590.433 241.152 590.433C240.072 590.433 239.361 590.911 238.998 591.704H238.889V590.576H237.406V598ZM248.983 598H255.245V596.681H250.514V593.611H254.992V592.34H250.514V589.455H255.245V588.136H248.983V598ZM256.307 598H257.92L259.547 595.32H259.656L261.283 598H262.972L260.49 594.24L262.944 590.576H261.304L259.718 593.229H259.601L258.002 590.576H256.286L258.774 594.302L256.307 598ZM264.102 600.475H265.585V596.824H265.694C266.091 597.624 266.959 598.123 267.978 598.123C269.864 598.123 271.054 596.646 271.054 594.295V594.281C271.054 591.943 269.851 590.446 267.978 590.446C266.939 590.446 266.125 590.932 265.694 591.745H265.585V590.576H264.102V600.475ZM267.561 596.858C266.323 596.858 265.558 595.881 265.558 594.295V594.281C265.558 592.695 266.323 591.718 267.561 591.718C268.798 591.718 269.543 592.682 269.543 594.281V594.295C269.543 595.888 268.798 596.858 267.561 596.858ZM272.43 598H273.913V593.563C273.913 592.49 274.686 591.793 275.821 591.793C276.101 591.793 276.354 591.827 276.62 591.882V590.515C276.47 590.48 276.21 590.446 275.971 590.446C274.98 590.446 274.289 590.911 274.023 591.697H273.913V590.576H272.43V598ZM280.553 598.144C282.454 598.144 283.479 597.05 283.725 596.072L283.739 596.011L282.31 596.018L282.283 596.072C282.105 596.455 281.538 596.927 280.587 596.927C279.364 596.927 278.584 596.1 278.557 594.678H283.821V594.158C283.821 591.93 282.549 590.433 280.478 590.433C278.407 590.433 277.067 591.984 277.067 594.302V594.309C277.067 596.66 278.379 598.144 280.553 598.144ZM280.485 591.649C281.49 591.649 282.235 592.292 282.351 593.618H278.578C278.708 592.34 279.473 591.649 280.485 591.649ZM287.877 598.144C289.64 598.144 290.953 597.207 290.953 595.833V595.819C290.953 594.746 290.269 594.138 288.841 593.803L287.665 593.536C286.831 593.338 286.489 593.051 286.489 592.586V592.572C286.489 591.978 287.077 591.574 287.89 591.574C288.724 591.574 289.251 591.964 289.394 592.483V592.497H290.809V592.49C290.679 591.28 289.592 590.433 287.897 590.433C286.216 590.433 285.012 591.362 285.012 592.654V592.661C285.012 593.748 285.662 594.384 287.063 594.705L288.246 594.979C289.107 595.177 289.456 595.491 289.456 595.956V595.97C289.456 596.578 288.82 596.995 287.904 596.995C287.022 596.995 286.482 596.619 286.298 596.059L286.291 596.052H284.807V596.059C284.951 597.303 286.086 598.144 287.877 598.144ZM294.879 598.144C296.642 598.144 297.955 597.207 297.955 595.833V595.819C297.955 594.746 297.271 594.138 295.843 593.803L294.667 593.536C293.833 593.338 293.491 593.051 293.491 592.586V592.572C293.491 591.978 294.079 591.574 294.892 591.574C295.726 591.574 296.253 591.964 296.396 592.483V592.497H297.811V592.49C297.682 591.28 296.595 590.433 294.899 590.433C293.218 590.433 292.015 591.362 292.015 592.654V592.661C292.015 593.748 292.664 594.384 294.065 594.705L295.248 594.979C296.109 595.177 296.458 595.491 296.458 595.956V595.97C296.458 596.578 295.822 596.995 294.906 596.995C294.024 596.995 293.484 596.619 293.3 596.059L293.293 596.052H291.809V596.059C291.953 597.303 293.088 598.144 294.879 598.144ZM299.297 594.705H303.87V593.345H299.297V594.705ZM309.088 598.239C311.385 598.239 312.855 597.063 312.855 595.177V595.17C312.855 593.707 312.007 592.873 309.936 592.429L308.863 592.189C307.584 591.916 307.065 591.438 307.065 590.706V590.699C307.065 589.77 307.919 589.229 309.075 589.229C310.271 589.223 311.043 589.811 311.173 590.617L311.187 590.706H312.67L312.663 590.61C312.554 589.079 311.187 587.896 309.095 587.896C307.003 587.896 305.527 589.072 305.52 590.774V590.781C305.52 592.237 306.381 593.167 308.384 593.591L309.464 593.823C310.77 594.104 311.303 594.596 311.303 595.354V595.361C311.303 596.277 310.408 596.906 309.15 596.906C307.83 596.906 306.88 596.332 306.798 595.437L306.791 595.361H305.287L305.294 595.45C305.431 597.111 306.86 598.239 309.088 598.239ZM317.41 598.144C319.31 598.144 320.336 597.05 320.582 596.072L320.595 596.011L319.167 596.018L319.139 596.072C318.961 596.455 318.394 596.927 317.444 596.927C316.22 596.927 315.441 596.1 315.414 594.678H320.677V594.158C320.677 591.93 319.406 590.433 317.335 590.433C315.263 590.433 313.923 591.984 313.923 594.302V594.309C313.923 596.66 315.236 598.144 317.41 598.144ZM317.341 591.649C318.346 591.649 319.091 592.292 319.208 593.618H315.434C315.564 592.34 316.33 591.649 317.341 591.649ZM322.033 598H323.516V593.563C323.516 592.49 324.289 591.793 325.424 591.793C325.704 591.793 325.957 591.827 326.223 591.882V590.515C326.073 590.48 325.813 590.446 325.574 590.446C324.583 590.446 323.892 590.911 323.626 591.697H323.516V590.576H322.033V598ZM329.37 598H330.949L333.629 590.576H332.07L330.225 596.496H330.108L328.256 590.576H326.684L329.37 598ZM335.484 589.25C335.989 589.25 336.413 588.833 336.413 588.327C336.413 587.814 335.989 587.397 335.484 587.397C334.971 587.397 334.554 587.814 334.554 588.327C334.554 588.833 334.971 589.25 335.484 589.25ZM334.738 598H336.215V590.576H334.738V598ZM341.091 598.144C342.93 598.144 343.99 597.152 344.256 595.71L344.27 595.648H342.848L342.834 595.683C342.595 596.482 342.021 596.906 341.091 596.906C339.868 596.906 339.109 595.908 339.109 594.268V594.254C339.109 592.654 339.854 591.67 341.091 591.67C342.076 591.67 342.677 592.217 342.841 592.948L342.848 592.969L344.27 592.962V592.928C344.065 591.485 342.951 590.433 341.084 590.433C338.917 590.433 337.598 591.902 337.598 594.254V594.268C337.598 596.667 338.924 598.144 341.091 598.144ZM348.661 598.144C350.561 598.144 351.586 597.05 351.833 596.072L351.846 596.011L350.418 596.018L350.39 596.072C350.212 596.455 349.645 596.927 348.695 596.927C347.471 596.927 346.692 596.1 346.665 594.678H351.928V594.158C351.928 591.93 350.657 590.433 348.586 590.433C346.514 590.433 345.174 591.984 345.174 594.302V594.309C345.174 596.66 346.487 598.144 348.661 598.144ZM348.592 591.649C349.597 591.649 350.342 592.292 350.459 593.618H346.685C346.815 592.34 347.581 591.649 348.592 591.649Z" fill="#B3B3B3"/>
<path d="M100.001 764H103.054C105.574 764 107.033 762.441 107.033 759.758V759.746C107.033 757.092 105.562 755.545 103.054 755.545H100.001V764ZM101.314 762.869V756.676H102.908C104.66 756.676 105.697 757.818 105.697 759.764V759.775C105.697 761.738 104.677 762.869 102.908 762.869H101.314ZM110.38 764.123C111.306 764.123 111.951 763.725 112.255 763.039H112.355V764H113.621V757.637H112.355V761.369C112.355 762.395 111.81 763.033 110.791 763.033C109.859 763.033 109.472 762.512 109.472 761.457V757.637H108.201V761.756C108.201 763.262 108.945 764.123 110.38 764.123ZM117.979 764H119.25V760.268C119.25 759.242 119.83 758.604 120.762 758.604C121.693 758.604 122.133 759.125 122.133 760.18V764H123.398V759.881C123.398 758.363 122.613 757.514 121.189 757.514C120.264 757.514 119.654 757.924 119.344 758.604H119.25V755.141H117.979V764ZM126.512 764.105C127.356 764.105 128.024 763.742 128.399 763.098H128.498V764H129.758V759.646C129.758 758.311 128.856 757.514 127.256 757.514C125.809 757.514 124.807 758.211 124.654 759.254L124.649 759.295H125.873L125.879 759.271C126.031 758.82 126.494 758.562 127.197 758.562C128.059 758.562 128.498 758.949 128.498 759.646V760.209L126.776 760.309C125.258 760.402 124.403 761.064 124.403 762.201V762.213C124.403 763.367 125.299 764.105 126.512 764.105ZM125.668 762.16V762.148C125.668 761.574 126.067 761.258 126.945 761.205L128.498 761.105V761.65C128.498 762.471 127.801 763.092 126.852 763.092C126.166 763.092 125.668 762.746 125.668 762.16ZM133.457 764.123C134.969 764.123 136.094 763.32 136.094 762.143V762.131C136.094 761.211 135.508 760.689 134.284 760.402L133.276 760.174C132.561 760.004 132.268 759.758 132.268 759.359V759.348C132.268 758.838 132.772 758.492 133.469 758.492C134.184 758.492 134.635 758.826 134.758 759.271V759.283H135.971V759.277C135.86 758.24 134.928 757.514 133.475 757.514C132.034 757.514 131.002 758.311 131.002 759.418V759.424C131.002 760.355 131.559 760.9 132.76 761.176L133.774 761.41C134.512 761.58 134.811 761.85 134.811 762.248V762.26C134.811 762.781 134.266 763.139 133.481 763.139C132.725 763.139 132.262 762.816 132.104 762.336L132.098 762.33H130.827V762.336C130.95 763.402 131.922 764.123 133.457 764.123ZM139.559 764.041C139.805 764.041 140.04 764.012 140.245 763.977V762.963C140.069 762.98 139.958 762.986 139.764 762.986C139.137 762.986 138.88 762.705 138.88 762.02V758.639H140.245V757.637H138.88V756.031H137.585V757.637H136.588V758.639H137.585V762.324C137.585 763.549 138.159 764.041 139.559 764.041ZM147.573 764.105C149.179 764.105 150.21 762.822 150.21 760.824V760.812C150.21 758.797 149.19 757.525 147.573 757.525C146.7 757.525 145.956 757.959 145.616 758.645H145.522V755.141H144.251V764H145.522V762.998H145.616C145.985 763.695 146.683 764.105 147.573 764.105ZM147.216 763.021C146.155 763.021 145.499 762.184 145.499 760.824V760.812C145.499 759.453 146.155 758.615 147.216 758.615C148.276 758.615 148.915 759.447 148.915 760.812V760.824C148.915 762.189 148.276 763.021 147.216 763.021ZM153.991 764.123C155.62 764.123 156.499 763.186 156.71 762.348L156.722 762.295L155.497 762.301L155.474 762.348C155.322 762.676 154.835 763.08 154.021 763.08C152.972 763.08 152.304 762.371 152.281 761.152H156.792V760.707C156.792 758.797 155.702 757.514 153.927 757.514C152.152 757.514 151.003 758.844 151.003 760.83V760.836C151.003 762.852 152.128 764.123 153.991 764.123ZM153.933 758.557C154.794 758.557 155.433 759.107 155.532 760.244H152.298C152.409 759.148 153.066 758.557 153.933 758.557ZM157.896 764H159.167V760.197C159.167 759.277 159.83 758.68 160.802 758.68C161.042 758.68 161.259 758.709 161.488 758.756V757.584C161.359 757.555 161.136 757.525 160.931 757.525C160.081 757.525 159.49 757.924 159.261 758.598H159.167V757.637H157.896V764ZM164.8 764.123C166.429 764.123 167.308 763.186 167.519 762.348L167.531 762.295L166.306 762.301L166.283 762.348C166.131 762.676 165.644 763.08 164.83 763.08C163.781 763.08 163.113 762.371 163.09 761.152H167.601V760.707C167.601 758.797 166.511 757.514 164.736 757.514C162.961 757.514 161.812 758.844 161.812 760.83V760.836C161.812 762.852 162.937 764.123 164.8 764.123ZM164.742 758.557C165.603 758.557 166.242 759.107 166.341 760.244H163.107C163.218 759.148 163.875 758.557 164.742 758.557ZM169.367 756.5C169.801 756.5 170.164 756.143 170.164 755.709C170.164 755.27 169.801 754.912 169.367 754.912C168.928 754.912 168.57 755.27 168.57 755.709C168.57 756.143 168.928 756.5 169.367 756.5ZM168.728 764H169.994V757.637H168.728V764ZM173.84 764.041C174.086 764.041 174.32 764.012 174.525 763.977V762.963C174.35 762.98 174.238 762.986 174.045 762.986C173.418 762.986 173.16 762.705 173.16 762.02V758.639H174.525V757.637H173.16V756.031H171.865V757.637H170.869V758.639H171.865V762.324C171.865 763.549 172.44 764.041 173.84 764.041ZM177.821 764.123C179.332 764.123 180.457 763.32 180.457 762.143V762.131C180.457 761.211 179.871 760.689 178.647 760.402L177.639 760.174C176.924 760.004 176.631 759.758 176.631 759.359V759.348C176.631 758.838 177.135 758.492 177.832 758.492C178.547 758.492 178.998 758.826 179.121 759.271V759.283H180.334V759.277C180.223 758.24 179.291 757.514 177.838 757.514C176.397 757.514 175.366 758.311 175.366 759.418V759.424C175.366 760.355 175.922 760.9 177.123 761.176L178.137 761.41C178.875 761.58 179.174 761.85 179.174 762.248V762.26C179.174 762.781 178.629 763.139 177.844 763.139C177.088 763.139 176.625 762.816 176.467 762.336L176.461 762.33H175.19V762.336C175.313 763.402 176.285 764.123 177.821 764.123ZM187.112 764.123C188.741 764.123 189.62 763.186 189.831 762.348L189.842 762.295L188.618 762.301L188.594 762.348C188.442 762.676 187.956 763.08 187.141 763.08C186.092 763.08 185.424 762.371 185.401 761.152H189.913V760.707C189.913 758.797 188.823 757.514 187.048 757.514C185.272 757.514 184.124 758.844 184.124 760.83V760.836C184.124 762.852 185.249 764.123 187.112 764.123ZM187.053 758.557C187.915 758.557 188.553 759.107 188.653 760.244H185.419C185.53 759.148 186.186 758.557 187.053 758.557ZM191.679 756.5C192.112 756.5 192.475 756.143 192.475 755.709C192.475 755.27 192.112 754.912 191.679 754.912C191.239 754.912 190.882 755.27 190.882 755.709C190.882 756.143 191.239 756.5 191.679 756.5ZM191.04 764H192.306V757.637H191.04V764ZM193.749 764H195.021V760.268C195.021 759.242 195.601 758.604 196.532 758.604C197.464 758.604 197.903 759.125 197.903 760.18V764H199.169V759.881C199.169 758.363 198.384 757.514 196.96 757.514C196.034 757.514 195.425 757.924 195.114 758.604H195.021V757.637H193.749V764ZM203.208 764.123C204.837 764.123 205.716 763.186 205.927 762.348L205.939 762.295L204.714 762.301L204.691 762.348C204.538 762.676 204.052 763.08 203.238 763.08C202.189 763.08 201.521 762.371 201.497 761.152H206.009V760.707C206.009 758.797 204.919 757.514 203.144 757.514C201.368 757.514 200.22 758.844 200.22 760.83V760.836C200.22 762.852 201.345 764.123 203.208 764.123ZM203.15 758.557C204.011 758.557 204.65 759.107 204.749 760.244H201.515C201.626 759.148 202.283 758.557 203.15 758.557ZM207.113 764H208.384V760.268C208.384 759.242 208.964 758.604 209.896 758.604C210.828 758.604 211.267 759.125 211.267 760.18V764H212.533V759.881C212.533 758.363 211.748 757.514 210.324 757.514C209.398 757.514 208.789 757.924 208.478 758.604H208.384V757.637H207.113V764ZM216.269 764H217.646L218.414 761.715H221.648L222.41 764H223.793L220.74 755.545H219.322L216.269 764ZM219.978 757.027H220.078L221.297 760.66H218.766L219.978 757.027ZM227.035 764.123C228.611 764.123 229.52 763.273 229.748 762.037L229.76 761.984H228.541L228.529 762.014C228.324 762.699 227.832 763.062 227.035 763.062C225.986 763.062 225.336 762.207 225.336 760.801V760.789C225.336 759.418 225.975 758.574 227.035 758.574C227.879 758.574 228.395 759.043 228.535 759.67L228.541 759.688L229.76 759.682V759.652C229.584 758.416 228.629 757.514 227.029 757.514C225.172 757.514 224.041 758.773 224.041 760.789V760.801C224.041 762.857 225.178 764.123 227.035 764.123ZM233.471 764.123C235.047 764.123 235.955 763.273 236.184 762.037L236.196 761.984H234.977L234.965 762.014C234.76 762.699 234.268 763.062 233.471 763.062C232.422 763.062 231.772 762.207 231.772 760.801V760.789C231.772 759.418 232.411 758.574 233.471 758.574C234.315 758.574 234.83 759.043 234.971 759.67L234.977 759.688L236.196 759.682V759.652C236.02 758.416 235.065 757.514 233.465 757.514C231.608 757.514 230.477 758.773 230.477 760.789V760.801C230.477 762.857 231.614 764.123 233.471 764.123ZM239.924 764.123C241.788 764.123 242.93 762.875 242.93 760.824V760.812C242.93 758.762 241.782 757.514 239.924 757.514C238.061 757.514 236.913 758.768 236.913 760.812V760.824C236.913 762.875 238.055 764.123 239.924 764.123ZM239.924 763.062C238.829 763.062 238.213 762.236 238.213 760.824V760.812C238.213 759.4 238.829 758.574 239.924 758.574C241.014 758.574 241.635 759.4 241.635 760.812V760.824C241.635 762.23 241.014 763.062 239.924 763.062ZM246.161 764.123C247.087 764.123 247.731 763.725 248.036 763.039H248.136V764H249.401V757.637H248.136V761.369C248.136 762.395 247.591 763.033 246.571 763.033C245.639 763.033 245.253 762.512 245.253 761.457V757.637H243.981V761.756C243.981 763.262 244.725 764.123 246.161 764.123ZM250.827 764H252.099V760.268C252.099 759.242 252.679 758.604 253.61 758.604C254.542 758.604 254.981 759.125 254.981 760.18V764H256.247V759.881C256.247 758.363 255.462 757.514 254.038 757.514C253.112 757.514 252.503 757.924 252.192 758.604H252.099V757.637H250.827V764ZM260.017 764.041C260.263 764.041 260.497 764.012 260.702 763.977V762.963C260.527 762.98 260.415 762.986 260.222 762.986C259.595 762.986 259.337 762.705 259.337 762.02V758.639H260.702V757.637H259.337V756.031H258.042V757.637H257.046V758.639H258.042V762.324C258.042 763.549 258.616 764.041 260.017 764.041ZM263.16 761.375H264.372V761.018C264.372 760.414 264.589 760.104 265.345 759.658C266.119 759.195 266.576 758.557 266.576 757.654V757.643C266.576 756.395 265.533 755.475 263.986 755.475C262.287 755.475 261.378 756.482 261.326 757.807V757.818L262.533 757.812H262.544C262.591 757.039 263.113 756.553 263.921 756.553C264.724 756.553 265.245 757.039 265.245 757.695V757.707C265.245 758.305 264.994 758.645 264.285 759.072C263.482 759.553 263.124 760.08 263.154 760.906L263.16 761.375ZM263.839 764.129C264.378 764.129 264.742 763.777 264.742 763.256C264.742 762.729 264.378 762.377 263.839 762.377C263.3 762.377 262.931 762.729 262.931 763.256C262.931 763.777 263.3 764.129 263.839 764.129ZM270.705 764H276.236V762.541H272.474V755.545H270.705V764ZM279.836 764.135C281.822 764.135 283.018 762.881 283.018 760.777V760.766C283.018 758.68 281.805 757.408 279.836 757.408C277.867 757.408 276.654 758.686 276.654 760.766V760.777C276.654 762.875 277.85 764.135 279.836 764.135ZM279.836 762.793C278.922 762.793 278.406 762.049 278.406 760.777V760.766C278.406 759.506 278.928 758.75 279.836 758.75C280.738 758.75 281.266 759.506 281.266 760.766V760.777C281.266 762.049 280.744 762.793 279.836 762.793ZM286.852 766.268C288.803 766.268 290.039 765.312 290.039 763.801V757.549H288.328V758.604H288.246C287.901 757.877 287.209 757.443 286.324 757.443C284.672 757.443 283.67 758.721 283.67 760.619V760.631C283.67 762.465 284.672 763.719 286.295 763.719C287.192 763.719 287.871 763.35 288.229 762.67H288.334V763.871C288.334 764.621 287.801 765.049 286.887 765.049C286.125 765.049 285.68 764.791 285.586 764.416L285.58 764.393H283.887V764.422C284.028 765.518 285.065 766.268 286.852 766.268ZM286.875 762.406C285.949 762.406 285.422 761.686 285.422 760.625V760.613C285.422 759.553 285.955 758.832 286.875 758.832C287.795 758.832 288.352 759.553 288.352 760.613V760.625C288.352 761.686 287.801 762.406 286.875 762.406ZM292.215 756.559C292.743 756.559 293.176 756.137 293.176 755.609C293.176 755.076 292.743 754.654 292.215 754.654C291.688 754.654 291.248 755.076 291.248 755.609C291.248 756.137 291.688 756.559 292.215 756.559ZM291.354 764H293.065V757.549H291.354V764ZM294.38 764H296.09V760.268C296.09 759.395 296.571 758.826 297.362 758.826C298.171 758.826 298.546 759.307 298.546 760.215V764H300.256V759.828C300.256 758.287 299.483 757.408 298.048 757.408C297.128 757.408 296.489 757.848 296.196 758.545H296.09V757.549H294.38V764Z" fill="#B3B3B3"/>
<path d="M144.72 716.239C146.921 716.239 148.528 714.981 148.815 713.088V713.047H147.297L147.284 713.074C147.003 714.188 146.026 714.886 144.72 714.886C142.943 714.886 141.835 713.416 141.835 711.078V711.064C141.835 708.72 142.943 707.25 144.713 707.25C146.012 707.25 147.003 708.036 147.29 709.246V709.267H148.808L148.815 709.232C148.555 707.271 146.887 705.896 144.713 705.896C141.972 705.896 140.27 707.879 140.27 711.064V711.078C140.27 714.257 141.979 716.239 144.72 716.239ZM150.252 716H151.736V711.563C151.736 710.49 152.508 709.793 153.643 709.793C153.923 709.793 154.176 709.827 154.443 709.882V708.515C154.293 708.48 154.033 708.446 153.793 708.446C152.802 708.446 152.112 708.911 151.845 709.697H151.736V708.576H150.252V716ZM158.376 716.144C160.276 716.144 161.302 715.05 161.548 714.072L161.561 714.011L160.133 714.018L160.105 714.072C159.927 714.455 159.36 714.927 158.41 714.927C157.186 714.927 156.407 714.1 156.38 712.678H161.643V712.158C161.643 709.93 160.372 708.433 158.301 708.433C156.229 708.433 154.889 709.984 154.889 712.302V712.309C154.889 714.66 156.202 716.144 158.376 716.144ZM158.307 709.649C159.312 709.649 160.057 710.292 160.174 711.618H156.4C156.53 710.34 157.296 709.649 158.307 709.649ZM165.036 716.123C166.02 716.123 166.8 715.699 167.237 714.947H167.353V716H168.823V710.921C168.823 709.362 167.77 708.433 165.904 708.433C164.216 708.433 163.047 709.246 162.869 710.463L162.862 710.511H164.291L164.298 710.483C164.476 709.957 165.016 709.656 165.836 709.656C166.841 709.656 167.353 710.107 167.353 710.921V711.577L165.344 711.693C163.573 711.803 162.575 712.575 162.575 713.901V713.915C162.575 715.262 163.621 716.123 165.036 716.123ZM164.052 713.854V713.84C164.052 713.17 164.517 712.801 165.542 712.739L167.353 712.623V713.259C167.353 714.216 166.54 714.94 165.433 714.94C164.633 714.94 164.052 714.537 164.052 713.854ZM173.31 716.048C173.597 716.048 173.87 716.014 174.11 715.973V714.79C173.904 714.811 173.775 714.817 173.549 714.817C172.818 714.817 172.517 714.489 172.517 713.689V709.745H174.11V708.576H172.517V706.703H171.006V708.576H169.844V709.745H171.006V714.045C171.006 715.474 171.676 716.048 173.31 716.048ZM178.466 716.144C180.367 716.144 181.392 715.05 181.638 714.072L181.652 714.011L180.223 714.018L180.196 714.072C180.018 714.455 179.451 714.927 178.5 714.927C177.277 714.927 176.497 714.1 176.47 712.678H181.734V712.158C181.734 709.93 180.462 708.433 178.391 708.433C176.32 708.433 174.98 709.984 174.98 712.302V712.309C174.98 714.66 176.292 716.144 178.466 716.144ZM178.398 709.649C179.403 709.649 180.148 710.292 180.264 711.618H176.491C176.62 710.34 177.386 709.649 178.398 709.649ZM185.922 716H187.528L188.424 713.334H192.197L193.086 716H194.699L191.137 706.136H189.483L185.922 716ZM190.249 707.865H190.365L191.787 712.104H188.834L190.249 707.865ZM195.836 716H197.319V711.646C197.319 710.449 197.996 709.704 199.083 709.704C200.17 709.704 200.683 710.312 200.683 711.543V716H202.159V711.194C202.159 709.424 201.243 708.433 199.582 708.433C198.502 708.433 197.791 708.911 197.429 709.704H197.319V708.576H195.836V716ZM206.655 716H208.261L209.157 713.334H212.93L213.819 716H215.432L211.871 706.136H210.216L206.655 716ZM210.982 707.865H211.098L212.52 712.104H209.567L210.982 707.865ZM219.283 716.144C221.122 716.144 222.181 715.152 222.448 713.71L222.462 713.648H221.04L221.026 713.683C220.787 714.482 220.213 714.906 219.283 714.906C218.059 714.906 217.3 713.908 217.3 712.268V712.254C217.3 710.654 218.046 709.67 219.283 709.67C220.267 709.67 220.869 710.217 221.033 710.948L221.04 710.969L222.462 710.962V710.928C222.256 709.485 221.142 708.433 219.276 708.433C217.109 708.433 215.79 709.902 215.79 712.254V712.268C215.79 714.667 217.116 716.144 219.283 716.144ZM226.859 716.144C228.698 716.144 229.758 715.152 230.024 713.71L230.038 713.648H228.616L228.602 713.683C228.363 714.482 227.789 714.906 226.859 714.906C225.636 714.906 224.877 713.908 224.877 712.268V712.254C224.877 710.654 225.622 709.67 226.859 709.67C227.844 709.67 228.445 710.217 228.609 710.948L228.616 710.969L230.038 710.962V710.928C229.833 709.485 228.719 708.433 226.852 708.433C224.685 708.433 223.366 709.902 223.366 712.254V712.268C223.366 714.667 224.692 716.144 226.859 716.144ZM234.456 716.144C236.63 716.144 237.963 714.688 237.963 712.295V712.281C237.963 709.889 236.623 708.433 234.456 708.433C232.282 708.433 230.942 709.896 230.942 712.281V712.295C230.942 714.688 232.275 716.144 234.456 716.144ZM234.456 714.906C233.178 714.906 232.46 713.942 232.46 712.295V712.281C232.46 710.634 233.178 709.67 234.456 709.67C235.728 709.67 236.452 710.634 236.452 712.281V712.295C236.452 713.936 235.728 714.906 234.456 714.906ZM241.8 716.144C242.88 716.144 243.632 715.679 243.988 714.879H244.104V716H245.58V708.576H244.104V712.931C244.104 714.127 243.468 714.872 242.279 714.872C241.192 714.872 240.74 714.264 240.74 713.033V708.576H239.257V713.382C239.257 715.139 240.125 716.144 241.8 716.144ZM247.312 716H248.795V711.646C248.795 710.449 249.472 709.704 250.559 709.704C251.646 709.704 252.159 710.312 252.159 711.543V716H253.635V711.194C253.635 709.424 252.719 708.433 251.058 708.433C249.978 708.433 249.267 708.911 248.905 709.704H248.795V708.576H247.312V716ZM258.101 716.048C258.388 716.048 258.662 716.014 258.901 715.973V714.79C258.696 714.811 258.566 714.817 258.34 714.817C257.609 714.817 257.308 714.489 257.308 713.689V709.745H258.901V708.576H257.308V706.703H255.798V708.576H254.635V709.745H255.798V714.045C255.798 715.474 256.467 716.048 258.101 716.048Z" fill="white"/>
<g filter="url(#filter0_d_57_122)">
<rect x="83" y="686" width="235" height="50" rx="20" fill="#80884D"/>
</g>
<path d="M182.365 716H183.814L185.926 708.624H186.022L188.141 716H189.583L192.249 706.136H190.657L188.852 713.806H188.756L186.685 706.136H185.263L183.206 713.806H183.11L181.298 706.136H179.706L182.365 716ZM195.902 716.144C197.802 716.144 198.828 715.05 199.074 714.072L199.088 714.011L197.659 714.018L197.632 714.072C197.454 714.455 196.886 714.927 195.936 714.927C194.713 714.927 193.933 714.1 193.906 712.678H199.17V712.158C199.17 709.93 197.898 708.433 195.827 708.433C193.756 708.433 192.416 709.984 192.416 712.302V712.309C192.416 714.66 193.728 716.144 195.902 716.144ZM195.834 709.649C196.839 709.649 197.584 710.292 197.7 711.618H193.926C194.056 710.34 194.822 709.649 195.834 709.649ZM201.298 707.25C201.804 707.25 202.227 706.833 202.227 706.327C202.227 705.814 201.804 705.397 201.298 705.397C200.785 705.397 200.368 705.814 200.368 706.327C200.368 706.833 200.785 707.25 201.298 707.25ZM200.553 716H202.029V708.576H200.553V716ZM206.584 716.048C206.871 716.048 207.145 716.014 207.384 715.973V714.79C207.179 714.811 207.049 714.817 206.823 714.817C206.092 714.817 205.791 714.489 205.791 713.689V709.745H207.384V708.576H205.791V706.703H204.28V708.576H203.118V709.745H204.28V714.045C204.28 715.474 204.95 716.048 206.584 716.048ZM211.741 716.144C213.641 716.144 214.666 715.05 214.912 714.072L214.926 714.011L213.497 714.018L213.47 714.072C213.292 714.455 212.725 714.927 211.775 714.927C210.551 714.927 209.772 714.1 209.744 712.678H215.008V712.158C215.008 709.93 213.737 708.433 211.665 708.433C209.594 708.433 208.254 709.984 208.254 712.302V712.309C208.254 714.66 209.567 716.144 211.741 716.144ZM211.672 709.649C212.677 709.649 213.422 710.292 213.538 711.618H209.765C209.895 710.34 210.66 709.649 211.672 709.649ZM216.364 716H217.847V711.563C217.847 710.49 218.62 709.793 219.754 709.793C220.035 709.793 220.288 709.827 220.554 709.882V708.515C220.404 708.48 220.144 708.446 219.905 708.446C218.914 708.446 218.223 708.911 217.957 709.697H217.847V708.576H216.364V716Z" fill="white"/>
</g>
<defs>
<filter id="filter0_d_57_122" x="68" y="673" width="275" height="90" filterUnits="userSpaceOnUse" color-interpolation-filters="sRGB">
<feFlood flood-opacity="0" result="BackgroundImageFix"/>
<feColorMatrix in="SourceAlpha" type="matrix" values="0 0 0 0 0 0 0 0 0 0 0 0 0 0 0 0 0 0 127 0" result="hardAlpha"/>
<feOffset dx="5" dy="7"/>
<feGaussianBlur stdDeviation="10"/>
<feComposite in2="hardAlpha" operator="out"/>
<feColorMatrix type="matrix" values="0 0 0 0 0.501085 0 0 0 0 0.533333 0 0 0 0 0.302222 0 0 0 0.5 0"/>
<feBlend mode="normal" in2="BackgroundImageFix" result="effect1_dropShadow_57_122"/>
<feBlend mode="normal" in="SourceGraphic" in2="effect1_dropShadow_57_122" result="shape"/>
</filter>
<clipPath id="clip0_57_122">
<rect width="393" height="852" fill="white"/>
</clipPath>
<clipPath id="clip1_57_122">
<rect width="319" height="134" fill="white" transform="translate(37 322)"/>
</clipPath>
</defs>
</svg>
