<svg width="275" height="90" viewBox="0 0 275 90" fill="none" xmlns="http://www.w3.org/2000/svg">
<g filter="url(#filter0_d_91_942)">
<rect x="15" y="13" width="235" height="50" rx="20" fill="white"/>
<rect x="15.5" y="13.5" width="234" height="49" rx="19.5" stroke="#80884D"/>
</g>
<path d="M94.5545 43H96.0858V39.2061H98.246L100.256 43H102.026L99.8114 38.9668C101.015 38.5635 101.725 37.4834 101.725 36.1572V36.1436C101.725 34.3115 100.468 33.1357 98.4442 33.1357H94.5545V43ZM96.0858 37.9619V34.4209H98.246C99.4286 34.4209 100.153 35.0908 100.153 36.1846V36.1982C100.153 37.3193 99.4696 37.9619 98.2938 37.9619H96.0858ZM106.226 43.1436C108.126 43.1436 109.151 42.0498 109.398 41.0723L109.411 41.0107L107.982 41.0176L107.955 41.0723C107.777 41.4551 107.21 41.9268 106.26 41.9268C105.036 41.9268 104.257 41.0996 104.23 39.6777H109.493V39.1582C109.493 36.9297 108.222 35.4326 106.15 35.4326C104.079 35.4326 102.739 36.9844 102.739 39.3018V39.3086C102.739 41.6602 104.052 43.1436 106.226 43.1436ZM106.157 36.6494C107.162 36.6494 107.907 37.292 108.023 38.6182H104.25C104.38 37.3398 105.146 36.6494 106.157 36.6494ZM113.987 45.6182C116.092 45.6182 117.425 44.5381 117.425 42.8496V35.5762H115.949V36.793H115.86C115.429 35.959 114.622 35.4463 113.583 35.4463C111.656 35.4463 110.473 36.9434 110.473 39.0625V39.0762C110.473 41.168 111.649 42.6377 113.556 42.6377C114.574 42.6377 115.395 42.1865 115.846 41.3799H115.955V42.8428C115.955 43.8545 115.231 44.4287 114.007 44.4287C113.002 44.4287 112.401 44.0664 112.278 43.5537L112.271 43.54H110.774L110.76 43.5537C110.938 44.791 112.1 45.6182 113.987 45.6182ZM113.966 41.4141C112.701 41.4141 111.99 40.4502 111.99 39.0693V39.0557C111.99 37.6748 112.701 36.7041 113.966 36.7041C115.217 36.7041 115.983 37.6748 115.983 39.0557V39.0693C115.983 40.457 115.224 41.4141 113.966 41.4141ZM119.922 34.25C120.428 34.25 120.852 33.833 120.852 33.3271C120.852 32.8145 120.428 32.3975 119.922 32.3975C119.41 32.3975 118.993 32.8145 118.993 33.3271C118.993 33.833 119.41 34.25 119.922 34.25ZM119.177 43H120.654V35.5762H119.177V43ZM125.106 43.1436C126.87 43.1436 128.182 42.207 128.182 40.833V40.8193C128.182 39.7461 127.499 39.1377 126.07 38.8027L124.894 38.5361C124.06 38.3379 123.718 38.0508 123.718 37.5859V37.5723C123.718 36.9775 124.306 36.5742 125.12 36.5742C125.954 36.5742 126.48 36.9639 126.624 37.4834V37.4971H128.039V37.4902C127.909 36.2803 126.822 35.4326 125.127 35.4326C123.445 35.4326 122.242 36.3623 122.242 37.6543V37.6611C122.242 38.748 122.891 39.3838 124.293 39.7051L125.475 39.9785C126.337 40.1768 126.685 40.4912 126.685 40.9561V40.9697C126.685 41.5781 126.049 41.9951 125.133 41.9951C124.252 41.9951 123.712 41.6191 123.527 41.0586L123.52 41.0518H122.037V41.0586C122.18 42.3027 123.315 43.1436 125.106 43.1436ZM132.293 43.0479C132.58 43.0479 132.853 43.0137 133.093 42.9727V41.79C132.888 41.8105 132.758 41.8174 132.532 41.8174C131.801 41.8174 131.5 41.4893 131.5 40.6895V36.7451H133.093V35.5762H131.5V33.7031H129.989V35.5762H128.827V36.7451H129.989V41.0449C129.989 42.4736 130.659 43.0479 132.293 43.0479ZM134.414 43H135.898V38.5635C135.898 37.4902 136.67 36.793 137.805 36.793C138.085 36.793 138.338 36.8271 138.605 36.8818V35.5146C138.454 35.4805 138.194 35.4463 137.955 35.4463C136.964 35.4463 136.274 35.9111 136.007 36.6973H135.898V35.5762H134.414V43ZM140.384 34.25C140.89 34.25 141.314 33.833 141.314 33.3271C141.314 32.8145 140.89 32.3975 140.384 32.3975C139.871 32.3975 139.454 32.8145 139.454 33.3271C139.454 33.833 139.871 34.25 140.384 34.25ZM139.639 43H141.116V35.5762H139.639V43ZM145.985 43.1436C147.885 43.1436 148.911 42.0498 149.157 41.0723L149.17 41.0107L147.742 41.0176L147.714 41.0723C147.537 41.4551 146.969 41.9268 146.019 41.9268C144.795 41.9268 144.016 41.0996 143.989 39.6777H149.252V39.1582C149.252 36.9297 147.981 35.4326 145.91 35.4326C143.838 35.4326 142.499 36.9844 142.499 39.3018V39.3086C142.499 41.6602 143.811 43.1436 145.985 43.1436ZM145.917 36.6494C146.921 36.6494 147.667 37.292 147.783 38.6182H144.009C144.139 37.3398 144.905 36.6494 145.917 36.6494ZM150.608 43H152.092V38.5635C152.092 37.4902 152.864 36.793 153.999 36.793C154.279 36.793 154.532 36.8271 154.799 36.8818V35.5146C154.648 35.4805 154.388 35.4463 154.149 35.4463C153.158 35.4463 152.468 35.9111 152.201 36.6973H152.092V35.5762H150.608V43ZM158.731 43.1436C160.632 43.1436 161.657 42.0498 161.903 41.0723L161.917 41.0107L160.488 41.0176L160.461 41.0723C160.283 41.4551 159.716 41.9268 158.766 41.9268C157.542 41.9268 156.763 41.0996 156.735 39.6777H161.999V39.1582C161.999 36.9297 160.727 35.4326 158.656 35.4326C156.585 35.4326 155.245 36.9844 155.245 39.3018V39.3086C155.245 41.6602 156.558 43.1436 158.731 43.1436ZM158.663 36.6494C159.668 36.6494 160.413 37.292 160.529 38.6182H156.756C156.886 37.3398 157.651 36.6494 158.663 36.6494ZM163.355 43H164.838V38.6455C164.838 37.4492 165.515 36.7041 166.602 36.7041C167.689 36.7041 168.201 37.3125 168.201 38.543V43H169.678V38.1943C169.678 36.4238 168.762 35.4326 167.101 35.4326C166.021 35.4326 165.31 35.9111 164.947 36.7041H164.838V35.5762H163.355V43Z" fill="#80884D"/>
<defs>
<filter id="filter0_d_91_942" x="0" y="0" width="275" height="90" filterUnits="userSpaceOnUse" color-interpolation-filters="sRGB">
<feFlood flood-opacity="0" result="BackgroundImageFix"/>
<feColorMatrix in="SourceAlpha" type="matrix" values="0 0 0 0 0 0 0 0 0 0 0 0 0 0 0 0 0 0 127 0" result="hardAlpha"/>
<feOffset dx="5" dy="7"/>
<feGaussianBlur stdDeviation="10"/>
<feComposite in2="hardAlpha" operator="out"/>
<feColorMatrix type="matrix" values="0 0 0 0 0.501085 0 0 0 0 0.533333 0 0 0 0 0.302222 0 0 0 0.5 0"/>
<feBlend mode="normal" in2="BackgroundImageFix" result="effect1_dropShadow_91_942"/>
<feBlend mode="normal" in="SourceGraphic" in2="effect1_dropShadow_91_942" result="shape"/>
</filter>
</defs>
</svg>
