<svg width="136" height="70" viewBox="0 0 136 70" fill="none" xmlns="http://www.w3.org/2000/svg">
<g filter="url(#filter0_d_0_1)">
<rect x="15" y="11" width="106" height="40" rx="10" fill="white"/>
<rect x="15.5" y="11.5" width="105" height="39" rx="9.5" stroke="#80884D"/>
</g>
<path d="M40.2079 30.24C40.2079 30.6467 40.1146 31.02 39.9279 31.36C39.7413 31.6933 39.4546 31.9633 39.0679 32.17C38.6813 32.3767 38.2013 32.48 37.6279 32.48H36.5679V35H34.8579V27.98H37.6279C38.1879 27.98 38.6613 28.0767 39.0479 28.27C39.4346 28.4633 39.7246 28.73 39.9179 29.07C40.1113 29.41 40.2079 29.8 40.2079 30.24ZM37.4979 31.12C37.8246 31.12 38.0679 31.0433 38.2279 30.89C38.3879 30.7367 38.4679 30.52 38.4679 30.24C38.4679 29.96 38.3879 29.7433 38.2279 29.59C38.0679 29.4367 37.8246 29.36 37.4979 29.36H36.5679V31.12H37.4979ZM42.4002 27.6V35H40.6902V27.6H42.4002ZM42.8914 32.2C42.8914 31.6267 42.9981 31.1233 43.2114 30.69C43.4314 30.2567 43.7281 29.9233 44.1014 29.69C44.4747 29.4567 44.8914 29.34 45.3514 29.34C45.7447 29.34 46.0881 29.42 46.3814 29.58C46.6814 29.74 46.9114 29.95 47.0714 30.21V29.42H48.7814V35H47.0714V34.21C46.9047 34.47 46.6714 34.68 46.3714 34.84C46.0781 35 45.7347 35.08 45.3414 35.08C44.8881 35.08 44.4747 34.9633 44.1014 34.73C43.7281 34.49 43.4314 34.1533 43.2114 33.72C42.9981 33.28 42.8914 32.7733 42.8914 32.2ZM47.0714 32.21C47.0714 31.7833 46.9514 31.4467 46.7114 31.2C46.4781 30.9533 46.1914 30.83 45.8514 30.83C45.5114 30.83 45.2214 30.9533 44.9814 31.2C44.7481 31.44 44.6314 31.7733 44.6314 32.2C44.6314 32.6267 44.7481 32.9667 44.9814 33.22C45.2214 33.4667 45.5114 33.59 45.8514 33.59C46.1914 33.59 46.4781 33.4667 46.7114 33.22C46.9514 32.9733 47.0714 32.6367 47.0714 32.21ZM49.2705 32.21C49.2705 31.63 49.3872 31.1233 49.6205 30.69C49.8605 30.2567 50.1905 29.9233 50.6105 29.69C51.0372 29.4567 51.5238 29.34 52.0705 29.34C52.7705 29.34 53.3538 29.5233 53.8205 29.89C54.2938 30.2567 54.6038 30.7733 54.7505 31.44H52.9305C52.7772 31.0133 52.4805 30.8 52.0405 30.8C51.7272 30.8 51.4772 30.9233 51.2905 31.17C51.1038 31.41 51.0105 31.7567 51.0105 32.21C51.0105 32.6633 51.1038 33.0133 51.2905 33.26C51.4772 33.5 51.7272 33.62 52.0405 33.62C52.4805 33.62 52.7772 33.4067 52.9305 32.98H54.7505C54.6038 33.6333 54.2938 34.1467 53.8205 34.52C53.3472 34.8933 52.7638 35.08 52.0705 35.08C51.5238 35.08 51.0372 34.9633 50.6105 34.73C50.1905 34.4967 49.8605 34.1633 49.6205 33.73C49.3872 33.2967 49.2705 32.79 49.2705 32.21ZM60.5172 32.12C60.5172 32.28 60.5072 32.4467 60.4872 32.62H56.6172C56.6439 32.9667 56.7539 33.2333 56.9472 33.42C57.1472 33.6 57.3905 33.69 57.6772 33.69C58.1039 33.69 58.4005 33.51 58.5672 33.15H60.3872C60.2939 33.5167 60.1239 33.8467 59.8772 34.14C59.6372 34.4333 59.3339 34.6633 58.9672 34.83C58.6005 34.9967 58.1905 35.08 57.7372 35.08C57.1905 35.08 56.7039 34.9633 56.2772 34.73C55.8505 34.4967 55.5172 34.1633 55.2772 33.73C55.0372 33.2967 54.9172 32.79 54.9172 32.21C54.9172 31.63 55.0339 31.1233 55.2672 30.69C55.5072 30.2567 55.8405 29.9233 56.2672 29.69C56.6939 29.4567 57.1839 29.34 57.7372 29.34C58.2772 29.34 58.7572 29.4533 59.1772 29.68C59.5972 29.9067 59.9239 30.23 60.1572 30.65C60.3972 31.07 60.5172 31.56 60.5172 32.12ZM58.7672 31.67C58.7672 31.3767 58.6672 31.1433 58.4672 30.97C58.2672 30.7967 58.0172 30.71 57.7172 30.71C57.4305 30.71 57.1872 30.7933 56.9872 30.96C56.7939 31.1267 56.6739 31.3633 56.6272 31.67H58.7672ZM62.3824 32.2C62.3824 31.6267 62.4891 31.1233 62.7024 30.69C62.9224 30.2567 63.2191 29.9233 63.5924 29.69C63.9658 29.4567 64.3824 29.34 64.8424 29.34C65.2358 29.34 65.5791 29.42 65.8724 29.58C66.1724 29.74 66.4024 29.95 66.5624 30.21V29.42H68.2724V35H66.5624V34.21C66.3958 34.47 66.1624 34.68 65.8624 34.84C65.5691 35 65.2258 35.08 64.8324 35.08C64.3791 35.08 63.9658 34.9633 63.5924 34.73C63.2191 34.49 62.9224 34.1533 62.7024 33.72C62.4891 33.28 62.3824 32.7733 62.3824 32.2ZM66.5624 32.21C66.5624 31.7833 66.4424 31.4467 66.2024 31.2C65.9691 30.9533 65.6824 30.83 65.3424 30.83C65.0024 30.83 64.7124 30.9533 64.4724 31.2C64.2391 31.44 64.1224 31.7733 64.1224 32.2C64.1224 32.6267 64.2391 32.9667 64.4724 33.22C64.7124 33.4667 65.0024 33.59 65.3424 33.59C65.6824 33.59 65.9691 33.4667 66.2024 33.22C66.4424 32.9733 66.5624 32.6367 66.5624 32.21ZM72.5015 29.36C73.1549 29.36 73.6749 29.5733 74.0615 30C74.4549 30.42 74.6515 31 74.6515 31.74V35H72.9515V31.97C72.9515 31.5967 72.8549 31.3067 72.6615 31.1C72.4682 30.8933 72.2082 30.79 71.8815 30.79C71.5549 30.79 71.2949 30.8933 71.1015 31.1C70.9082 31.3067 70.8115 31.5967 70.8115 31.97V35H69.1015V29.42H70.8115V30.16C70.9849 29.9133 71.2182 29.72 71.5115 29.58C71.8049 29.4333 72.1349 29.36 72.5015 29.36ZM79.683 35.08C79.1363 35.08 78.643 34.9633 78.203 34.73C77.7696 34.4967 77.4263 34.1633 77.173 33.73C76.9263 33.2967 76.803 32.79 76.803 32.21C76.803 31.6367 76.9296 31.1333 77.183 30.7C77.4363 30.26 77.783 29.9233 78.223 29.69C78.663 29.4567 79.1563 29.34 79.703 29.34C80.2496 29.34 80.743 29.4567 81.183 29.69C81.623 29.9233 81.9696 30.26 82.223 30.7C82.4763 31.1333 82.603 31.6367 82.603 32.21C82.603 32.7833 82.473 33.29 82.213 33.73C81.9596 34.1633 81.6096 34.4967 81.163 34.73C80.723 34.9633 80.2296 35.08 79.683 35.08ZM79.683 33.6C80.0096 33.6 80.2863 33.48 80.513 33.24C80.7463 33 80.863 32.6567 80.863 32.21C80.863 31.7633 80.7496 31.42 80.523 31.18C80.303 30.94 80.0296 30.82 79.703 30.82C79.3696 30.82 79.093 30.94 78.873 31.18C78.653 31.4133 78.543 31.7567 78.543 32.21C78.543 32.6567 78.6496 33 78.863 33.24C79.083 33.48 79.3563 33.6 79.683 33.6ZM84.8122 30.35C85.0122 30.0433 85.2622 29.8033 85.5622 29.63C85.8622 29.45 86.1955 29.36 86.5622 29.36V31.17H86.0922C85.6655 31.17 85.3455 31.2633 85.1322 31.45C84.9188 31.63 84.8122 31.95 84.8122 32.41V35H83.1022V29.42H84.8122V30.35ZM86.6315 32.2C86.6315 31.6267 86.7382 31.1233 86.9515 30.69C87.1715 30.2567 87.4682 29.9233 87.8415 29.69C88.2148 29.4567 88.6315 29.34 89.0915 29.34C89.4582 29.34 89.7915 29.4167 90.0915 29.57C90.3982 29.7233 90.6382 29.93 90.8115 30.19V27.6H92.5215V35H90.8115V34.2C90.6515 34.4667 90.4215 34.68 90.1215 34.84C89.8282 35 89.4848 35.08 89.0915 35.08C88.6315 35.08 88.2148 34.9633 87.8415 34.73C87.4682 34.49 87.1715 34.1533 86.9515 33.72C86.7382 33.28 86.6315 32.7733 86.6315 32.2ZM90.8115 32.21C90.8115 31.7833 90.6915 31.4467 90.4515 31.2C90.2182 30.9533 89.9315 30.83 89.5915 30.83C89.2515 30.83 88.9615 30.9533 88.7215 31.2C88.4882 31.44 88.3715 31.7733 88.3715 32.2C88.3715 32.6267 88.4882 32.9667 88.7215 33.22C88.9615 33.4667 89.2515 33.59 89.5915 33.59C89.9315 33.59 90.2182 33.4667 90.4515 33.22C90.6915 32.9733 90.8115 32.6367 90.8115 32.21ZM98.6106 32.12C98.6106 32.28 98.6006 32.4467 98.5806 32.62H94.7106C94.7373 32.9667 94.8473 33.2333 95.0406 33.42C95.2406 33.6 95.4839 33.69 95.7706 33.69C96.1973 33.69 96.4939 33.51 96.6606 33.15H98.4806C98.3873 33.5167 98.2173 33.8467 97.9706 34.14C97.7306 34.4333 97.4273 34.6633 97.0606 34.83C96.6939 34.9967 96.2839 35.08 95.8306 35.08C95.2839 35.08 94.7973 34.9633 94.3706 34.73C93.9439 34.4967 93.6106 34.1633 93.3706 33.73C93.1306 33.2967 93.0106 32.79 93.0106 32.21C93.0106 31.63 93.1273 31.1233 93.3606 30.69C93.6006 30.2567 93.9339 29.9233 94.3606 29.69C94.7873 29.4567 95.2773 29.34 95.8306 29.34C96.3706 29.34 96.8506 29.4533 97.2706 29.68C97.6906 29.9067 98.0173 30.23 98.2506 30.65C98.4906 31.07 98.6106 31.56 98.6106 32.12ZM96.8606 31.67C96.8606 31.3767 96.7606 31.1433 96.5606 30.97C96.3606 30.7967 96.1106 30.71 95.8106 30.71C95.5239 30.71 95.2806 30.7933 95.0806 30.96C94.8873 31.1267 94.7673 31.3633 94.7206 31.67H96.8606ZM100.815 30.35C101.015 30.0433 101.265 29.8033 101.565 29.63C101.865 29.45 102.198 29.36 102.565 29.36V31.17H102.095C101.668 31.17 101.348 31.2633 101.135 31.45C100.921 31.63 100.815 31.95 100.815 32.41V35H99.1047V29.42H100.815V30.35Z" fill="#80884D"/>
<defs>
<filter id="filter0_d_0_1" x="0" y="0" width="136" height="70" filterUnits="userSpaceOnUse" color-interpolation-filters="sRGB">
<feFlood flood-opacity="0" result="BackgroundImageFix"/>
<feColorMatrix in="SourceAlpha" type="matrix" values="0 0 0 0 0 0 0 0 0 0 0 0 0 0 0 0 0 0 127 0" result="hardAlpha"/>
<feOffset dy="4"/>
<feGaussianBlur stdDeviation="7.5"/>
<feComposite in2="hardAlpha" operator="out"/>
<feColorMatrix type="matrix" values="0 0 0 0 0.501085 0 0 0 0 0.533333 0 0 0 0 0.302222 0 0 0 0.35 0"/>
<feBlend mode="normal" in2="BackgroundImageFix" result="effect1_dropShadow_0_1"/>
<feBlend mode="normal" in="SourceGraphic" in2="effect1_dropShadow_0_1" result="shape"/>
</filter>
</defs>
</svg>
