<svg width="319" height="134" viewBox="0 0 319 134" fill="none" xmlns="http://www.w3.org/2000/svg">
<g clip-path="url(#clip0_81_677)">
<path d="M240.379 57.6312V32.6784C240.379 30.1904 242.397 28.1664 244.877 28.1664H261.149C263.63 28.1664 265.647 30.1904 265.647 32.6784V57.6312C265.647 60.1192 263.63 62.1432 261.149 62.1432H244.877C242.397 62.1432 240.379 60.1192 240.379 57.6312Z" fill="#80884D"/>
<path d="M248.712 38.9527H257.314V36.7954H248.712V38.9527Z" fill="#3F3D56"/>
<path d="M250.863 35.1775H255.164V28.1664H250.863V35.1775Z" fill="#3F3D56"/>
<path d="M250.863 62.1432H255.164V55.1321H250.863V62.1432Z" fill="#3F3D56"/>
<path d="M228.82 58.6397H203.946C201.466 58.6397 199.448 56.6157 199.448 54.1277V37.8039C199.448 35.3159 201.466 33.2919 203.946 33.2919H228.82C231.301 33.2919 233.318 35.3159 233.318 37.8039V54.1277C233.318 56.6157 231.301 58.6397 228.82 58.6397Z" fill="#80884D"/>
<path d="M221.222 36.7974H212.62V38.9547H221.222V36.7974Z" fill="#3F3D56"/>
<path d="M206.437 48.123V43.8085H199.448V48.123H206.437Z" fill="#3F3D56"/>
<path d="M233.318 48.123V43.8085H226.329V48.123H233.318Z" fill="#3F3D56"/>
<path d="M27.0454 105.3L22.8929 81.001C21.0477 70.2035 29.0142 60.2117 39.9201 59.6451L99.118 56.5694L113.246 33.2104C115.119 30.1137 118.468 28.2226 122.079 28.2226H164.614C167.958 28.2226 170.783 30.7098 171.217 34.0355L172.297 52.7263L278.342 53.0448L291.682 97.1472L279.3 96.5416L279.935 109.919L263.742 110.556L258.344 95.2447C257.328 92.3616 252.874 89.1108 248.245 86.391C237.866 80.2937 224.533 82.2507 216.679 91.3881C214.826 93.5436 213.531 95.7895 213.169 97.8955L210.72 112.148L91.9743 110.237L76.4116 88.3987C71.8137 83.3793 50.1087 81.5356 48.154 88.3987L36.4117 105.778L27.0454 105.3Z" fill="#E6E6E6"/>
<path d="M156.108 42.4362L159.602 58.9582L115.152 59.9137L124.54 39.6934C125.392 37.8591 127.261 36.7203 129.276 36.8082L150.576 37.7372C153.273 37.8548 155.548 39.7876 156.108 42.4362Z" fill="white"/>
<path d="M109.119 58.6397L118.009 35.7074L115.682 33.3726L101.182 55.4546L104.128 59.9137L109.119 58.6397Z" fill="white"/>
<path d="M236.437 133.169C248.01 133.169 257.392 123.758 257.392 112.148C257.392 100.539 248.01 91.127 236.437 91.127C224.864 91.127 215.482 100.539 215.482 112.148C215.482 123.758 224.864 133.169 236.437 133.169Z" fill="#3F3D56"/>
<path d="M221.991 112.148C221.991 104.157 228.471 97.6563 236.437 97.6563C244.403 97.6563 250.883 104.157 250.883 112.148C250.883 120.139 244.403 126.64 236.437 126.64C228.471 126.64 221.991 120.139 221.991 112.148ZM222.308 112.148C222.308 119.963 228.646 126.322 236.437 126.322C244.228 126.322 250.566 119.963 250.566 112.148C250.566 104.333 244.228 97.9748 236.437 97.9748C228.646 97.9748 222.308 104.333 222.308 112.148Z" fill="white"/>
<path d="M224.055 112.148C224.055 119.009 229.598 124.57 236.437 124.57C243.276 124.57 248.82 119.009 248.82 112.148C248.82 105.288 243.276 99.7266 236.437 99.7266C229.598 99.7266 224.055 105.288 224.055 112.148ZM244.486 109.174L242.292 110.608L241.449 109.311L244.486 109.174ZM241.146 116.469L241.73 115.035L243.57 117.463L241.146 116.469ZM235.528 121.385L237.072 118.758V121.385H235.528ZM235.528 106.176L237.072 103.549V106.176H235.528ZM228.669 117.463L230.509 115.035L231.093 116.469L228.669 117.463ZM227.753 109.174L230.79 109.311L229.947 110.608L227.753 109.174Z" fill="#E6E6E6"/>
<path d="M60.5417 133.169C72.1149 133.169 81.4968 123.758 81.4968 112.148C81.4968 100.539 72.1149 91.127 60.5417 91.127C48.9686 91.127 39.5867 100.539 39.5867 112.148C39.5867 123.758 48.9686 133.169 60.5417 133.169Z" fill="#3F3D56"/>
<path d="M46.0954 112.148C46.0954 104.157 52.576 97.6563 60.5417 97.6563C68.5074 97.6563 74.988 104.157 74.988 112.148C74.988 120.139 68.5074 126.64 60.5417 126.64C52.576 126.64 46.0954 120.139 46.0954 112.148ZM46.4129 112.148C46.4129 119.963 52.751 126.322 60.5417 126.322C68.3324 126.322 74.6705 119.963 74.6705 112.148C74.6705 104.333 68.3324 97.9748 60.5417 97.9748C52.751 97.9748 46.4129 104.333 46.4129 112.148Z" fill="white"/>
<path d="M48.1592 112.148C48.1592 119.009 53.703 124.57 60.5417 124.57C67.3804 124.57 72.9242 119.009 72.9242 112.148C72.9242 105.288 67.3804 99.7266 60.5417 99.7266C53.703 99.7266 48.1592 105.288 48.1592 112.148ZM68.5908 109.174L66.3968 110.608L65.5539 109.311L68.5908 109.174ZM65.2507 116.469L65.835 115.035L67.6747 117.463L65.2507 116.469ZM59.633 121.385L61.1767 118.758V121.385H59.633ZM59.633 106.176L61.1767 103.549V106.176H59.633ZM52.7737 117.463L54.6134 115.035L55.1977 116.469L52.7737 117.463ZM51.8576 109.174L54.8945 109.311L54.0516 110.608L51.8576 109.174Z" fill="#E6E6E6"/>
<path d="M148.013 67.3985H160.078V64.8505H148.013V67.3985Z" fill="#3F3D56"/>
<path d="M318.068 117.418C317.956 117.072 317.104 117.224 317.022 116.916C316.94 116.608 317.758 116.35 318.385 115.483C318.499 115.327 319.211 114.341 318.938 113.927C318.42 113.141 314.814 115.098 313.949 114C313.759 113.759 313.681 113.345 313.115 112.576C312.89 112.269 312.745 112.122 312.573 112.126C312.328 112.132 312.24 112.439 311.856 112.996C311.278 113.831 311.07 113.726 310.69 114.41C310.408 114.918 310.374 115.242 310.171 115.261C309.883 115.288 309.764 114.656 309.412 114.631C309.053 114.606 308.694 115.231 308.515 115.719C308.181 116.635 308.388 117.335 308.434 118.032C308.484 118.79 308.367 119.9 307.546 121.324L299.801 133.702C301.465 131.179 306.186 124.298 308.088 121.774C308.637 121.045 309.227 120.314 310.135 120.176C311.01 120.044 312.074 120.478 313.559 120.452C313.732 120.449 314.215 120.435 314.332 120.178C314.429 119.966 314.188 119.782 314.276 119.582C314.394 119.315 314.923 119.43 315.644 119.252C316.152 119.127 316.498 118.92 316.795 118.742C316.884 118.688 318.218 117.877 318.068 117.418Z" fill="#F2F2F2"/>
<path d="M297.785 120.308C297.583 120.263 297.412 120.727 297.237 120.678C297.063 120.629 297.173 120.152 296.929 119.593C296.886 119.493 296.609 118.857 296.328 118.872C295.794 118.901 295.711 121.24 294.924 121.35C294.751 121.374 294.526 121.293 293.986 121.349C293.772 121.372 293.658 121.4 293.61 121.487C293.542 121.609 293.667 121.741 293.829 122.091C294.07 122.616 293.959 122.688 294.184 123.073C294.351 123.358 294.5 123.468 294.451 123.574C294.381 123.723 294.037 123.6 293.924 123.766C293.808 123.935 294.01 124.292 294.197 124.521C294.549 124.95 294.951 125.05 295.305 125.228C295.691 125.423 296.2 125.8 296.66 126.616L300.481 134C299.727 132.453 297.722 128.143 297.036 126.479C296.838 125.998 296.65 125.496 296.845 125.009C297.033 124.541 297.552 124.142 297.968 123.404C298.017 123.317 298.149 123.076 298.057 122.944C297.981 122.835 297.822 122.9 297.749 122.799C297.652 122.664 297.861 122.437 297.982 122.031C298.068 121.744 298.066 121.514 298.065 121.317C298.064 121.257 298.053 120.366 297.785 120.308Z" fill="#F2F2F2"/>
<path d="M301.597 122.109L301.717 120.997L301.791 120.927C302.132 120.604 302.345 120.261 302.425 119.909C302.438 119.853 302.447 119.796 302.458 119.739C302.497 119.51 302.547 119.226 302.766 118.93C302.889 118.766 303.213 118.394 303.548 118.524C303.638 118.558 303.699 118.616 303.742 118.679C303.752 118.668 303.763 118.657 303.775 118.645C303.92 118.504 304.021 118.453 304.118 118.403C304.193 118.365 304.27 118.325 304.401 118.22C304.459 118.174 304.504 118.133 304.543 118.098C304.661 117.993 304.811 117.87 305.017 117.919C305.235 117.978 305.31 118.187 305.359 118.325C305.448 118.572 305.475 118.741 305.493 118.854C305.5 118.895 305.507 118.941 305.513 118.956C305.561 119.077 306.16 119.108 306.386 119.121C306.892 119.149 307.331 119.173 307.437 119.521C307.512 119.77 307.354 120.042 306.954 120.35C306.829 120.446 306.705 120.512 306.596 120.561C306.663 120.625 306.716 120.711 306.719 120.828C306.727 121.106 306.443 121.319 305.875 121.463C305.734 121.499 305.545 121.547 305.296 121.535C305.179 121.529 305.077 121.511 304.99 121.494C304.977 121.544 304.953 121.596 304.91 121.645C304.784 121.79 304.58 121.827 304.303 121.745C303.997 121.66 303.755 121.544 303.542 121.442C303.356 121.353 303.196 121.276 303.061 121.256C302.811 121.221 302.577 121.376 302.297 121.582L301.597 122.109Z" fill="#F2F2F2"/>
<path d="M303.596 115.773L302.493 115.938L302.407 115.885C302.009 115.636 301.625 115.516 301.264 115.528C301.207 115.529 301.15 115.534 301.092 115.539C300.861 115.558 300.574 115.582 300.234 115.445C300.044 115.367 299.603 115.147 299.644 114.789C299.654 114.693 299.695 114.619 299.744 114.562C299.731 114.554 299.718 114.546 299.704 114.538C299.531 114.433 299.456 114.348 299.383 114.266C299.327 114.204 299.269 114.138 299.135 114.038C299.076 113.994 299.024 113.96 298.981 113.931C298.85 113.844 298.693 113.73 298.688 113.517C298.69 113.291 298.872 113.165 298.993 113.082C299.208 112.933 299.365 112.864 299.469 112.818C299.507 112.801 299.549 112.782 299.562 112.773C299.667 112.696 299.545 112.106 299.5 111.884C299.398 111.385 299.31 110.954 299.619 110.763C299.84 110.626 300.142 110.71 300.541 111.021C300.665 111.117 300.76 111.222 300.835 111.314C300.879 111.234 300.949 111.16 301.061 111.127C301.327 111.05 301.605 111.271 301.888 111.785C301.958 111.913 302.052 112.085 302.104 112.329C302.128 112.444 302.136 112.548 302.142 112.637C302.194 112.637 302.25 112.647 302.308 112.676C302.48 112.762 302.567 112.95 302.559 113.24C302.554 113.558 302.503 113.822 302.459 114.054C302.42 114.258 302.388 114.433 302.402 114.569C302.431 114.821 302.64 115.008 302.91 115.227L303.596 115.773Z" fill="#F2F2F2"/>
<path d="M303.745 112.449L303.865 111.337L303.939 111.267C304.279 110.944 304.493 110.602 304.573 110.249C304.585 110.193 304.595 110.136 304.605 110.079C304.645 109.85 304.695 109.566 304.914 109.27C305.037 109.106 305.361 108.734 305.696 108.864C305.786 108.898 305.847 108.956 305.89 109.019C305.9 109.008 305.911 108.997 305.923 108.985C306.067 108.845 306.168 108.793 306.266 108.743C306.341 108.705 306.418 108.666 306.549 108.561C306.606 108.515 306.652 108.473 306.691 108.438C306.808 108.333 306.959 108.21 307.164 108.259C307.383 108.319 307.457 108.527 307.507 108.665C307.596 108.912 307.623 109.081 307.641 109.194C307.647 109.235 307.655 109.281 307.661 109.296C307.708 109.417 308.308 109.448 308.533 109.461C309.04 109.489 309.479 109.513 309.584 109.861C309.66 110.11 309.502 110.382 309.102 110.69C308.977 110.786 308.853 110.852 308.744 110.901C308.811 110.965 308.864 111.051 308.867 111.168C308.875 111.446 308.591 111.659 308.023 111.803C307.882 111.839 307.692 111.887 307.444 111.875C307.327 111.869 307.225 111.851 307.138 111.834C307.125 111.884 307.101 111.936 307.058 111.985C306.931 112.13 306.727 112.167 306.45 112.085C306.145 112 305.903 111.884 305.69 111.782C305.504 111.693 305.343 111.617 305.209 111.596C304.958 111.561 304.725 111.716 304.445 111.922L303.745 112.449Z" fill="#F2F2F2"/>
<path d="M300.168 133.765L299.973 133.572L299.701 133.543C299.703 133.518 299.701 133.458 299.699 133.364C299.688 132.853 299.656 131.295 299.872 128.902C300.023 127.231 300.276 125.535 300.622 123.861C300.969 122.183 301.33 120.935 301.619 119.932C301.837 119.176 302.058 118.458 302.273 117.759C302.847 115.892 303.389 114.128 303.725 112.115C303.8 111.666 303.956 110.731 303.637 109.628C303.452 108.988 303.134 108.385 302.693 107.838L303.12 107.492C303.607 108.097 303.958 108.764 304.163 109.475C304.518 110.698 304.348 111.717 304.266 112.207C303.924 114.254 303.377 116.035 302.797 117.921C302.583 118.617 302.363 119.332 302.145 120.085C301.859 121.079 301.502 122.316 301.159 123.972C300.816 125.627 300.567 127.302 300.418 128.951C300.205 131.314 300.237 132.849 300.247 133.353C300.253 133.622 300.254 133.678 300.168 133.765Z" fill="#F2F2F2"/>
<path d="M301.523 108.471C301.501 108.466 301.479 108.46 301.456 108.454C301.006 108.327 300.645 107.959 300.383 107.36C300.26 107.079 300.231 106.782 300.174 106.191C300.164 106.1 300.124 105.639 300.174 105.028C300.206 104.628 300.248 104.468 300.357 104.342C300.477 104.202 300.639 104.121 300.811 104.081C300.815 104.028 300.832 103.976 300.867 103.927C301.008 103.724 301.243 103.807 301.371 103.851C301.436 103.874 301.516 103.904 301.607 103.919C301.749 103.944 301.834 103.919 301.962 103.881C302.085 103.845 302.238 103.801 302.449 103.805C302.865 103.811 303.174 103.998 303.275 104.06C303.811 104.383 303.996 104.898 304.21 105.494C304.252 105.614 304.394 106.046 304.426 106.602C304.45 107.004 304.398 107.168 304.338 107.286C304.215 107.527 304.027 107.639 303.56 107.875C303.072 108.122 302.828 108.245 302.627 108.309C302.16 108.456 301.867 108.548 301.523 108.471Z" fill="#F2F2F2"/>
<path d="M0 133.287C0 133.498 0.293777 133.666 0.659611 133.666H315.548C315.913 133.666 316.207 133.498 316.207 133.287C316.207 133.077 315.913 132.908 315.548 132.908H0.659611C0.293777 132.908 0 133.077 0 133.287Z" fill="#CCCCCC"/>
<path d="M160.001 130.894L164.41 130.894L166.507 113.836L160.001 113.837L160.001 130.894Z" fill="#C8C8C8"/>
<path d="M175.105 130.794C175.242 131.026 175.315 131.774 175.315 132.044C175.315 132.873 174.645 133.545 173.819 133.545L160.166 133.545C159.603 133.545 159.146 133.087 159.146 132.521V131.951C159.146 131.951 158.47 130.237 159.861 128.125C159.861 128.125 161.589 129.779 164.171 127.188L164.933 125.805L170.445 129.849L173.5 130.226C174.169 130.308 174.761 130.213 175.105 130.794Z" fill="#2F2E41"/>
<path d="M140.195 130.894L144.603 130.894L146.7 113.836L140.194 113.837L140.195 130.894Z" fill="#C8C8C8"/>
<path d="M155.299 130.794C155.436 131.026 155.508 131.774 155.508 132.044C155.508 132.873 154.838 133.545 154.012 133.545L140.36 133.545C139.796 133.545 139.339 133.087 139.339 132.521V131.951C139.339 131.951 138.664 130.237 140.054 128.125C140.054 128.125 141.782 129.779 144.365 127.188L145.126 125.805L150.638 129.849L153.694 130.226C154.362 130.308 154.955 130.213 155.299 130.794Z" fill="#2F2E41"/>
<path d="M159.303 14.4204L160.14 22.2561L150.376 21.4166L152.05 14.1406L159.303 14.4204Z" fill="#C8C8C8"/>
<path opacity="0.1" d="M159.303 14.4204L160.14 22.2561L150.376 21.4166L152.05 14.1406L159.303 14.4204Z" fill="black"/>
<path d="M155.816 15.3999C159.36 15.3999 162.232 12.5182 162.232 8.96342C162.232 5.40866 159.36 2.52696 155.816 2.52696C152.273 2.52696 149.4 5.40866 149.4 8.96342C149.4 12.5182 152.273 15.3999 155.816 15.3999Z" fill="#B3B3B3"/>
<path d="M160.001 19.0379L170.741 25.3344L167.222 42.405L169.625 65.3524L167.951 121.601L157.63 120.482L156.235 72.6284L148.145 122.161H138.122L139.776 68.7105L144.797 46.043L141.729 21.4166L151.074 18.4782L160.001 19.0379Z" fill="#2F2E41"/>
<path d="M160.419 10.7824C160.419 10.7824 160.977 8.82349 162.232 8.96342C163.488 9.10334 163.767 7.98396 163.488 7.42427C163.209 6.86458 162.651 4.06611 162.651 4.06611C162.651 4.06611 162.93 2.10719 161.256 1.82734C159.582 1.5475 159.024 1.26765 158.745 0.707961C158.466 0.148268 154.282 -0.411423 152.887 0.428114C151.492 1.26765 150.376 2.87842 149.4 3.33234C148.424 3.78627 147.587 4.6258 148.145 6.02504C148.703 7.42427 149.512 10.1609 149.512 10.1609C149.512 10.1609 150.934 9.66303 151.213 10.5026C151.492 11.3421 150.376 10.2227 151.771 7.98396C153.166 5.74519 153.166 3.50642 155.398 4.34596C157.63 5.1855 160.14 4.90565 159.861 6.58473C159.582 8.26381 160.419 10.7824 160.419 10.7824Z" fill="#2F2E41"/>
<path d="M165.202 60.3323C163.86 61.7585 163.505 63.6097 164.41 64.4667C165.315 65.3238 167.137 64.8623 168.48 63.4354C169.024 62.8728 169.426 62.1876 169.652 61.4371L175.265 55.322L172.349 52.7407L167.125 59.0432C166.39 59.3127 165.731 59.7548 165.202 60.3323Z" fill="#C8C8C8"/>
<path d="M170.628 25.1945L180.081 41.35L181.481 48.7253L172.378 60.3152L168.527 55.3983L173.079 48.7253L165.726 35.7307L170.628 25.1945Z" fill="#2F2E41"/>
<path d="M144.05 58.828V39.7798C144.05 36.8765 146.405 34.5147 149.299 34.5147H178.325C181.219 34.5147 183.573 36.8765 183.573 39.7798V58.828C183.573 61.7313 181.219 64.0931 178.325 64.0931H149.299C146.405 64.0931 144.05 61.7313 144.05 58.828Z" fill="#80884D"/>
<path d="M158.166 46.5372H168.203V44.0199H158.166V46.5372Z" fill="#3F3D56"/>
<path d="M167.381 63.9243V58.8897H159.225V63.9243H167.381Z" fill="#3F3D56"/>
<path d="M167.764 39.7181V34.6835H159.608V39.7181H167.764Z" fill="#3F3D56"/>
<path d="M146.988 56.6943C148.331 58.1205 148.686 59.9717 147.781 60.8287C146.876 61.6858 145.054 61.2243 143.711 59.7974C143.167 59.2348 142.764 58.5496 142.538 57.7991L136.925 51.684L139.842 49.1027L145.066 55.4052C145.8 55.6747 146.459 56.1168 146.988 56.6943Z" fill="#C8C8C8"/>
<path d="M141.563 21.5565L132.11 37.712L130.709 45.0873L139.812 56.6772L143.663 51.7603L139.112 45.0873L146.464 32.0927L141.563 21.5565Z" fill="#2F2E41"/>
<path d="M24.0239 98.5908C28.7584 98.5908 32.5964 95.2397 32.5964 91.106C32.5964 86.9722 28.7584 83.6211 24.0239 83.6211C19.2895 83.6211 15.4514 86.9722 15.4514 91.106C15.4514 95.2397 19.2895 98.5908 24.0239 98.5908Z" fill="#E6E6E6"/>
</g>
<defs>
<clipPath id="clip0_81_677">
<rect width="319" height="134" fill="white"/>
</clipPath>
</defs>
</svg>
