<svg width="101" height="82" viewBox="0 0 101 82" fill="none" xmlns="http://www.w3.org/2000/svg">
<rect width="101" height="57" rx="10" fill="white"/>
<path d="M33.2391 80.052H37.3191V81H31.9431V80.136L35.9991 73.584H31.9911V72.636H37.2951V73.5L33.2391 80.052ZM44.2313 74.424V81H43.1393V80.028C42.9313 80.364 42.6393 80.628 42.2633 80.82C41.8953 81.004 41.4873 81.096 41.0393 81.096C40.5273 81.096 40.0673 80.992 39.6593 80.784C39.2513 80.568 38.9273 80.248 38.6873 79.824C38.4553 79.4 38.3393 78.884 38.3393 78.276V74.424H39.4193V78.132C39.4193 78.78 39.5833 79.28 39.9113 79.632C40.2393 79.976 40.6873 80.148 41.2553 80.148C41.8393 80.148 42.2993 79.968 42.6353 79.608C42.9713 79.248 43.1393 78.724 43.1393 78.036V74.424H44.2313ZM53.1863 72.636V73.524H49.5503V76.344H52.5023V77.232H49.5503V81H48.4583V72.636H53.1863ZM59.9292 74.424V81H58.8372V80.028C58.6292 80.364 58.3372 80.628 57.9612 80.82C57.5932 81.004 57.1852 81.096 56.7372 81.096C56.2252 81.096 55.7652 80.992 55.3572 80.784C54.9492 80.568 54.6252 80.248 54.3852 79.824C54.1532 79.4 54.0372 78.884 54.0372 78.276V74.424H55.1172V78.132C55.1172 78.78 55.2812 79.28 55.6092 79.632C55.9372 79.976 56.3852 80.148 56.9532 80.148C57.5372 80.148 57.9972 79.968 58.3332 79.608C58.6692 79.248 58.8372 78.724 58.8372 78.036V74.424H59.9292ZM61.1609 74.268C61.1609 73.524 61.3969 72.92 61.8689 72.456C62.3489 71.984 63.0529 71.748 63.9809 71.748C64.5329 71.748 65.0049 71.84 65.3969 72.024C65.7969 72.208 66.0969 72.452 66.2969 72.756C66.5049 73.06 66.6089 73.388 66.6089 73.74C66.6089 74.124 66.5129 74.452 66.3209 74.724C66.1289 74.988 65.8649 75.26 65.5289 75.54C65.3129 75.724 65.1569 75.876 65.0609 75.996C64.9649 76.108 64.9169 76.228 64.9169 76.356C64.9169 76.532 65.0089 76.684 65.1929 76.812C65.3769 76.94 65.7289 77.092 66.2489 77.268C66.8329 77.46 67.2569 77.712 67.5209 78.024C67.7849 78.328 67.9169 78.716 67.9169 79.188C67.9169 79.764 67.7129 80.232 67.3049 80.592C66.9049 80.944 66.3489 81.12 65.6369 81.12C64.9409 81.12 64.3729 80.928 63.9329 80.544C63.4929 80.16 63.2449 79.632 63.1889 78.96H64.2929C64.3169 79.352 64.4449 79.664 64.6769 79.896C64.9169 80.128 65.2369 80.244 65.6369 80.244C66.0129 80.244 66.3009 80.16 66.5009 79.992C66.7009 79.824 66.8009 79.584 66.8009 79.272C66.8009 78.984 66.7129 78.752 66.5369 78.576C66.3609 78.4 66.0529 78.24 65.6129 78.096C64.9649 77.88 64.5009 77.652 64.2209 77.412C63.9489 77.172 63.8129 76.868 63.8129 76.5C63.8129 76.22 63.8889 75.976 64.0409 75.768C64.1929 75.56 64.4169 75.324 64.7129 75.06C64.9849 74.812 65.1849 74.6 65.3129 74.424C65.4489 74.248 65.5169 74.048 65.5169 73.824C65.5169 73.464 65.3769 73.184 65.0969 72.984C64.8249 72.776 64.4489 72.672 63.9689 72.672C62.8249 72.672 62.2529 73.248 62.2529 74.4V81H61.1609V74.268Z" fill="#1C1B1F"/>
<path d="M52.1903 53.0076L54.0249 53.0074L54.8977 46.6209L52.1899 46.6211L52.1903 53.0076Z" fill="#C8C8C8"/>
<path d="M58.4759 52.97C58.533 53.0568 58.5632 53.3371 58.5632 53.438C58.5632 53.7484 58.2844 54 57.9405 54L52.2589 54C52.0243 54 51.8341 53.8284 51.8341 53.6166V53.4032C51.8341 53.4032 51.5531 52.7615 52.1317 51.9707C52.1317 51.9707 52.8509 52.5899 53.9256 51.6201L54.2425 51.1019L56.5365 52.6161L57.808 52.7573C58.0862 52.7882 58.3328 52.7525 58.4759 52.97Z" fill="#2F2E41"/>
<path d="M43.9475 53.0076L45.7821 53.0074L46.6549 46.6209L43.9471 46.6211L43.9475 53.0076Z" fill="#C8C8C8"/>
<path d="M50.2332 52.97C50.2903 53.0568 50.3204 53.3371 50.3204 53.438C50.3204 53.7484 50.0416 54 49.6977 54L44.0162 54C43.7816 54 43.5914 53.8284 43.5914 53.6166V53.4032C43.5914 53.4032 43.3103 52.7615 43.889 51.9707C43.889 51.9707 44.6082 52.5899 45.6828 51.6201L45.9997 51.1019L48.2937 52.6161L49.5652 52.7573C49.8434 52.7882 50.0901 52.7525 50.2332 52.97Z" fill="#2F2E41"/>
<path d="M51.8998 9.39915L52.2481 12.3329L48.1848 12.0185L48.8813 9.29437L51.8998 9.39915Z" fill="#C8C8C8"/>
<path opacity="0.1" d="M51.8998 9.39915L52.2481 12.3329L48.1848 12.0185L48.8813 9.29437L51.8998 9.39915Z" fill="black"/>
<path d="M50.4486 9.7658C51.9233 9.7658 53.1188 8.68687 53.1188 7.35595C53.1188 6.02503 51.9233 4.94611 50.4486 4.94611C48.9739 4.94611 47.7784 6.02503 47.7784 7.35595C47.7784 8.68687 48.9739 9.7658 50.4486 9.7658Z" fill="#B3B3B3"/>
<path d="M52.19 11.1279L56.6597 13.4853L55.1952 19.8767L56.1953 28.4683L55.4987 49.5283L51.2032 49.1092L50.6227 31.1925L47.256 49.7378H43.0848L43.7731 29.7256L45.8628 21.2388L44.5858 12.0185L48.475 10.9183L52.19 11.1279Z" fill="#2F2E41"/>
<path d="M52.3641 8.037C52.3641 8.037 52.5963 7.30357 53.1187 7.35595C53.6412 7.40834 53.7572 6.98924 53.6412 6.77969C53.5251 6.57014 53.2929 5.52238 53.2929 5.52238C53.2929 5.52238 53.409 4.78894 52.7124 4.68417C52.0158 4.57939 51.7836 4.47462 51.6675 4.26506C51.5514 4.05551 49.81 3.84596 49.2295 4.16029C48.6491 4.47462 48.1847 5.0777 47.7784 5.24765C47.372 5.4176 47.0237 5.73193 47.2559 6.25581C47.4881 6.77969 47.8249 7.80428 47.8249 7.80428C47.8249 7.80428 48.4169 7.61789 48.533 7.93222C48.6491 8.24655 48.1847 7.82745 48.7652 6.98924C49.3456 6.15103 49.3456 5.31282 50.2744 5.62715C51.2032 5.94148 52.248 5.8367 52.1319 6.46536C52.0158 7.09402 52.3641 8.037 52.3641 8.037Z" fill="#2F2E41"/>
<path d="M54.3547 26.5888C53.7959 27.1228 53.6483 27.8159 54.0249 28.1368C54.4015 28.4577 55.1596 28.2849 55.7186 27.7506C55.9451 27.54 56.1124 27.2834 56.2065 27.0024L58.5426 24.7129L57.3287 23.7465L55.1547 26.1061C54.8491 26.2071 54.5749 26.3726 54.3547 26.5888Z" fill="#C8C8C8"/>
<path d="M56.6126 13.4329L60.5465 19.4816L61.1293 22.243L57.3411 26.5823L55.7384 24.7414L57.6325 22.243L54.5728 17.3777L56.6126 13.4329Z" fill="#2F2E41"/>
<path d="M45.5521 26.0255V18.8938C45.5521 17.8068 46.5319 16.9225 47.7363 16.9225H59.8158C61.0202 16.9225 62 17.8068 62 18.8938V26.0255C62 27.1125 61.0202 27.9968 59.8158 27.9968H47.7363C46.5319 27.9968 45.5521 27.1125 45.5521 26.0255Z" fill="#80884D"/>
<path d="M51.4263 21.4238H55.6036V20.4813H51.4263V21.4238Z" fill="#3F3D56"/>
<path d="M55.2613 27.9336V26.0486H51.8672V27.9336H55.2613Z" fill="#3F3D56"/>
<path d="M55.4206 18.8706V16.9856H52.0265V18.8706H55.4206Z" fill="#3F3D56"/>
<path d="M46.7746 25.2267C47.3334 25.7607 47.481 26.4537 47.1044 26.7746C46.7278 27.0955 45.9697 26.9227 45.4107 26.3885C45.1842 26.1778 45.0169 25.9213 44.9228 25.6403L42.5867 23.3508L43.8006 22.3843L45.9746 24.744C46.2802 24.8449 46.5545 25.0104 46.7746 25.2267Z" fill="#C8C8C8"/>
<path d="M44.5167 12.0709L40.5828 18.1196L40 20.8809L43.7882 25.2202L45.3909 23.3793L43.4968 20.8809L46.5565 16.0157L44.5167 12.0709Z" fill="#2F2E41"/>
</svg>
