<svg width="43" height="28" viewBox="0 0 43 28" fill="none" xmlns="http://www.w3.org/2000/svg">
<path d="M24.1006 27.1847H0V8.01923H39.7534V12.3455C39.7487 16.2798 38.0981 20.0516 35.1636 22.8335C32.2292 25.6154 28.2506 27.1803 24.1006 27.1847Z" fill="#80884D"/>
<path d="M42.5925 0.770137C42.5725 0.806106 42.5569 0.844167 42.5462 0.883544L41.1701 5.91177L39.6776 8.59153H0.0756836V7.92409L2.33033 5.91178L4.96054 1.14234C5.07665 0.931791 5.22912 0.741164 5.41163 0.57835C5.82809 0.206857 6.37838 3.65229e-07 6.95021 0H42.1029C42.1984 -1.55397e-06 42.2922 0.0233903 42.3753 0.0678882C42.4584 0.112386 42.5279 0.176478 42.5772 0.253967C42.6265 0.331455 42.6538 0.419706 42.6565 0.510144C42.6591 0.600582 42.6371 0.69014 42.5925 0.770137Z" fill="#3F3D56"/>
<path d="M41.905 3.34213L41.1703 5.91188H2.33057L3.58526 3.77302L41.905 3.34213Z" fill="#80884D"/>
<path d="M7.75698 18.0656H1.39575V18.3994H7.75698V18.0656Z" fill="white"/>
<path d="M7.75698 19.2336H1.39575V19.5674H7.75698V19.2336Z" fill="white"/>
<path d="M7.75698 20.4017H1.39575V20.7354H7.75698V20.4017Z" fill="white"/>
<path d="M3.85989 14.3482C5.12357 14.3482 6.148 13.377 6.148 12.179C6.148 10.981 5.12357 10.0099 3.85989 10.0099C2.5962 10.0099 1.57178 10.981 1.57178 12.179C1.57178 13.377 2.5962 14.3482 3.85989 14.3482Z" fill="white"/>
</svg>
